<?xml version="1.0" encoding="utf-8"?>
<!-- Generator: Adobe Illustrator 23.0.6, SVG Export Plug-In . SVG Version: 6.00 Build 0)  -->
<svg version="1.1" id="OBJECTS" xmlns="http://www.w3.org/2000/svg" xmlns:xlink="http://www.w3.org/1999/xlink" x="0px" y="0px"
	 viewBox="0 0 462.3 324.6" style="enable-background:new 0 0 462.3 324.6;" xml:space="preserve">
<style type="text/css">
	.st0{fill:#B1EDFF;}
	.st1{fill:#8DC5FF;}
	.st2{fill:#6AD2F5;}
	.st3{fill:#0790E8;}
	.st4{fill:#0E61D1;}
	.st5{fill:#1432BA;}
	.st6{fill:#024481;}
	.st7{fill:#5B23A9;}
	.st8{fill:#0093CB;}
	.st9{fill:#403657;}
	.st10{fill:#FFA681;}
	.st11{fill:#FFFFFF;}
	.st12{fill:#1B03A3;}
	.st13{fill:#9C78ED;}
	.st14{fill:#F97853;}
	.st15{fill:#EA5143;}
	.st16{fill:#005FB1;}
	.st17{fill:#00BFFF;}
	.st18{fill:#7846D1;}
	.st19{fill:#002D64;}
	.st20{fill:#6020BD;}
	.st21{fill:#0F9EEA;}
	.st22{fill:#E0D5F8;}
	.st23{fill:#1A0B42;}
	.st24{fill:#614C6E;}
	.st25{opacity:0.5;}
	.st26{fill:#1852FE;}
</style>
<title>new</title>
<path class="st0" d="M196.2,80.2C177.4,22.8,93.1,4.3,44.7,47.2c-0.7,0.6-1.4,1.2-2.1,1.9c-69.3,63.7-36.5,220.8,108.1,260.6
	s295.1-32.9,303.6-97.9c2.3-68-58.3-85.4-161.9-67.2C233.9,154.9,207.9,116,196.2,80.2z"/>
<path class="st1" d="M294.8,71.9c-15.9,2.6-20.3,16.7-8,26.6c4,3.3,9.9,6,18.1,7.4c31.4,5.2,48.1-8.7,35.5-26.7
	C332.6,68.2,310.5,69.4,294.8,71.9z"/>
<path class="st2" d="M48.8,185.9c-7.8-14.1-22.6-13.5-27.8,1.5c-1.7,4.9-2.4,11.3-0.9,19.5c5.7,31.3,24.4,42.3,37.1,24.4
	C65.2,220.2,56.6,199.9,48.8,185.9z"/>
<path class="st1" d="M419.1,197.5c-1.5,7.7,4.9,13.1,12,10.1c2.9-1.3,5.3-3.4,6.9-6.2c8.1-12.6,4-23.4-7.3-22.3
	C423.8,179.8,420.6,189.9,419.1,197.5z"/>
<path class="st1" d="M378.9,116.6c7.6,1.6,13.2-4.6,10.3-11.9c-1.2-2.9-3.4-5.4-6-7c-12.5-8.3-23.3-4.4-22.4,6.9
	C361.4,111.6,371.4,115,378.9,116.6z"/>
<path class="st1" d="M193.3,34.6c6,4.9,13.8,1.9,14.6-5.8c0.2-3.2-0.5-6.3-2.1-9c-7.2-13.1-18.7-14.6-23.1-4.2
	C180,22.1,187.3,29.7,193.3,34.6z"/>
<path class="st3" d="M435.1,309.8c2.6,0.5,5.3-0.3,7.2-2.2c1.2-1.1,1.9-2.7,2-4.3v-0.1c0-10.7,13.1-10,17.3-23s-12.5-14.2-22-6.1
	c-6.8,5.8-15-2.3-25,4.5c-8.6,5.9-3.8,20.3-18,15.8c-4.5-1.5-8.6-0.1-12,2.5c-3.8,2.9-6.5,7-7.6,11.6l1.1,0.8
	C406.2,326.4,418.8,307.1,435.1,309.8z"/>
<path class="st4" d="M407.5,309.2l37-23.8c0.5-0.3,0.6-1,0.2-1.5c-0.3-0.4-0.9-0.6-1.4-0.3l-39.8,25.6H407.5z"/>
<path class="st5" d="M405.5,238.5c-1.6-23.3-1.8-47.7-0.1-63.9c2.3-21.2,7.4-35.9,15.2-43.8c0.5-0.5,1.4-0.5,1.9,0
	c0.5,0.5,0.5,1.4,0,1.9l0,0c-13.7,13.8-18.6,50.9-14.3,107.2L405.5,238.5z"/>
<path class="st4" d="M409,155.9c0,0-11.2,0-10.4-19.6C398.6,136.2,415.7,141.1,409,155.9z"/>
<path class="st4" d="M408,165.9c0,0-0.6-11.1,19-11.4C427.1,154.5,423.1,171.8,408,165.9z"/>
<path class="st4" d="M416.6,138.4c0,0-4.3-10.3,14.1-17.1C430.7,121.3,432.8,138.9,416.6,138.4z"/>
<path class="st4" d="M405.5,186.2c0,0-10.5,3.8-16.4-15C389.1,171.2,406.8,170,405.5,186.2z"/>
<path class="st4" d="M406.1,196.6c0,0-2.5-10.9,16.8-14.6C422.9,182.1,422,199.8,406.1,196.6z"/>
<path class="st4" d="M405.6,211c0,0-10.4,4-16.7-14.7C388.9,196.3,406.6,194.8,405.6,211z"/>
<path class="st6" d="M81.6,290.4l-3-0.1l-1.6-0.1l-4.6-0.2c0,0-42.3-71.7-15.8-95.1c8.2-7.2,22.4-1.2,19.2,31.9
	C72.9,257.5,81.6,290.4,81.6,290.4z"/>
<path class="st7" d="M78.5,290.3l-1.6-0.1c-7.4-17.4-11.1-36-13-49.1c-1.3-8.9-2.1-18-2.3-27c0-0.4,0.3-0.7,0.7-0.7c0,0,0,0,0,0
	c0.4,0,0.7,0.3,0.7,0.7c0.2,9,1,17.9,2.3,26.8C67.3,254.1,71,272.9,78.5,290.3z"/>
<path class="st3" d="M90,304.8l-4.1,1.5l-2.2,0.8l-6.2,2.3c0,0-96.4-72.3-74.1-118.3c6.9-14.1,29.2-14.1,43.5,31.9
	C60,265.6,90,304.8,90,304.8z"/>
<path class="st4" d="M85.8,306.3l-2.2,0.8c-19.5-19.1-34.9-42-44.7-58.5c-6.7-11.2-12.7-22.8-18.1-34.8c-0.2-0.5,0.1-1.2,0.6-1.4
	c0.5-0.2,1.1,0,1.4,0.5c5.3,11.9,11.3,23.4,18,34.5C50.6,264.2,66.1,287.3,85.8,306.3z"/>
<path class="st8" d="M419.4,308.9c-0.1-1.7-0.3-3.4-0.6-5c-3.5-15.9,6-18.9,18.4-23.9s13.9-19.9,5.1-32.3s7-22.3,1.2-40.9
	s-26-6.2-30.5,10.9c-3.2,12.3-19.4,9.7-25.3,25.7c-5.2,13.9,12.2,26.7-7.9,33.1c-6.4,2-10,7-11.9,12.7c-2.1,6.4-1.8,13.4,0.7,19.6
	L419.4,308.9z"/>
<path class="st4" d="M394.8,308.9l33.2-81.9c0.3-0.8-0.2-1.7-1-1.9c-0.7-0.2-1.5,0.1-1.8,0.8l-33.6,83H394.8z"/>
<path class="st9" d="M118.5,61.4c0,0,0.7-14.7-8.3-17.6c-14-4.4-17.8,2.8-20,7.6c-2.8,6.1-1.6,18.1,6.7,19.3
	C109.4,72.5,117.7,65.5,118.5,61.4z"/>
<path class="st9" d="M127.5,110.7c7.3,0,13.5-5.1,15-12.2c1.1-5.1,2.1-9.6,2.1-12.2v-0.1c0.1-0.8,0.1-1.6,0.1-2.4
	c0.1-11.6-7.1-32.9-32.3-29.5c0,0-20.9,2.4-23.3,22.8c0,0-1,9.4-1.7,16.3c0,0.1,0,0.2,0,0.4c-0.9,8.4,5.3,15.9,13.7,16.8
	c0.5,0.1,1,0.1,1.5,0.1L127.5,110.7z"/>
<path class="st6" d="M157.4,134.9c0,0,4.5,35.3,9.6,53.5c0,0,7.2-3.4,16.7-8c10.3-5,25-14,25-14l3.7,9c0,0-38.1,36-50.8,38
	s-20.4-43.2-20.4-43.2L157.4,134.9z"/>
<path class="st10" d="M207.9,167.5c0,0-1.1-5,1.2-8.4s5.7-9.8,9.7-11.1c3.4-1.1-1.6,4.6-1.8,8.2c2.9-0.4,5.8-1,8.6-1.8
	c3.2-1,9.5-2.3,12.4-2.9c0.4-0.1,0.9,0.2,0.9,0.6c0.1,0.3,0,0.6-0.3,0.8c-1,0.9-3.1,1.9-7.4,3c0,0,10.5-2,11.5-0.4s-12,3.8-12,3.8
	s10.2-0.6,10.4,1c0.2,1-10.4,3.2-10.4,3.2s9.6,0.3,7.3,1.8c-0.7,0.4-19.3,2.5-25.8,10.2C212.5,175.5,208.1,170.9,207.9,167.5z"/>
<path class="st6" d="M93.1,128c0,0-21.3,6.3-39.7,10.4c0,0-0.5-8-1-18.5c-0.5-11.4,0.4-28.7,0.4-28.7l-9.7,1c0,0-13.5,50.6-9.3,62.8
	c4.2,12.1,57.8-4.9,57.8-4.9L93.1,128z"/>
<path class="st10" d="M52.3,92.5c0,0,4.9-1.5,6.8-5.1s7.2-10.8,4-13.5c-1.2-1-2.1,3.3-5.2,5.1c-1.1-2.7-1.9-5.6-2.5-8.4
	c-0.6-3.3-2.4-9.4-3.3-12.2c-0.1-0.4-0.5-0.7-1-0.6c-0.3,0.1-0.5,0.3-0.6,0.6c-0.3,1.3-0.3,3.6,0.9,7.9c0,0-3.2-10.1-5.2-10.3
	s2.3,12.4,2.3,12.4s-4.3-9.2-5.8-8.7c-0.9,0.3,2.1,10.6,2.1,10.6s-4.8-8.3-5-5.6c-0.1,0.8,6.9,18.2,3.3,27.5
	C43.2,92.3,49.2,93.9,52.3,92.5z"/>
<path class="st3" d="M156.6,271.9l0.2,0.8c-16.6,11.3-78.8,3.6-78.8,3.6c0.1-1.3,0.3-2.7,0.4-4.1c0.2-1.6,0.4-3.2,0.7-4.9
	c0.8-4.5,1.8-9.4,2.9-14.5c0.4-1.6,0.7-3.2,1.1-4.8c1.1-4.8,2.3-9.7,3.4-14.4c0.4-1.6,0.8-3.2,1.1-4.8c0.5-2.2,1-4.4,1.5-6.5
	c0.6-2.8,1.2-5.5,1.6-8.1c0.3-1.7,0.6-3.4,0.8-4.9c0.2-1.6,0.4-3.2,0.5-4.7c-1-3.6-1.9-7.2-2.8-10.7c-0.4-1.8-0.8-3.5-1.3-5.2
	c-1.3-5.5-2.4-10.7-3.4-15.5c-0.3-1.8-0.7-3.5-1-5.2c-1.1-5.8-2-11-2.7-15.5c-0.3-1.8-0.5-3.5-0.8-5.1c-0.3-1.8-0.5-3.4-0.7-4.8
	c-0.8-6.4-1.1-10.1-1.1-10.1s0.3-0.2,0.4-0.3c2.5-1.6,5.3-2.8,8.1-3.7c3.5-1.2,7.3-2.2,10.7-3l1.5-0.4c4.4-1,7.7-1.6,7.7-1.6
	c15.1,3.1,19.4,1.1,19.4,1.1l7.7,2.3l0.9,0.3l5.6,2l0.2,0.1l10,3.5l6.7,2.3l-2.6,12l-1.1,5.2l-3.4,15.7l-1.1,5.2l-3.4,15.7l-1.1,5.1
	l-2.8,13l0.6,2.5l1.1,4.8l1.7,7.7l1.6,6.9l1.1,4.8l3.3,14.5l1.1,4.8l3.3,14.3L156.6,271.9z"/>
<path class="st10" d="M134.9,127.1c-1.6,9.4-6.2,18.9-15.7,19.9c-11.5,1.2-17.4-13.1-20-22c4.4-1,9-2,9-2c15.1,3.1,18,1.2,18,1.2
	l7.8,2.6L134.9,127.1z"/>
<path class="st11" d="M118.1,139.1c-12,0-14.9-14.9-14.9-15c-0.1-0.3,0.1-0.6,0.5-0.7s0.6,0.1,0.7,0.5c0.1,0.6,2.8,14.6,14.5,14
	c10.2-0.5,10.8-11.8,10.8-12.3c0-0.3,0.3-0.6,0.6-0.6s0.6,0.3,0.6,0.6c0,0,0,0,0,0c0,0.1-0.6,12.9-11.9,13.4L118.1,139.1z"/>
<path class="st12" d="M96.5,134.9c0,1.6-1.3,2.9-2.9,2.9s-2.9-1.3-2.9-2.9s1.3-2.9,2.9-2.9c0,0,0,0,0,0
	C95.2,132,96.5,133.3,96.5,134.9z"/>
<path class="st12" d="M90.6,149.3c0,1.6-1.3,2.9-2.9,2.9c-1.6,0-2.9-1.3-2.9-2.9c0-1.6,1.3-2.9,2.9-2.9c0,0,0,0,0,0
	C89.3,146.4,90.6,147.7,90.6,149.3z"/>
<path class="st12" d="M109.4,156.1c0,1.6-1.3,2.9-2.9,2.9c-1.6,0-2.9-1.3-2.9-2.9c0-1.6,1.3-2.9,2.9-2.9c0,0,0,0,0,0
	C108.1,153.1,109.4,154.4,109.4,156.1z"/>
<path class="st12" d="M96.3,164.1c0.6,1.5-0.1,3.2-1.6,3.8c-1.5,0.6-3.2-0.1-3.8-1.6c-0.6-1.5,0.1-3.2,1.6-3.8
	C94,161.8,95.7,162.6,96.3,164.1C96.3,164.1,96.3,164.1,96.3,164.1z"/>
<path class="st12" d="M121.8,169.5c0,1.6-1.3,2.9-2.9,2.9c-1.6,0-2.9-1.3-2.9-2.9c0-1.6,1.3-2.9,2.9-2.9c0,0,0,0,0,0
	C120.4,166.5,121.8,167.9,121.8,169.5C121.8,169.5,121.8,169.5,121.8,169.5z"/>
<path class="st12" d="M140.5,175.5c0,1.6-1.3,2.9-2.9,2.9c-1.6,0-2.9-1.3-2.9-2.9c0-1.6,1.3-2.9,2.9-2.9c0,0,0,0,0,0
	C139.2,172.6,140.5,173.9,140.5,175.5C140.5,175.5,140.5,175.5,140.5,175.5z"/>
<path class="st12" d="M144.2,137.9c0,1.6-1.3,2.9-2.9,2.9s-2.9-1.3-2.9-2.9s1.3-2.9,2.9-2.9S144.2,136.3,144.2,137.9L144.2,137.9z"
	/>
<path class="st12" d="M122.9,188.2c0,1.6-1.3,2.9-2.9,2.9s-2.9-1.3-2.9-2.9c0-1.6,1.3-2.9,2.9-2.9c0,0,0,0,0,0
	C121.6,185.3,122.9,186.6,122.9,188.2z"/>
<path class="st12" d="M104.9,197.3c0,1.6-1.3,2.9-2.9,2.9S99,199,99,197.3c0-1.6,1.3-2.9,2.9-2.9c0,0,0,0,0,0
	C103.5,194.4,104.9,195.7,104.9,197.3z"/>
<path class="st12" d="M102.8,180.8c0,1.6-1.3,2.9-2.9,2.9c-1.6,0-2.9-1.3-2.9-2.9c0-1.6,1.3-2.9,2.9-2.9
	C101.4,177.8,102.8,179.1,102.8,180.8C102.8,180.8,102.8,180.8,102.8,180.8z"/>
<path class="st12" d="M131.7,156.8c0,1.6-1.3,2.9-2.9,2.9s-2.9-1.3-2.9-2.9c0-1.6,1.3-2.9,2.9-2.9c0,0,0,0,0,0
	C130.3,153.9,131.7,155.2,131.7,156.8z"/>
<path class="st12" d="M147.9,153.1c0,1.6-1.3,2.9-2.9,2.9c-1.6,0-2.9-1.3-2.9-2.9c0-1.6,1.3-2.9,2.9-2.9c0,0,0,0,0,0
	C146.6,150.2,147.9,151.5,147.9,153.1C147.9,153.1,147.9,153.1,147.9,153.1z"/>
<path class="st12" d="M137.6,193.1c0,1.6-1.3,2.9-2.9,2.9s-2.9-1.3-2.9-2.9s1.3-2.9,2.9-2.9S137.6,191.5,137.6,193.1L137.6,193.1z"
	/>
<path class="st12" d="M138.3,216.3c0,1.6-1.3,2.9-2.9,2.9s-2.9-1.3-2.9-2.9c0-1.6,1.3-2.9,2.9-2.9
	C137,213.4,138.3,214.7,138.3,216.3C138.3,216.3,138.3,216.3,138.3,216.3z"/>
<path class="st12" d="M123.4,206.6c0.6,1.5-0.1,3.2-1.6,3.8c-1.5,0.6-3.2-0.1-3.8-1.6c-0.6-1.5,0.1-3.2,1.6-3.8
	C121.1,204.4,122.8,205.1,123.4,206.6C123.4,206.6,123.4,206.6,123.4,206.6z"/>
<path class="st12" d="M103.4,215.2c0.6,1.5-0.1,3.2-1.6,3.8c-1.5,0.6-3.2-0.1-3.8-1.6c-0.6-1.5,0.1-3.2,1.6-3.8
	C101.1,213,102.8,213.7,103.4,215.2C103.4,215.2,103.4,215.2,103.4,215.2z"/>
<polygon class="st13" points="162.9,308.9 162.2,305.2 159.9,291 159.1,286.2 156.8,272.6 152.7,272.8 98.2,275.3 78,276.2 
	76.7,286.7 76.1,291.6 74.3,306.2 74,308.9 "/>
<path class="st9" d="M162.8,308.9l-0.6-3.3l-0.1-0.4l-0.4-2.3l-0.4-2.3l-1.6-9.5l-0.5-2.8l-0.4-2l-0.1-0.3l-2-12.4l-0.1-0.9
	l-0.2-0.8l-0.2-0.7l-0.9-4.1l-1.8-8l-0.5-2.3l-0.9-4l-1.1-4.8l-0.7-3.3l-0.5-2.3l-2-8.9l-0.7-3.2l-0.4-1.6l-0.2-0.7l-1.4-6.2
	c-22.1,6.5-45.6,2.7-56,0.3c-0.5,2.1-1,4.3-1.5,6.5c-0.1,0.5-0.2,1-0.3,1.5c-0.2,0.8-0.4,1.5-0.6,2.3c-0.1,0.4-0.2,0.7-0.3,1.1
	c-0.9,3.6-1.8,7.3-2.6,11c-0.2,0.8-0.3,1.5-0.5,2.3c-0.1,0.4-0.2,0.8-0.3,1.2c-0.4,1.6-0.7,3.2-1.1,4.8c-0.5,2.1-0.9,4.2-1.3,6.2
	c-0.2,0.8-0.3,1.5-0.5,2.2c-0.4,2.1-0.8,4.1-1.1,6c-0.3,1.7-0.5,3.3-0.7,4.9c-0.1,0.5-0.1,1-0.2,1.4c-0.1,0.8-0.2,1.5-0.2,2.3
	c0,0.1,0,0.2,0,0.3l-1.3,10.5l-0.2,1.6l-0.3,2.3l-0.1,1l-1.4,11.5l-0.3,2.3l-0.1,0.7l-0.3,2.6L162.8,308.9z"/>
<path class="st14" d="M136,87.6c0,0,3.6-4.6,6.3-0.8s-1.1,14.9-7.7,12.2L136,87.6z"/>
<path class="st15" d="M136.1,95.6c0.2,0,0.5-0.2,0.5-0.4c1-3.4,4.8-4.8,4.8-4.9c0.3-0.1,0.4-0.4,0.3-0.7c0,0,0,0,0,0
	c-0.1-0.3-0.4-0.4-0.7-0.3c-0.2,0.1-4.3,1.6-5.5,5.6c-0.1,0.3,0.1,0.6,0.4,0.6c0,0,0,0,0,0L136.1,95.6z"/>
<path class="st15" d="M139.9,93.9c0.1,0,0.2,0,0.3-0.1c0.2-0.1,0.3-0.5,0.2-0.7c0,0,0,0,0,0c-0.5-0.7-1.3-1.3-2.1-1.6
	c-0.3-0.1-0.6,0-0.7,0.3c-0.1,0.3,0,0.6,0.3,0.7c0,0,0,0,0,0c0.6,0.3,1.2,0.7,1.6,1.2C139.5,93.8,139.7,93.9,139.9,93.9z"/>
<path class="st11" d="M134.4,98.9c-1.4,1.6-1.3,4.1,0.3,5.5c1.6,1.4,4.1,1.3,5.5-0.3c1.4-1.6,1.3-4.1-0.3-5.5
	c-0.1-0.1-0.1-0.1-0.2-0.2c-0.5-0.4-1-0.6-1.6-0.8c-0.1-0.3,0-0.5,0.1-0.7c0.7,0.2,1.4,0.5,2,1c2,1.6,2.3,4.6,0.6,6.6
	c-1.6,2-4.6,2.3-6.6,0.6c-2-1.6-2.3-4.5-0.7-6.5L134.4,98.9z"/>
<path class="st10" d="M108.3,110.9v13.7c0,0,6.4,4.9,11.3,5.3c4.9,0.4,6.7-5.4,6.7-5.4v-12.7L108.3,110.9z"/>
<path class="st14" d="M108.3,112.3v5.5c3.3,3.7,9.2,5,18,3.7v-8.3L108.3,112.3z"/>
<path class="st10" d="M138.2,92.8c-0.2,1.3-0.4,2.7-0.6,4c-1.6,8.9-7.2,18.5-14.3,20.1c-15.3,3.5-21.7-8.6-24.2-17.4
	c-0.3-1,0.2-2.1,0-3.3c-0.5-2.8-1.6-5.9-1.9-9c-0.2-2.1-0.3-4.3-0.4-6.2c-0.3-5.3,2.8-10.3,7.8-12.3c7-2.8,17.8-5,27.9,0.9
	c3.8,2.3,6.1,6.3,6.2,10.7C138.8,84.5,138.7,88.7,138.2,92.8z"/>
<path class="st14" d="M118.8,99.7c-0.3,0-0.5-0.2-0.6-0.5c-0.1-0.3,0.2-0.6,0.5-0.7c0,0,0,0,0,0l2-0.4l-2.8-7.5
	c-0.1-0.3,0-0.6,0.3-0.8s0.6,0,0.8,0.3l3.3,8.9L118.8,99.7L118.8,99.7z"/>
<path class="st9" d="M126.1,89.8c0,1.3,0.7,2.4,1.5,2.4s1.5-1.1,1.5-2.4s-0.7-2.4-1.5-2.4S126.1,88.5,126.1,89.8z"/>
<path class="st9" d="M109.4,89.8c0,1.3,0.7,2.4,1.5,2.4s1.5-1.1,1.5-2.4s-0.7-2.4-1.5-2.4S109.4,88.5,109.4,89.8z"/>
<path class="st9" d="M132.1,83.5c-2.1-0.4-4.2-0.6-6.3-0.5c-0.7,0-1.2,0.5-1.1,1.1l0,0c0.1,0.5,0.6,0.8,1.1,0.7
	c2.9-0.2,5.8,0,8.6,0.5c0-0.4-0.2-0.7-0.5-0.9C133.4,83.9,132.7,83.6,132.1,83.5z"/>
<path class="st9" d="M107.8,83.8c2.1-0.4,4.2-0.6,6.3-0.6c0.7,0,1.3,0.5,1.2,1.1l0,0c-0.1,0.5-0.6,0.8-1.1,0.7
	c-2.9-0.2-5.8,0.1-8.6,0.7c0-0.4,0.2-0.7,0.4-0.9C106.5,84.3,107.1,83.9,107.8,83.8z"/>
<path class="st11" d="M126.1,103.3c-0.4,2.1-1.9,5.9-6.9,5.9s-6.3-3.5-6.8-5.9H126.1z"/>
<path class="st14" d="M119.3,112.8c1,0,1.9-0.3,2.7-0.8c0.3-0.2,0.3-0.6,0.1-0.8c-0.2-0.2-0.5-0.3-0.7-0.2l0,0
	c-0.6,0.4-1.4,0.6-2.1,0.6c-0.8,0-1.6-0.2-2.2-0.6c-0.3-0.2-0.6-0.1-0.8,0.2s-0.1,0.6,0.2,0.8C117.3,112.5,118.3,112.8,119.3,112.8z
	"/>
<path class="st9" d="M138.8,91.4c-0.1,0.1-0.3,0.1-0.4-0.1c-2-3.6-0.1-10.7-6.1-13.4c-2.8-1.3-5-3.6-6.2-6.4c-1,1.4-2.3,2.5-3.8,3.4
	c-4.5,2.6-9.2,4.9-14.1,6.9c-1.7,0.6-3.2,1.4-4.7,2.4h0.1c0,0-2,3.2-0.5,8.2s-0.4,13.3-3.6,15.2c0-0.1,2.5-5.9,1.1-10.5
	c-0.8-2.7-0.8-6.9-1.5-9.5c-0.8-0.6-2.7-1.5-3.4-1.9c-0.2-2.2-0.3-4.4-0.4-6.3c-0.3-5.5,3-10.6,8.2-12.6c7.4-2.9,18.7-5.1,29.4,1
	c3.9,2.2,6.4,6.4,6.5,10.9C139.5,83,139.3,87.2,138.8,91.4z"/>
<path class="st10" d="M99.1,87.6c0,0-4.2-5.1-6.7-1.4s1.2,14.9,7.2,12.3L99.1,87.6z"/>
<path class="st11" d="M99.3,98.6c1,1.9,0.3,4.3-1.6,5.3c-1.9,1-4.3,0.3-5.3-1.6c-1-1.9-0.3-4.3,1.6-5.3c0.6-0.3,1.2-0.5,1.9-0.4
	c0.1-0.2,0.1-0.5,0-0.8c-0.8,0-1.5,0.1-2.2,0.5c-2.3,1.1-3.3,3.9-2.2,6.2c1.1,2.3,3.9,3.3,6.2,2.2c2.3-1.1,3.3-3.9,2.2-6.2
	L99.3,98.6z"/>
<path class="st14" d="M98.2,94.7c-0.2,0-0.4-0.2-0.5-0.4c-0.7-2.1-2.4-3.8-4.4-4.7c-0.3-0.1-0.4-0.4-0.3-0.7
	c0.1-0.2,0.4-0.4,0.6-0.3c2.4,1,4.2,2.9,5,5.4C98.7,94.3,98.6,94.6,98.2,94.7L98.2,94.7z"/>
<path class="st14" d="M94.7,93c-0.1,0-0.2,0-0.3-0.1c-0.2-0.1-0.3-0.5-0.2-0.7c0,0,0,0,0,0c0.5-0.7,1.1-1.2,1.9-1.6
	c0.2-0.1,0.6,0,0.7,0.2s0,0.6-0.2,0.7c0,0-0.1,0-0.1,0c-0.6,0.3-1.1,0.7-1.5,1.2C95,92.9,94.9,93,94.7,93z"/>
<path class="st10" d="M321,197.9c-9.8,7-25,11.8-25,11.8l-3.1-11.2l-2.4-8.8l-1.7-6.2h-17.5c1,3.3,1.9,6.6,2.9,9.9
	c1.3,4.3,2.5,8.4,3.7,12.3c1.7,5.4,3.2,10.1,4.5,13.5c0.3,0.8,0.6,1.7,1,2.6c2.3,6.3,4.2,13.1,13.1,8.9c7.9-3.8,18.5-9,23.8-12.5
	L321,197.9z"/>
<path class="st14" d="M274.1,193.5c1.3,4.3,2.5,8.4,3.7,12.3c5.7-0.6,11-3.2,15-7.2l-2.4-8.8L274.1,193.5z"/>
<path class="st6" d="M270.4,132.2c0,0,18.2,43.5,26.1,57.6c0,0-11,9.4-21.7,9.6C274.8,199.4,268.6,151.6,270.4,132.2z"/>
<path class="st16" d="M227.7,308.9c0.2-3,0.4-5.9,0.5-8.6c0.6-11,1.1-18.5,1.1-18.5l-4.3-0.2l-2.4-0.1l-29.2-1.3
	c0,0-0.5,8.4-1.2,20.7c-0.1,2.5-0.3,5.2-0.4,8L227.7,308.9z"/>
<path class="st17" d="M225,281.6l4.3,0.2c0,0-0.4,7.5-1.1,18.5c-12,1-24,1.2-36,0.6c0.6-12.3,1.2-20.7,1.2-20.7l29.2,1.3L225,281.6z
	"/>
<path class="st18" d="M223.5,308.9c0.7-11.7,1.2-21.8,1.5-27.3l-2.4-0.1c-0.3,5.5-0.9,15.6-1.5,27.4H223.5z"/>
<path class="st13" d="M237.2,308.9h35.9c-0.1-2.8-0.3-5.5-0.4-8c-0.6-12.3-1.2-20.7-1.2-20.7l-29.2,1.3l-2.4,0.1l-4.3,0.2
	c0,0,0.4,7.5,1.1,18.5C236.8,302.9,237,305.9,237.2,308.9z"/>
<path class="st18" d="M239.9,281.6l-4.3,0.2c0,0,0.4,7.5,1.1,18.5c12,1,24,1.2,36,0.6c-0.6-12.3-1.2-20.7-1.2-20.7l-29.2,1.3
	L239.9,281.6z"/>
<path class="st18" d="M243.8,308.9c-0.7-11.8-1.2-21.9-1.5-27.4l-2.4,0.1c0.3,5.5,0.9,15.6,1.5,27.3L243.8,308.9z"/>
<path class="st4" d="M187,259.4v1.8c0,10.7,0.1,19,0.1,23c10.1,2.8,20.5,4.6,31,5.4l1.4,0.1l0.8,0c0.6,0,1.1,0.1,1.7,0.1l1.9,0.1
	c7,0.3,14.1,0.2,21.1-0.4c1.4-0.1,2.8-0.3,4.3-0.4h0.3l1.1-0.1l0.7-0.1c8.3-1,16.5-2.6,24.5-4.8c0-1.9,0-4.6,0-8v-2l0,0
	c0-4.9,0-11.1-0.1-18c0-0.6,0-1.2,0-1.8c0-4.6-0.1-9.6-0.1-14.7c0-0.6,0-1.2,0-1.8c-0.1-5.3-0.1-10.8-0.2-16.4
	c-0.1-3.4-0.1-6.9-0.2-10.3s-0.1-7-0.2-10.5c0-0.8,0-1.5-0.1-2.3c-0.8-32.9-2.2-63-4.5-66.4c-1.6-2.3-5.2-5.1-9.5-7.8l-1.6-1
	c-1.8-1.1-16.7-6.2-18.6-7.3l-15.7-1.1c-0.1,0.1-15.1,5.1-15.2,5.2c-0.6,0.4-1.3,0.7-2,1.1c-5.6,3.2-11.1,6.6-14.2,9.5
	c-0.4,0.4-0.8,0.8-1.2,1.2c-0.3,0.3-0.5,0.6-0.7,0.9c-0.2,0.4-0.4,0.9-0.6,1.4c-1.9,6.9-2.9,34.1-3.4,63.7l-0.1,6.4
	c0,0.9,0,1.9,0,2.8c0,0.6,0,1.3,0,1.9v1c0,1.6,0,3.2-0.1,4.8c0,1.2,0,2.4,0,3.5C187,233.1,187,247.6,187,259.4z"/>
<path class="st10" d="M158.9,301.6c-0.4,4.2,4.7,1.9,3.3-6.6s2.7-16.2,4.4-16s-1.5,9.3,0.1,12.5s3.6-3.1,5.6-6.9s2-12.7,1-18.9
	s10.3-43.9,10.4-54.9l1.4-4.6l5-17l7.9-26.6c0,0-4.7-20.1-12.6-18.4c0,0-4.2,14-8.7,29.8c-0.8,2.7-1.5,5.4-2.3,8.1
	c-3.2,11.5-6.2,22.8-7.6,29.5c-3.7,17.7-4,54.5-4,54.5s-6.5,13.5-6.7,19.5C155.9,292.3,159.3,297.4,158.9,301.6z"/>
<path class="st14" d="M174.3,182.3l10.8,24l5-17l-13.5-15.2C175.8,176.9,175.1,179.6,174.3,182.3z"/>
<path class="st6" d="M173.8,175.2c4.7,8.1,9.5,16.1,14.3,24.2c1.6-5.3,3.2-10.3,4.7-15l0,0c0.6-1.9,1.2-3.6,1.8-5.4c0,0,0-0.1,0-0.1
	c0.2-0.6,0.4-1.2,0.6-1.8l0,0c2.3-6.9,4.1-12.4,4.6-15.6c1.4-8.6-2.4-25.5-7.6-28.8l0,0c-0.1,0.3-0.6-0.6-0.8-0.1
	c-0.9,2.1-5,7.4-7,12.5l-0.8,2C180.7,154.7,177.1,164.5,173.8,175.2z"/>
<path class="st19" d="M231.9,130.4c6.8,0,11.6-6.2,11.8-6.5c0.3-0.4,0.2-0.9-0.1-1.2c-0.3-0.3-0.8-0.3-1.1,0.1c0,0,0,0,0,0.1
	c-0.1,0.1-4.5,5.8-10.5,5.8s-9.6-6.5-9.6-6.6c-0.2-0.4-0.7-0.5-1.1-0.4c0,0,0,0-0.1,0c-0.4,0.3-0.5,0.8-0.3,1.2
	C221.1,123.3,225.1,130.4,231.9,130.4z"/>
<path class="st19" d="M260.8,190c0.1,0,0.3,0,0.4-0.1c0.4-0.2,0.6-0.8,0.4-1.2l-3-6.3c-0.2-0.4-0.7-0.6-1.1-0.4c0,0,0,0,0,0
	c-0.4,0.2-0.6,0.8-0.4,1.2l3,6.3C260.1,189.8,260.4,190,260.8,190z"/>
<path class="st19" d="M266.9,184.8c0.1,0.1,0.2,0.1,0.4,0.1c0.5,0,0.9-0.3,0.9-0.8c0,0,0,0,0,0l0.6-7c0.1-0.5-0.2-0.9-0.7-1
	c0,0,0,0,0,0c-0.5,0-0.9,0.3-0.9,0.8l-0.6,7C266.5,184.3,266.7,184.6,266.9,184.8z"/>
<path class="st19" d="M251,173.9c0.4,0,0.8-0.3,0.8-0.8l1.1-6.9c0.1-0.5-0.2-0.9-0.7-1c-0.5-0.1-0.9,0.2-1,0.7c0,0,0,0,0,0.1l-1,7
	c-0.1,0.5,0.2,0.9,0.7,1H251z"/>
<path class="st19" d="M224.3,176.5c0.1,0,0.3,0,0.4-0.1c0.4-0.3,0.5-0.8,0.3-1.2l-3.4-6c-0.2-0.4-0.7-0.5-1.1-0.3c0,0,0,0-0.1,0
	c-0.4,0.3-0.5,0.8-0.3,1.2l3.4,6.1C223.7,176.4,224,176.6,224.3,176.5z"/>
<path class="st19" d="M257.1,149.4c0.2,0,0.3-0.1,0.5-0.1l5.5-3.8c0.4-0.3,0.5-0.8,0.3-1.2c-0.2-0.4-0.7-0.5-1.1-0.3c0,0,0,0-0.1,0
	l-5.5,3.8c-0.4,0.3-0.5,0.8-0.3,1.2C256.5,149.3,256.8,149.4,257.1,149.4z"/>
<path class="st19" d="M232.5,205.8c0.1,0,0.3,0,0.4-0.1c0.4-0.2,0.6-0.8,0.4-1.2l-3-6.3c-0.2-0.4-0.6-0.6-1.1-0.4c0,0,0,0-0.1,0
	c-0.4,0.2-0.6,0.8-0.4,1.2l3,6.3C231.9,205.6,232.1,205.8,232.5,205.8z"/>
<path class="st19" d="M245.5,154.1c0.3,0,0.6-0.2,0.7-0.4c0.3-0.4,0.1-1-0.3-1.2l-5.6-3.7c-0.4-0.2-0.9-0.1-1.1,0.2c0,0,0,0,0,0.1
	c-0.2,0.4-0.1,0.9,0.3,1.2l5.6,3.7C245.2,154.1,245.4,154.1,245.5,154.1z"/>
<path class="st19" d="M258.8,128c0,0.2,0,0.3,0.1,0.5c0.1,0.3,0.4,0.4,0.7,0.5c0.5,0,0.9-0.3,0.9-0.8l0.3-4c-0.5-0.3-1-0.7-1.6-1
	L258.8,128z"/>
<path class="st19" d="M266.2,166.5c0.3,0,0.6-0.2,0.7-0.4c0.2-0.4,0.1-0.9-0.3-1.2l-5.6-3.7c-0.4-0.2-0.9-0.2-1.1,0.2c0,0,0,0,0,0.1
	c-0.2,0.4-0.1,0.9,0.3,1.2l5.6,3.7C265.9,166.5,266.1,166.6,266.2,166.5z"/>
<path class="st19" d="M221.7,135.9c0.2,0,0.3-0.1,0.5-0.1c0.4-0.3,0.5-0.8,0.2-1.2l-3.2-5.2c-0.2-0.4-0.7-0.5-1.1-0.3c0,0,0,0-0.1,0
	c-0.4,0.3-0.5,0.8-0.2,1.2l3.2,5.2C221.2,135.8,221.5,135.9,221.7,135.9z"/>
<path class="st19" d="M218.9,225.1c0.2,0,0.5-0.1,0.6-0.3l4.6-5.1c0.3-0.4,0.3-0.9,0-1.3c-0.3-0.3-0.8-0.3-1.1-0.1c0,0,0,0-0.1,0.1
	l-4.6,5.1c-0.3,0.4-0.3,0.9,0,1.3C218.5,225,218.7,225.1,218.9,225.1z"/>
<path class="st19" d="M235.6,224c0.2,0,0.4-0.1,0.6-0.3l4.6-5.1c0.3-0.4,0.3-0.9,0-1.3c-0.3-0.3-0.8-0.3-1.1-0.1c0,0,0,0-0.1,0.1
	l-4.6,5.1c-0.3,0.4-0.3,0.9,0,1.3C235.2,223.9,235.4,224,235.6,224z"/>
<path class="st20" d="M247.7,258.3c0.1-0.2,0.1-0.5,0-0.7l-2.9-6.3c-0.2-0.4-0.6-0.6-1-0.4c0,0,0,0-0.1,0c-0.4,0.2-0.6,0.7-0.4,1.2
	l2.8,6.4c0.2,0.4,0.6,0.6,1,0.4c0,0,0,0,0.1,0C247.5,258.7,247.6,258.5,247.7,258.3z"/>
<path class="st19" d="M199.6,279.3c0.1-0.2,0.1-0.5,0-0.7l-2.8-6.4c-0.2-0.4-0.6-0.6-1.1-0.4c0,0,0,0,0,0c-0.4,0.2-0.6,0.7-0.4,1.2
	l2.9,6.4c0.2,0.4,0.6,0.6,1,0.4c0,0,0,0,0.1,0C199.4,279.7,199.5,279.5,199.6,279.3z"/>
<path class="st20" d="M220.3,289.8l1.7,0.1l0.6-4c0.1-0.5-0.2-0.9-0.7-1c-0.5-0.1-0.9,0.3-0.9,0.7c0,0,0,0,0,0L220.3,289.8z"/>
<path class="st20" d="M213.6,277.8c0.2-0.1,0.3-0.4,0.3-0.6l1-7c0.1-0.5-0.2-0.9-0.7-1c-0.5-0.1-0.9,0.3-0.9,0.7c0,0,0,0,0,0l-1,7
	c-0.1,0.5,0.2,0.9,0.7,1C213.3,278,213.5,278,213.6,277.8z"/>
<path class="st19" d="M253.7,219.7c0.1,0,0.3,0,0.4-0.1c0.4-0.3,0.5-0.8,0.3-1.2l-3.3-6.1c-0.2-0.4-0.7-0.6-1.1-0.3c0,0,0,0,0,0
	c-0.4,0.3-0.5,0.8-0.3,1.2l3.3,6.1C253.1,219.5,253.3,219.7,253.7,219.7z"/>
<path class="st19" d="M244,204.5c0.3,0,0.6-0.2,0.7-0.5l3-6.3c0.2-0.4,0.1-0.9-0.4-1.2c-0.4-0.2-0.9-0.1-1.1,0.3c0,0,0,0,0,0l-3,6.3
	c-0.2,0.4-0.1,0.9,0.4,1.2C243.7,204.4,243.8,204.5,244,204.5z"/>
<path class="st19" d="M270.2,203.6c0.1,0.1,0.2,0.2,0.3,0.3c0.3,0.1,0.6,0.1,0.9-0.1l3.4-3c0-0.8,0-1.5,0-2.3l-4.4,4
	C270,202.7,269.9,203.2,270.2,203.6z"/>
<path class="st19" d="M244,138.1c0.3,0,0.6-0.2,0.7-0.5l3-6.3c0.2-0.4,0.1-1-0.4-1.2c-0.4-0.2-0.9-0.1-1.1,0.3c0,0,0,0,0,0l-3,6.3
	c-0.2,0.4-0.1,0.9,0.4,1.2C243.7,138.1,243.9,138.1,244,138.1z"/>
<path class="st19" d="M224.7,161h0.1c0.4-0.1,0.7-0.5,0.7-1l-1.3-6.9c-0.1-0.4-0.5-0.8-0.9-0.7c0,0-0.1,0-0.1,0
	c-0.4,0.1-0.7,0.5-0.7,1l1.3,6.9C223.9,160.8,224.3,161,224.7,161z"/>
<path class="st19" d="M235.4,167.1h0.2c0.4-0.1,0.7-0.5,0.7-1l-1.3-6.9c-0.1-0.5-0.5-0.8-0.9-0.7c0,0-0.1,0-0.1,0
	c-0.4,0.1-0.7,0.5-0.7,1l1.3,6.9C234.7,166.8,235,167.1,235.4,167.1z"/>
<path class="st19" d="M227.7,144.3c0.3,0,0.6-0.2,0.7-0.4l3.5-5.9c0.2-0.4,0.1-0.9-0.3-1.2c-0.4-0.2-0.9-0.2-1.1,0.2c0,0,0,0,0,0.1
	l-3.5,5.9c-0.2,0.4-0.1,0.9,0.3,1.2C227.4,144.3,227.6,144.3,227.7,144.3z"/>
<path class="st19" d="M260.1,205.6c0.2-0.3,0.3-0.7,0.1-1l-2.8-6.4c-0.2-0.4-0.6-0.6-1-0.4c0,0,0,0-0.1,0c-0.4,0.2-0.6,0.7-0.4,1.2
	l2.8,6.4c0.2,0.4,0.6,0.6,1.1,0.4c0,0,0,0,0.1,0C259.9,205.7,260,205.7,260.1,205.6z"/>
<path class="st19" d="M238.7,187.1c0.4,0,0.7-0.2,0.8-0.6l2.4-6.5c0.2-0.4,0-1-0.5-1.1c-0.4-0.2-0.9,0-1.1,0.5c0,0,0,0,0,0l-2.4,6.5
	c-0.2,0.4,0,0.9,0.5,1.1C238.5,187.1,238.6,187.1,238.7,187.1z"/>
<path class="st19" d="M212.4,227.6c0.1,0,0.3,0,0.4-0.1c0.4-0.2,0.6-0.8,0.4-1.2l-3-6.3c-0.2-0.4-0.7-0.6-1.1-0.4c0,0,0,0,0,0
	c-0.4,0.2-0.6,0.8-0.4,1.2l3,6.3C211.8,227.4,212.1,227.6,212.4,227.6z"/>
<path class="st20" d="M256.1,272.8c0,0.1,0,0.3,0.1,0.4c0.2,0.4,0.6,0.6,1,0.4c0,0,0,0,0.1,0l5.9-3.2c0.4-0.3,0.6-0.8,0.4-1.2
	c-0.2-0.4-0.7-0.6-1.1-0.4c0,0,0,0,0,0l-5.8,3.2C256.2,272.1,256,272.4,256.1,272.8z"/>
<path class="st20" d="M271.9,276.8c0,0.1,0,0.3,0.1,0.4c0.2,0.4,0.7,0.6,1.1,0.4c0,0,0,0,0,0l2.5-1.4v-2l-3.3,1.8
	C272.1,276.1,271.9,276.5,271.9,276.8z"/>
<path class="st20" d="M247.4,284.6l2,4.6l1.1-0.1l0.7-0.1l-2.2-5.1c-0.2-0.4-0.6-0.6-1.1-0.5c0,0,0,0-0.1,0
	C247.4,283.7,247.2,284.2,247.4,284.6z"/>
<path class="st19" d="M201.6,211.6c0.4,0,0.8-0.3,0.8-0.8l1.1-6.9c0.1-0.5-0.2-0.9-0.7-1c-0.4-0.1-0.9,0.2-1,0.6c0,0,0,0.1,0,0.1
	l-1.1,6.9c-0.1,0.5,0.2,0.9,0.7,1L201.6,211.6z"/>
<path class="st19" d="M200.9,160.4c0.2,0,0.3,0,0.4-0.1c0.4-0.3,0.5-0.8,0.3-1.2l-3.4-6.1c-0.2-0.4-0.7-0.5-1.1-0.3c0,0,0,0-0.1,0
	c-0.4,0.3-0.5,0.8-0.3,1.2l3.4,6C200.3,160.2,200.6,160.4,200.9,160.4z"/>
<path class="st19" d="M211.7,185c0.2,0,0.3-0.1,0.4-0.1l5.5-3.8c0.4-0.3,0.5-0.8,0.3-1.2c-0.2-0.4-0.7-0.5-1.1-0.3c0,0,0,0-0.1,0
	l-5.5,3.8c-0.4,0.3-0.5,0.8-0.3,1.2C211.2,184.8,211.4,185,211.7,185z"/>
<path class="st19" d="M270.2,226.3c0.1,0,0.3,0,0.4-0.1c0.4-0.2,0.6-0.8,0.4-1.2l-3-6.3c-0.2-0.4-0.6-0.6-1.1-0.4c0,0,0,0-0.1,0
	c-0.4,0.2-0.6,0.8-0.4,1.2l3,6.3C269.6,226.1,269.9,226.3,270.2,226.3z"/>
<path class="st19" d="M202.3,194.5c0.3,0,0.6-0.2,0.7-0.4c0.2-0.4,0.1-0.9-0.3-1.2l-5.6-3.7c-0.4-0.2-0.9-0.1-1.1,0.2c0,0,0,0,0,0.1
	c-0.2,0.4-0.1,0.9,0.3,1.2l5.6,3.7C202,194.5,202.1,194.5,202.3,194.5z"/>
<path class="st19" d="M215.7,203.4c0.2,0.2,0.5,0.3,0.8,0.2c0.5-0.1,0.7-0.6,0.6-1.1l-1.7-6.8c-0.1-0.4-0.5-0.7-1-0.6c0,0,0,0,0,0
	c-0.5,0.2-0.7,0.6-0.6,1.1l1.7,6.8C215.5,203.2,215.6,203.3,215.7,203.4z"/>
<path class="st19" d="M192.1,131.7l1.4,2.3c0.1,0.2,0.4,0.4,0.7,0.4c0.2,0,0.3,0,0.5-0.1c0.4-0.3,0.5-0.8,0.2-1.2l-1.6-2.6
	C192.9,130.9,192.5,131.3,192.1,131.7z"/>
<path class="st19" d="M185.8,147.2l1.5,2.5c0.1,0.2,0.4,0.4,0.7,0.4c0.2,0,0.3-0.1,0.4-0.1c0.4-0.3,0.5-0.8,0.2-1.2l-2.2-3.5
	C186.3,145.8,186.1,146.5,185.8,147.2z"/>
<path class="st19" d="M257.6,248.2c0.2,0,0.4-0.1,0.6-0.3l4.6-5.1c0.3-0.4,0.3-0.9,0-1.3c-0.3-0.3-0.8-0.4-1.1-0.1c0,0,0,0-0.1,0.1
	l-4.5,5.1c-0.3,0.4-0.3,0.9,0,1.3C257.2,248.1,257.4,248.2,257.6,248.2z"/>
<path class="st20" d="M227.2,265.9c0.2,0,0.4-0.1,0.6-0.3l4.6-5.1c0.3-0.4,0.3-0.9,0-1.3c-0.3-0.3-0.8-0.3-1.1,0c0,0,0,0,0,0
	l-4.6,5.1c-0.3,0.4-0.3,0.9,0,1.3C226.7,265.9,227,266,227.2,265.9z"/>
<path class="st20" d="M218.8,258.9c0.1-0.2,0.2-0.4,0.2-0.7l-0.8-7c0-0.5-0.4-0.8-0.9-0.8c0,0,0,0,0,0c-0.5,0.1-0.8,0.5-0.7,1
	c0,0,0,0,0,0l0.8,7c0,0.5,0.4,0.8,0.9,0.8c0,0,0,0,0,0C218.5,259.2,218.7,259.1,218.8,258.9z"/>
<path class="st20" d="M236.1,278.6c0.2,0,0.4-0.1,0.6-0.3l4.6-5.1c0.3-0.4,0.3-0.9,0-1.3c-0.3-0.3-0.8-0.3-1.1-0.1c0,0,0,0-0.1,0.1
	l-4.6,5.1c-0.3,0.4-0.3,0.9,0,1.3C235.6,278.5,235.8,278.6,236.1,278.6z"/>
<path class="st19" d="M187,259.4v1.8l5.1,0.5c0.5,0,0.9-0.3,0.9-0.8c0,0,0,0,0,0c0.1-0.5-0.3-0.9-0.7-1c0,0,0,0,0,0L187,259.4z"/>
<path class="st20" d="M247.2,237.5c0.2,0,0.4-0.1,0.6-0.3l4.6-5.1c0.3-0.4,0.3-0.9,0-1.3c-0.3-0.3-0.8-0.3-1.1-0.1c0,0,0,0-0.1,0.1
	l-4.6,5.1c-0.3,0.4-0.3,0.9,0,1.3C246.8,237.4,247,237.5,247.2,237.5z"/>
<path class="st20" d="M225.3,235.3c0,0.2,0.1,0.5,0.3,0.6l5,4.5c0.3,0.3,0.8,0.3,1.1,0c0,0,0,0,0.1-0.1c0.3-0.4,0.2-0.9-0.1-1.3
	l-5-4.5c-0.3-0.3-0.8-0.3-1.1,0.1c0,0,0,0,0,0C225.4,234.9,225.3,235.1,225.3,235.3z"/>
<path class="st19" d="M201.3,260.2c0.1,0,0.3,0,0.4-0.1c0.4-0.3,0.5-0.8,0.3-1.2l-3.3-6.1c-0.2-0.4-0.7-0.6-1.1-0.4c0,0,0,0-0.1,0
	c-0.4,0.3-0.5,0.8-0.3,1.2l3.3,6.1C200.7,260.1,201,260.2,201.3,260.2z"/>
<path class="st19" d="M195.6,242.1c0.3,0,0.6-0.2,0.7-0.5l3-6.3c0.2-0.4,0.1-1-0.4-1.2c-0.4-0.2-0.9-0.1-1.1,0.3c0,0,0,0,0,0.1
	l-3,6.3c-0.2,0.4-0.1,0.9,0.4,1.2C195.3,242.1,195.4,242.1,195.6,242.1z"/>
<path class="st19" d="M204.6,171.1c0.3,0,0.6-0.2,0.7-0.5l3-6.3c0.2-0.4,0.1-1-0.4-1.2c-0.4-0.2-0.9-0.1-1.1,0.3c0,0,0,0,0,0.1
	l-3,6.3c-0.2,0.4-0.1,0.9,0.4,1.2C204.3,171.1,204.4,171.1,204.6,171.1z"/>
<path class="st19" d="M201.3,144.9h0.2c0.4-0.1,0.7-0.5,0.7-1l-1.3-7c-0.1-0.5-0.5-0.8-0.9-0.7c0,0,0,0-0.1,0
	c-0.4,0.1-0.7,0.5-0.7,1l1.3,6.9C200.5,144.6,200.9,144.9,201.3,144.9z"/>
<path class="st19" d="M186.2,168.7c0.1,0,0.1,0,0.2,0c0.4-0.1,0.7-0.5,0.6-1l-1.2-6.9c-0.1-0.5-0.5-0.8-1-0.7c0,0,0,0,0,0
	c-0.4,0.1-0.7,0.5-0.7,1l1.3,6.9C185.4,168.4,185.8,168.7,186.2,168.7z"/>
<path class="st19" d="M212.1,150.9h0.1c0.4-0.1,0.7-0.5,0.7-1l-1.3-6.9c-0.1-0.5-0.5-0.8-0.9-0.7c0,0,0,0-0.1,0
	c-0.4,0.1-0.7,0.5-0.6,1l1.2,6.9C211.3,150.6,211.7,150.9,212.1,150.9z"/>
<path class="st19" d="M207.2,126.9c0.2,0,0.3,0,0.5,0c0.3-0.1,0.5-0.3,0.5-0.6l1.4-6.4l-2,1l-1,4.8
	C206.4,126.3,206.7,126.8,207.2,126.9z"/>
<path class="st19" d="M188.2,179.4c0.3,0,0.6-0.2,0.7-0.4l3.5-5.9c0.2-0.4,0.1-0.9-0.3-1.2c-0.4-0.2-0.9-0.2-1.1,0.2c0,0,0,0,0,0.1
	l-3.5,5.9c-0.2,0.4-0.1,0.9,0.3,1.2C187.9,179.4,188,179.4,188.2,179.4z"/>
<path class="st20" d="M211.7,243.2c0.2-0.3,0.3-0.7,0.1-1l-2.8-6.3c-0.2-0.4-0.6-0.6-1-0.4c0,0,0,0-0.1,0c-0.4,0.2-0.6,0.7-0.4,1.2
	l2.8,6.4c0.2,0.4,0.6,0.6,1.1,0.4c0,0,0,0,0.1,0C211.6,243.4,211.7,243.3,211.7,243.2z"/>
<path class="st19" d="M270,255.2l5.5,1c0-0.6,0-1.2,0-1.8l-5.3-0.9c-0.5-0.1-0.9,0.2-1,0.7c0,0,0,0,0,0.1
	C269.3,254.6,269.6,255.1,270,255.2z"/>
<path class="st19" d="M271.7,238.9l3.7,0.6c0-0.6,0-1.2,0-1.8l-3.4-0.6c-0.5-0.1-0.9,0.2-0.9,0.7c0,0,0,0,0,0
	C271,238.4,271.3,238.8,271.7,238.9z"/>
<path class="st19" d="M190.4,224.8c0.4,0,0.7-0.2,0.8-0.6l2.4-6.5c0.2-0.4,0-1-0.5-1.1c-0.4-0.2-0.9,0-1.1,0.5c0,0,0,0,0,0l-2.4,6.5
	c-0.2,0.4,0,0.9,0.5,1.1C190.2,224.8,190.3,224.8,190.4,224.8z"/>
<path class="st19" d="M187.4,204.1c1.6-6.4,3.5-13.6,5.4-19.7l0,0c0.6-1.9,1.2-3.7,1.8-5.4v-0.1c0.2-0.5,0.4-1,0.6-1.5
	c0-0.1,0-0.2,0-0.3l0,0c0-0.3-0.2-0.6-0.5-0.7c-0.4-0.1-0.8,0.1-0.9,0.4c0,0,0,0,0,0c-2,5.4-4.3,13.2-6.4,20.9L187.4,204.1z"/>
<path class="st9" d="M211.1,79.9c0,0-5.8-6.4-3.6-13.8s8.1-7.3,8.1-7.3s3.5-7.9,9.4-8.1s11.5-10.8,16.9-7.9s-0.6,9.1-0.6,9.1
	s9.2-9.7,12.3-6.9c3,2.9-4.2,10.5-4.2,10.5s7.8-5.4,10.3-3.4s-6.1,11-6.1,11s5.6,10.1,0,14.6L211.1,79.9z"/>
<path class="st14" d="M251.5,82.1c0,0,3.7-4.9,6.4-0.9c2.8,4.1-1.1,16.1-7.9,13.1L251.5,82.1z"/>
<path class="st15" d="M251.5,90.7c0.3,0,0.5-0.2,0.5-0.4c1-3.7,4.9-5.2,4.9-5.2c0.3-0.1,0.4-0.4,0.3-0.7c-0.1-0.3-0.4-0.4-0.7-0.3
	c-0.2,0.1-4.4,1.7-5.6,6c-0.1,0.3,0.1,0.6,0.4,0.7L251.5,90.7z"/>
<path class="st15" d="M255.4,88.8c0.1,0,0.2,0,0.3-0.1c0.3-0.2,0.3-0.5,0.2-0.8c-0.5-0.8-1.3-1.3-2.1-1.7c-0.3-0.2-0.6-0.1-0.8,0.1
	c-0.2,0.3-0.1,0.6,0.1,0.8c0.1,0,0.1,0.1,0.2,0.1c0.7,0.3,1.2,0.7,1.6,1.3C255,88.7,255.2,88.8,255.4,88.8z"/>
<path class="st14" d="M213.4,82.1c0,0-3.7-4.9-6.4-0.9s1.1,16.1,7.9,13.1L213.4,82.1z"/>
<path class="st15" d="M213.4,90.7c-0.3,0-0.5-0.2-0.5-0.4c-1-3.7-4.9-5.2-4.9-5.2c-0.3-0.1-0.4-0.5-0.2-0.8c0.1-0.2,0.4-0.4,0.6-0.3
	c0.2,0.1,4.4,1.7,5.6,6c0.1,0.3-0.1,0.6-0.4,0.7L213.4,90.7z"/>
<path class="st15" d="M209.5,88.8c-0.1,0-0.2,0-0.3-0.1c-0.3-0.2-0.3-0.5-0.2-0.8c0,0,0,0,0,0c0.5-0.8,1.3-1.3,2.1-1.7
	c0.3-0.1,0.6,0,0.8,0.3c0.1,0.3,0,0.6-0.3,0.7c0,0,0,0,0,0c-0.6,0.3-1.2,0.7-1.6,1.3C209.9,88.7,209.7,88.8,209.5,88.8z"/>
<path class="st10" d="M223.4,104.6v12c0,0,3.6,6.1,8.4,6.5c4.8,0.4,9.1-5.2,9.1-5.2v-12.4L223.4,104.6z"/>
<path class="st14" d="M223.4,104.6v5.3c3.2,3.6,9,4.5,17.5,3.2v-7.7L223.4,104.6z"/>
<path class="st10" d="M210.8,73.9c0.2,5.1,0.7,10.1,1.5,15.1l0,0c0,0,0,0,0,0.1l0,0c0.2,1.1,0.5,2.2,0.7,3.2
	c0.2,0.6,0.3,1.1,0.5,1.8c2.8,8.9,9.4,21.8,25.9,15.9c7-2.5,10.6-9.6,12.4-17.4c0.1-0.5,0.2-0.9,0.3-1.4s0.1-0.6,0.2-0.9l0.1-0.4
	c0-0.1,0-0.1,0-0.1l0,0c0.9-5.4,1.3-10.9,1.2-16.4c-0.1-4.4-2.5-8.5-6.3-10.6c-10.4-5.9-21.4-3.7-28.6-0.9
	C213.7,63.6,210.5,68.5,210.8,73.9z"/>
<path class="st9" d="M212.3,88.9L212.3,88.9C212.3,88.9,212.3,89,212.3,88.9L212.3,88.9c0.1,0.4,0.7,2.6,1.3,5
	c2.8,8.9,9.4,21.8,25.9,15.9c7-2.5,10.6-9.6,12.4-17.4c0.1-0.5,0.2-0.9,0.3-1.4s0.1-0.6,0.2-0.9l0.1-0.4c0-0.1,0-0.1,0-0.1l0,0
	L250,89c-0.5,2.3-1.4,4.5-2.8,6.4c-2-4.9-12.5-1.6-12.5-1.6h0c-0.6,0.2-1.3,0.3-1.9,0.3c-0.7,0-1.4-0.1-2-0.3c0,0-10.3-3.4-12.4,1.3
	c-1.3-2-2.5-4.1-3.6-6.3L212.3,88.9L212.3,88.9z M232.8,96c11.8-1.6,9.9,4.8,9.9,4.8c-1,1-2.1,1.8-3.3,2.5c-2.1,1.2-4.5,1.9-6.9,1.9
	c-1.8-0.1-2.3,0.3-6.9-2.2c-0.9-0.5-1.7-1.1-2.4-1.8l0,0C223,99.9,221,94,232.8,96L232.8,96z"/>
<path class="st9" d="M222.1,82.5c0,1.3,0.7,2.3,1.5,2.3s1.5-1,1.5-2.3s-0.7-2.3-1.5-2.3S222.1,81.2,222.1,82.5z"/>
<path class="st9" d="M240.5,82.5c0,1.3,0.6,2.3,1.5,2.3s1.5-1,1.5-2.3s-0.6-2.3-1.5-2.3S240.5,81.2,240.5,82.5z"/>
<path class="st9" d="M218.4,74.7c0,0,6.1-2.4,10.7-0.4l-0.5,2.6c0,0-6.9-0.6-10.3,0.8C218,76.8,218,75.7,218.4,74.7z"/>
<path class="st9" d="M247.2,74.7c0,0-6.1-2.4-10.8-0.4l0.5,2.6c0,0,6.9-0.6,10.4,0.8C247.6,76.8,247.6,75.7,247.2,74.7z"/>
<path class="st14" d="M232.2,92.8c-0.7,0-1.4-0.2-2.1-0.4c-0.3-0.1-0.4-0.5-0.2-0.8c0.1-0.2,0.4-0.4,0.7-0.3
	c0.7,0.3,1.5,0.4,2.3,0.2c0.2-0.1,0.3-0.3,0.3-0.5c0-2.9-0.1-5.8-0.3-8.7c0-0.3,0.2-0.6,0.5-0.6c0,0,0,0,0,0c0.3,0,0.6,0.2,0.6,0.5
	c0.3,3,0.4,5.9,0.3,8.9c0,0.6-0.3,1.1-0.8,1.4C233.1,92.7,232.7,92.8,232.2,92.8z"/>
<path class="st11" d="M239.5,97.2c-0.4,2.2-1.9,6.2-6.7,6.2s-6.2-3.6-6.7-6.2H239.5z"/>
<path class="st9" d="M210.7,73.9c0.2,5.1,0.7,10.1,1.6,15.1l2.5-0.2c0,0-0.6-3.9-0.9-6.5s-0.8-7.3,1.4-7.9s0.9-6,3.9-8.4
	s9.8-3,14.3-0.3c4.5,2.7,9.5-0.2,11.6,0.3s4.9,3.3,4.1,6s1.5,4.3,2.1,7S250,89.1,250,89.1l2.4,0.5c0.9-5.4,1.3-10.9,1.2-16.4
	c-0.1-4.4-2.5-8.4-6.3-10.6c-10.4-5.9-21.4-3.7-28.6-0.9C213.7,63.6,210.5,68.5,210.7,73.9z"/>
<path class="st6" d="M315.3,201.8c-1.5,14.1-10.7,45.5-17.1,51.7c-8.3,8-35.6,24.9-49.8,33.6c-2.6,1.6,9.5,12,9.5,12
	s37.7-16.1,52.1-28.9c4.1-3.6,12.4-15,21.7-36.6c2.8-6.5,9.7-19.8,9.3-28.4C340.6,195.3,324.9,196.9,315.3,201.8z"/>
<path class="st10" d="M285.8,282.7c0,0-10.3,3.9-13.9,8.2s-8.4,7.9-7.3,9.6s6.5-3.3,6.5-3.3s1.5,5.4,6.6,6s14.9-9.5,14.9-9.5
	L285.8,282.7z"/>
<path class="st21" d="M387.1,241.1c0,0.9,0,2,0,3.1s0,2.5-0.1,4c0,1,0,2-0.1,3.1c0,0.9-0.1,1.9-0.1,2.9s-0.1,2.1-0.1,3.1
	c-0.7,14.8-2.5,35.1-6.2,51.4h-79.9c2.7-11.9,6.7-30.6,10-54.9c0.1-1,0.3-2,0.4-3.1s0.3-2.1,0.4-3.2c0.1-0.6,0.1-1.1,0.2-1.7
	s0.1-0.9,0.2-1.4c0.1-1.3,0.3-2.6,0.4-3.9c0.1-1,0.2-2.1,0.3-3.1c1.4-16.3,0.9-28.6,2.9-35.9c2.3-8.5,29-18.3,29-18.3l16.7,0.9
	c0,0,16,5.2,24.5,12.7s1.4,29.8,1.6,42.5C387.1,240,387.1,240.5,387.1,241.1z"/>
<path class="st22" d="M387.1,244.3c-7.4,0.9-14.8,1.3-22.3,1.2c-17.7-0.2-35.3-1.7-52.7-4.7c0.1-1,0.2-2.1,0.3-3.1
	c6.4,1.1,43.6,7.3,74.7,3.4C387.1,242,387.1,243.1,387.1,244.3z"/>
<path class="st22" d="M387,248.2c0,1,0,2-0.1,3.1c-7.3,0.8-14.7,1.2-22.1,1.2c-17.9-0.1-35.8-1.8-53.5-4.8c0.1-0.6,0.1-1.1,0.2-1.7
	s0.1-0.9,0.2-1.4C315.4,245.3,354.5,252.2,387,248.2z"/>
<path class="st22" d="M386.8,254.3c0,1-0.1,2.1-0.1,3.1c-7.7,0.9-15.4,1.4-23.1,1.3c-17.8-0.2-35.5-1.7-53-4.8c0.1-1,0.3-2,0.4-3.1
	C316.7,251.9,355.1,258.4,386.8,254.3z"/>
<path class="st18" d="M349.1,199.5c8.3,0,16-8.8,16.3-9.2c0.2-0.2,0.2-0.6,0-0.8c-0.2-0.2-0.6-0.2-0.8,0c0,0,0,0-0.1,0.1
	c-0.1,0.1-8.1,9.4-16.2,8.8c-0.3,0-0.6,0.3-0.6,0.6c0,0.3,0.2,0.5,0.5,0.6L349.1,199.5z"/>
<path class="st18" d="M356.3,299c0.3,0,0.6-0.3,0.5-0.6c0-0.3-0.2-0.5-0.5-0.5c-21.5-2.5-30.4-39.7-30.5-40.1
	c-0.1-0.3-0.4-0.5-0.7-0.4s-0.5,0.4-0.4,0.7l0,0C325.1,259.6,333.9,296.4,356.3,299L356.3,299z"/>
<path class="st18" d="M347.8,287.8c0.2,0,0.4-0.1,0.5-0.3c0.2-0.3,0.1-0.6-0.2-0.8c-11.4-7-13.1-17.4-13.1-17.5
	c-0.1-0.3-0.4-0.5-0.7-0.5c-0.3,0-0.5,0.3-0.5,0.7c0,0,0,0,0,0c0.1,0.5,1.8,11,13.7,18.4C347.5,287.7,347.6,287.8,347.8,287.8z"/>
<circle class="st9" cx="354.4" cy="144.8" r="23.5"/>
<path class="st9" d="M331.3,140.6c0,0-6.7-1.8-5.8-8.3c0.8-5.5,7.2-1.9,6.6-6.2c-0.6-4.3-1.8-8.2,3.7-9.3c4.9-0.9,5,2.4,11.4-2.4
	c7.5-5.7,13.4,7.5,20.1,7.9c10,0.6,11.2,6.2,12.2,10.7s-2.9,7.7-2.9,7.7L331.3,140.6z"/>
<path class="st14" d="M334.8,151.4c0,0-3.7-5-6.5-0.9c-2.8,4.1,1.1,16.3,7.9,13.3L334.8,151.4z"/>
<path class="st15" d="M334.8,160.1c-0.3,0-0.5-0.2-0.5-0.4c-1-3.8-4.9-5.3-5-5.3c-0.3-0.1-0.4-0.4-0.3-0.7c0.1-0.3,0.4-0.4,0.7-0.3
	l0,0c0.2,0.1,4.5,1.7,5.7,6c0.1,0.3-0.1,0.6-0.4,0.7L334.8,160.1z"/>
<path class="st15" d="M330.9,158.2c-0.1,0-0.2,0-0.3-0.1c-0.3-0.2-0.3-0.5-0.2-0.8c0.5-0.8,1.3-1.4,2.1-1.7c0.3-0.2,0.6-0.1,0.8,0.2
	s0.1,0.6-0.2,0.8c0,0-0.1,0-0.1,0.1c-0.7,0.3-1.2,0.7-1.7,1.3C331.2,158.1,331.1,158.2,330.9,158.2z"/>
<path class="st10" d="M361.9,174.1v12.1c0,0-5,5.3-9.8,5.7s-7.8-5.4-7.8-5.4V175L361.9,174.1z"/>
<path class="st14" d="M361.9,174.1v5.4c-3.3,3.6-9.1,4.5-17.7,3.3V175L361.9,174.1z"/>
<path class="st10" d="M374.6,143.1c-0.2,5.1-0.7,10.2-1.6,15.3c-0.2,1.2-0.5,2.3-0.8,3.3c-2.5,8.9-8.9,24.2-26.7,17.8
	c-7.9-2.8-11.5-11.6-13.1-20.5c-0.9-5.5-1.3-11-1.2-16.5c0.1-4.5,2.5-8.5,6.4-10.7c10.5-6,21.6-3.7,28.9-0.9
	C371.6,132.7,374.8,137.7,374.6,143.1z"/>
<path class="st9" d="M353.3,151.6v1c0,3.9,3.2,7.1,7.1,7.1h0.2c1.7,0,3.3-0.7,4.4-2c1.3-1.3,2.1-3.1,2-5v-1.1c0-0.3-0.1-0.6-0.2-0.9
	c-0.1-0.3-0.3-0.6-0.6-0.9c-0.5-0.5-1.1-0.7-1.8-0.7h-8.8c-1,0-1.8,0.6-2.3,1.4C353.3,150.9,353.3,151.3,353.3,151.6
	C353.3,151.6,353.3,151.6,353.3,151.6z M354.3,151.6c0-0.8,0.7-1.5,1.5-1.5c0,0,0,0,0,0h8.9c0.8,0,1.5,0.7,1.5,1.5v1.1
	c0,1.6-0.6,3.1-1.7,4.3c-1,1-2.3,1.6-3.7,1.7h-0.2c-3.4,0-6.1-2.7-6.1-6.1v0L354.3,151.6z"/>
<path class="st9" d="M335.6,151.6v1c0,3.9,3.2,7.1,7.1,7.1h0.2c1.7,0,3.3-0.7,4.4-2c1.3-1.3,2.1-3.1,2-5v-1.2c0-0.3-0.1-0.7-0.2-1
	c-0.4-0.9-1.3-1.5-2.3-1.5h-8.8c-1.1,0-2.1,0.7-2.4,1.8C335.6,151.2,335.6,151.4,335.6,151.6z M336.6,151.6c0-0.8,0.7-1.5,1.5-1.5
	c0,0,0,0,0,0h8.8c0.8,0,1.5,0.6,1.5,1.4c0,0,0,0,0,0v1.1c0,1.6-0.6,3.1-1.8,4.3c-1,1-2.3,1.6-3.7,1.7h-0.2c-3.4,0-6.1-2.7-6.1-6.1
	V151.6z"/>
<path class="st9" d="M373.4,148.7c-2.1-0.1-4.1,0.3-6,1.1c-0.2,0.1-0.9,0.5-0.9,0.5l0.5,0.9c0.3-0.2,0.7-0.4,1-0.5
	c1.7-0.8,3.6-1.1,5.4-1L373.4,148.7z"/>
<path class="st9" d="M354,151.7l0.3-1c-1-0.3-2.1-0.5-3.1-0.5c-1,0-2,0.2-2.9,0.5l0.5,0.9c0.8-0.3,1.6-0.5,2.4-0.4
	C352.1,151.2,353.1,151.4,354,151.7z"/>
<path class="st9" d="M332,148.9v1c1.4,0.2,2.9,0.5,4.2,1.1l0.5-0.9C335.1,149.5,333.6,149.1,332,148.9z"/>
<path class="st9" d="M343.8,153c0,1.3-0.7,2.3-1.5,2.3s-1.5-1-1.5-2.3s0.7-2.3,1.5-2.3S343.8,151.7,343.8,153z"/>
<path class="st9" d="M361.2,153c0,1.3-0.7,2.3-1.5,2.3s-1.5-1-1.5-2.3s0.7-2.3,1.5-2.3S361.2,151.7,361.2,153z"/>
<path class="st9" d="M337.5,145.8c0,0,6.2-2.4,10.9-0.4l-0.4,2.2c-3.4-0.6-6.9-0.4-10.2,0.7C337.5,147.3,337.1,146.9,337.5,145.8z"
	/>
<path class="st9" d="M365.7,145.8c0,0-6.2-2.4-10.9-0.4l0.4,2.2c3.4-0.6,6.9-0.4,10.2,0.7C365.7,147.3,366.1,146.9,365.7,145.8z"/>
<path class="st14" d="M351.9,162.8c0.7,0,1.4-0.2,2.1-0.4c0.3-0.1,0.4-0.5,0.3-0.7s-0.5-0.4-0.7-0.3c-0.7,0.3-1.5,0.4-2.3,0.2
	c-0.2-0.1-0.3-0.3-0.3-0.5c-0.2-2,0.4-8.7,0.4-8.8c0-0.3-0.2-0.6-0.5-0.6c-0.3,0-0.6,0.2-0.6,0.5c-0.3,3-0.4,6-0.4,9
	c0,0.6,0.3,1.1,0.8,1.4C351,162.7,351.5,162.8,351.9,162.8z"/>
<path class="st11" d="M344.8,165.7c0.5,2.4,2,6.7,7.3,6.7s6.7-4,7.3-6.7H344.8z"/>
<path class="st14" d="M352,175.4c1,0,1.9-0.3,2.8-0.8c0.3-0.2,0.4-0.5,0.2-0.8c-0.2-0.3-0.5-0.4-0.8-0.2c-1.3,0.8-3,0.8-4.3,0
	c-0.3-0.2-0.6-0.1-0.8,0.2c-0.2,0.3-0.1,0.6,0.2,0.8C350.1,175.1,351,175.3,352,175.4z"/>
<path class="st9" d="M334.2,155.2c-0.4-2.4-0.9-5.4-0.5-7c0.6-2.8,2.9-4.4,2.1-7.1s2.1-5.5,4.1-6c2.1-0.4,6.9,0.6,11.7-1.7
	c4.6-2.2,12.5-0.6,13.8,2.3c1.6,3.5-0.6,3.9,3.7,7.7c1.7,1.5-0.3,5.5-0.6,8.1c-0.1,1-0.2,2-0.1,3v0.6h5.1c0.6-4,0.9-8.4,1.1-12.1
	c0.2-5.4-3-10.4-8.1-12.3c-7.3-2.8-18.4-5-28.9,0.9c-3.9,2.2-6.3,6.3-6.4,10.7c-0.1,4.3,0.1,8.5,0.6,12.8H334.2z"/>
<path class="st10" d="M371.3,157.4c0-1.3,0.1-2.7,0.3-4c0.3-1.8,0.9-3.4,2.7-4.2c1.5-0.6,3.1-0.6,4.2,1.1c2.8,4.1-0.3,16.9-7.1,13.9
	L371.3,157.4z"/>
<path class="st14" d="M372.7,160.5c0.3-0.1,0.4-0.3,0.5-0.5c0.3-3.9,3.8-6.1,3.8-6.1c0.3-0.2,0.3-0.5,0.2-0.8c0,0,0,0,0,0
	c-0.2-0.3-0.5-0.4-0.8-0.2c-0.2,0.1-4,2.6-4.4,7c0,0.3,0.2,0.6,0.5,0.6c0,0,0,0,0,0C372.6,160.5,372.6,160.5,372.7,160.5z"/>
<path class="st14" d="M376.2,157.9c0.1,0,0.2-0.1,0.3-0.1c0.2-0.2,0.2-0.6,0-0.8c0,0,0,0,0,0c-0.7-0.6-1.5-1.1-2.5-1.3
	c-0.3-0.1-0.6,0.1-0.7,0.4c0,0,0,0,0,0c-0.1,0.3,0.1,0.6,0.4,0.7c0.7,0.2,1.4,0.5,1.9,1C375.8,157.9,376,158,376.2,157.9z"/>
<path class="st6" d="M382.1,194.4c-8.4,12.7-40.5,56.7-47.7,61.8c-9.4,6.6-35.1,16.1-49.9,26c-5,3.4,6.8,12.8,6.8,12.8
	s36-10.1,52.2-20.5c4.6-2.9,23.6-22,35.8-39c4.2-5.8,10.9-13.9,11.9-22.4C392.3,203.3,389.2,198,382.1,194.4z"/>
<path class="st23" d="M218.5,296.3h100c1.3,0,2.3,1,2.3,2.3v8c0,1.3-1,2.3-2.3,2.3h-100c-1.3,0-2.3-1-2.3-2.3v-8
	C216.2,297.3,217.2,296.3,218.5,296.3z"/>
<path class="st9" d="M216.2,308.9l-19.6-73.6c-0.9-3.5,1.1-7,4.6-8c0.6-0.1,1.1-0.2,1.7-0.2h43.3c2.9,0,5.5,1.9,6.3,4.8l21.6,77.1
	H216.2z"/>
<path class="st23" d="M252.4,231.8l21.5,76.4h4.9l-21.5-76.5c-0.8-2.8-3.4-4.8-6.3-4.8h-4.9C249,227,251.6,229,252.4,231.8z"/>
<path class="st24" d="M241.3,271.2c1.1,4.9-1.9,8.8-6.8,8.8c-5.1-0.2-9.5-3.8-10.8-8.8c-1.1-4.9,1.9-8.8,6.8-8.8
	C235.6,262.7,240,266.2,241.3,271.2z"/>
<path class="st4" d="M375.3,37.6c-3.7,0-6.6-2.9-6.6-6.6c0-3.7,2.9-6.6,6.6-6.6c3.7,0,6.6,2.9,6.6,6.6c0,0,0,0,0,0
	C381.9,34.7,379,37.6,375.3,37.6z M375.3,26.5c-2.5,0-4.5,2-4.5,4.5s2,4.5,4.5,4.5s4.5-2,4.5-4.5l0,0
	C379.9,28.5,377.8,26.5,375.3,26.5z"/>
<path class="st4" d="M399.1,60.8c-3.6,0-6.6-3-6.6-6.6c0-3.6,3-6.6,6.6-6.6s6.6,3,6.6,6.6C405.7,57.8,402.7,60.8,399.1,60.8z
	 M399.1,49.7c-2.5,0-4.5,2-4.5,4.5s2,4.5,4.5,4.5s4.5-2,4.5-4.5l0,0C403.6,51.7,401.6,49.7,399.1,49.7L399.1,49.7z"/>
<path class="st5" d="M407.3,82.3c-0.6,0-1-0.4-1-1v-4.6c0-0.6,0.5-1,1-1s1,0.5,1,1v4.6C408.3,81.8,407.9,82.3,407.3,82.3
	C407.3,82.3,407.3,82.3,407.3,82.3z"/>
<path class="st5" d="M407.3,90.3c-0.6,0-1-0.4-1-1v-4.6c0-0.6,0.5-1,1-1s1,0.5,1,1v4.6C408.3,89.8,407.9,90.3,407.3,90.3
	C407.3,90.3,407.3,90.3,407.3,90.3z"/>
<path class="st5" d="M413.7,83.9h-4.1c-0.6,0-1-0.5-1-1s0.5-1,1-1h4.1c0.6,0,1,0.5,1,1S414.3,83.9,413.7,83.9L413.7,83.9z"/>
<path class="st5" d="M404.9,83.9h-4.1c-0.6,0-1-0.5-1-1s0.5-1,1-1h4.1c0.6,0,1,0.5,1,1S405.5,83.9,404.9,83.9z"/>
<path class="st6" d="M370.8,56.7c-0.6,0-1-0.4-1-1v-4.6c0-0.6,0.5-1,1-1s1,0.5,1,1v4.6C371.9,56.2,371.4,56.7,370.8,56.7
	C370.8,56.7,370.8,56.7,370.8,56.7z"/>
<path class="st6" d="M370.8,64.7c-0.6,0-1-0.4-1-1v-4.6c0-0.6,0.5-1,1-1s1,0.5,1,1v4.6C371.9,64.2,371.4,64.7,370.8,64.7
	C370.8,64.7,370.8,64.7,370.8,64.7z"/>
<path class="st6" d="M377.2,58.4h-4.1c-0.6,0-1-0.5-1-1s0.5-1,1-1h4.1c0.6,0,1,0.5,1,1S377.8,58.4,377.2,58.4z"/>
<path class="st6" d="M368.5,58.4h-4.1c-0.6,0-1-0.5-1-1s0.5-1,1-1h4.1c0.6,0,1,0.5,1,1S369.1,58.4,368.5,58.4L368.5,58.4z"/>
<path class="st5" d="M132.2,42.3c0-3.6,3-6.6,6.6-6.6s6.6,3,6.6,6.6c0,3.6-3,6.6-6.6,6.6l0,0C135.1,48.9,132.2,45.9,132.2,42.3z
	 M134.2,42.3c0,2.5,2,4.5,4.5,4.5s4.5-2,4.5-4.5c0-2.5-2-4.5-4.5-4.5l0,0C136.3,37.8,134.2,39.8,134.2,42.3z"/>
<path class="st3" d="M159.8,54.2c0-3.6,3-6.6,6.6-6.6s6.6,3,6.6,6.6c0,3.6-3,6.6-6.6,6.6C162.7,60.8,159.8,57.8,159.8,54.2z
	 M161.8,54.2c0,2.5,2.1,4.5,4.6,4.5c2.5,0,4.5-2.1,4.5-4.6c0-2.5-2-4.5-4.5-4.5C163.9,49.6,161.8,51.7,161.8,54.2
	C161.8,54.2,161.8,54.2,161.8,54.2z"/>
<path class="st4" d="M164.2,84.7c0.6,0,1-0.4,1-1v-4.6c0-0.6-0.5-1-1-1s-1,0.5-1,1v4.6C163.1,84.2,163.6,84.7,164.2,84.7
	C164.1,84.7,164.2,84.7,164.2,84.7z"/>
<path class="st4" d="M164.2,92.7c0.6,0,1-0.4,1-1v-4.6c0-0.6-0.5-1-1-1s-1,0.5-1,1v4.6C163.1,92.2,163.6,92.7,164.2,92.7
	C164.1,92.7,164.2,92.7,164.2,92.7z"/>
<path class="st4" d="M157.8,86.4h4.1c0.6,0,1-0.5,1-1s-0.5-1-1-1h-4.1c-0.6,0-1,0.5-1,1S157.2,86.4,157.8,86.4z"/>
<path class="st4" d="M166.5,86.4h4.1c0.6,0,1-0.5,1-1s-0.5-1-1-1h-4.1c-0.6,0-1,0.5-1,1S165.9,86.4,166.5,86.4z"/>
<path class="st5" d="M94.2,27.2c0.6,0,1-0.4,1-1v-4.6c0-0.6-0.5-1-1-1c-0.6,0-1,0.5-1,1v4.6C93.1,26.8,93.6,27.2,94.2,27.2
	C94.1,27.2,94.2,27.2,94.2,27.2z"/>
<path class="st5" d="M94.2,35.2c0.6,0,1-0.4,1-1v-4.6c0-0.6-0.5-1-1-1c-0.6,0-1,0.5-1,1v4.6c0,0.6,0.4,1,1,1
	C94.1,35.2,94.2,35.2,94.2,35.2z"/>
<path class="st5" d="M87.8,28.9h4.1c0.6,0,1-0.5,1-1c0-0.6-0.5-1-1-1h-4.1c-0.6,0-1,0.5-1,1C86.7,28.5,87.2,28.9,87.8,28.9z"/>
<path class="st5" d="M96.5,28.9h4.1c0.6,0,1-0.5,1-1c0-0.6-0.5-1-1-1h-4.1c-0.6,0-1,0.5-1,1C95.5,28.5,95.9,28.9,96.5,28.9z"/>
<path class="st4" d="M323.6,14.3v20.1c0,2.7-2.2,4.8-4.8,4.8h-36.5l-11,4c-0.7,0.3-1.5-0.1-1.8-0.8c-0.1-0.3-0.1-0.7,0-1l4.2-10.8
	V14.3c0-2.7,2.2-4.8,4.8-4.8l0,0h40.3C321.5,9.5,323.6,11.7,323.6,14.3z"/>
<g class="st25">
	<path class="st22" d="M315.9,20h-33.5c-0.7,0-1.3-0.6-1.3-1.3l0,0c0-0.7,0.6-1.3,1.3-1.3h33.5c0.7,0,1.3,0.6,1.3,1.3l0,0
		C317.2,19.4,316.6,20,315.9,20z"/>
	<path class="st22" d="M315.9,25.4h-33.5c-0.7,0-1.3-0.6-1.3-1.3l0,0c0-0.7,0.6-1.3,1.3-1.3h33.5c0.7,0,1.3,0.6,1.3,1.3l0,0
		C317.2,24.8,316.6,25.4,315.9,25.4z"/>
	<path class="st22" d="M315.9,30.7h-33.5c-0.7,0-1.3-0.6-1.3-1.3l0,0c0-0.7,0.6-1.3,1.3-1.3h33.5c0.7,0,1.3,0.6,1.3,1.3l0,0
		C317.2,30.1,316.6,30.7,315.9,30.7z"/>
</g>
<path class="st12" d="M34.4,308.9h389.4c4.1,0,7.5,3.4,7.5,7.5v0.7c0,4.1-3.4,7.5-7.5,7.5H34.4c-4.1,0-7.5-3.4-7.5-7.5v-0.7
	C26.9,312.2,30.2,308.9,34.4,308.9z"/>
<path class="st26" d="M431.3,316.4v0.4H26.9v-0.4c0-4.1,3.4-7.5,7.5-7.5c0,0,0,0,0,0h389.4C427.9,308.9,431.3,312.2,431.3,316.4
	C431.3,316.4,431.3,316.4,431.3,316.4z"/>
</svg>
