<?xml version="1.0" encoding="utf-8"?>
<!-- Generator: Adobe Illustrator 23.0.6, SVG Export Plug-In . SVG Version: 6.00 Build 0)  -->
<svg version="1.1" id="Layer_1" xmlns="http://www.w3.org/2000/svg" xmlns:xlink="http://www.w3.org/1999/xlink" x="0px" y="0px"
	 viewBox="0 0 500 500" style="enable-background:new 0 0 500 500;" xml:space="preserve">
<style type="text/css">
	.st0{fill:#024481;}
	.st1{fill:#89D5E3;}
	.st2{fill:#D6EFF7;}
	.st3{fill:#FFFFFF;}
	.st4{display:none;}
	.st5{display:inline;}
	.st6{fill:#F5F5F5;}
	.st7{fill:#FAFAFA;}
	.st8{fill:#EBEBEB;}
	.st9{fill:#263238;}
	.st10{fill:#0790E8;}
	.st11{fill:#E0E0E0;}
	.st12{fill:#4ADEDE;}
	.st13{opacity:0.2;}
	.st14{fill:#121D64;}
	.st15{fill:#CAF0F8;}
	.st16{fill:#199DC1;}
	.st17{fill:#0077B6;}
	.st18{fill:#03045E;}
	.st19{opacity:0.5;}
	.st20{opacity:0.6;}
	.st21{opacity:0;}
	.st22{fill:#455A64;}
	.st23{fill:#FFBE9D;}
	.st24{fill:#FF725E;}
	.st25{opacity:0.3;}
	.st26{fill:#0C7A93;}
	.st27{fill:#30AFD8;}
	.st28{fill:#EB996E;}
</style>
<g id="Background_Complete">
	<g>
		<g>
			<g>
				<g>
					<g>
						<path class="st0" d="M388.6,242.6c1.7-2,3.7-3.8,5.8-5.2l-0.8-7.2l11.3-4l3.9,6.1c2.6-0.2,5.2-0.1,7.8,0.4l4.5-5.7l10.8,5.2
							l-1.6,7.1c2,1.7,3.8,3.7,5.2,5.8l7.2-0.8l4,11.3l-6.1,3.9c0.2,2.6,0.1,5.2-0.4,7.8l5.7,4.5l-5.2,10.8l-7.1-1.6
							c-1.7,2-3.7,3.8-5.8,5.2l0.8,7.2l-11.3,4l-3.9-6.1c-2.6,0.2-5.2,0.1-7.8-0.4l-4.5,5.7l-10.8-5.2l1.6-7.1
							c-2-1.7-3.8-3.7-5.2-5.8l-7.2,0.8l-4-11.3l6.1-3.9c-0.2-2.6-0.1-5.2,0.4-7.8l-5.7-4.5l5.2-10.8L388.6,242.6L388.6,242.6z
							 M398.5,251.7c-7.5,9.5-2.7,23.3,9.1,26c5.9,1.4,12.4-0.9,16.1-5.6c7.5-9.5,2.7-23.3-9.1-26
							C408.7,244.6,402.3,246.9,398.5,251.7z"/>
					</g>
				</g>
			</g>
		</g>
		<g>
			<g>
				<g>
					<g>
						<path class="st0" d="M80.4,232.1c0.7-0.8,1.5-1.5,2.4-2.1l-0.3-2.9l4.6-1.6l1.6,2.5c1-0.1,2.1,0,3.2,0.2l1.8-2.3l4.4,2.1
							l-0.7,2.9c0.8,0.7,1.5,1.5,2.1,2.4l2.9-0.3l1.6,4.6l-2.5,1.6c0.1,1,0,2.1-0.2,3.2l2.3,1.8l-2.1,4.4l-2.9-0.7
							c-0.7,0.8-1.5,1.5-2.4,2.1l0.3,2.9l-4.6,1.6l-1.6-2.5c-1,0.1-2.1,0-3.2-0.2l-1.8,2.3l-4.4-2.1l0.7-2.9
							c-0.8-0.7-1.5-1.5-2.1-2.4l-2.9,0.3l-1.6-4.6l2.5-1.6c-0.1-1,0-2.1,0.2-3.2l-2.3-1.8l2.1-4.4L80.4,232.1L80.4,232.1z
							 M84.4,235.8c-3,3.8-1.1,9.4,3.7,10.5c2.4,0.6,5-0.4,6.5-2.3c3-3.8,1.1-9.4-3.7-10.5C88.5,232.9,85.9,233.8,84.4,235.8z"/>
					</g>
				</g>
			</g>
		</g>
		<g>
			<g>
				<g>
					<g>
						<path class="st0" d="M447.6,88.2L445,84c-1.6,0.1-3.1,0-4.7-0.3l-3,3.8l-7.8-3.8l1.1-4.8c-1.2-1-2.2-2.2-3.1-3.5l-4.8,0.6
							l-2.9-8.2l4.1-2.6c-0.1-1.6,0-3.1,0.3-4.7l-3.8-3l3.8-7.8l4.8,1.1c1-1.2,2.2-2.2,3.5-3.1l-0.6-4.8l8.2-2.9l2.6,4.1
							c1.6-0.1,3.1,0,4.7,0.3l3-3.8l7.8,3.8l-1.1,4.8c1.2,1,2.2,2.2,3.1,3.5l4.8-0.6l2.9,8.2l-4.1,2.6c0.1,1.6,0,3.1-0.3,4.7l3.8,3
							l-3.8,7.8l-4.8-1.1c-1,1.2-2.2,2.2-3.5,3.1l0.5,4.8L447.6,88.2z M445.5,83l2.5,4l6.7-2.3l-0.5-4.7l0.3-0.2
							c1.4-0.9,2.6-2.1,3.7-3.3l0.2-0.2l4.6,1.1l3.1-6.4l-3.7-2.9l0.1-0.3c0.3-1.7,0.4-3.3,0.3-5l0-0.3l4-2.5l-2.4-6.7l-4.6,0.5
							l-0.2-0.3c-0.9-1.4-2.1-2.7-3.3-3.7l-0.2-0.2l1-4.6l-6.4-3.1l-2.9,3.7l-0.3-0.1c-1.6-0.3-3.3-0.4-5-0.3l-0.3,0l-2.5-4
							l-6.7,2.3l0.5,4.7l-0.3,0.2c-1.4,0.9-2.6,2.1-3.7,3.3l-0.2,0.2l-4.6-1l-3.1,6.4l3.7,2.9l-0.1,0.3c-0.3,1.7-0.4,3.3-0.3,5
							l0,0.3l-4,2.5l2.4,6.7l4.6-0.5l0.2,0.3c0.9,1.4,2.1,2.7,3.3,3.7l0.2,0.2l-1,4.6l6.4,3.1l2.9-3.7l0.3,0.1
							c1.6,0.3,3.3,0.4,5,0.3L445.5,83z M443.7,75.3c-0.8,0-1.6-0.1-2.4-0.3c-3.8-0.9-6.8-3.6-8.1-7.2s-0.6-7.6,1.8-10.7l0,0
							c2.6-3.3,7-4.8,11.1-3.9c3.8,0.9,6.8,3.6,8.1,7.2s0.6,7.6-1.8,10.7C450.4,73.8,447.1,75.3,443.7,75.3z M443.7,53.9
							c-3,0-6,1.4-7.9,3.8c-2.2,2.8-2.8,6.4-1.7,9.8c1.2,3.3,3.9,5.8,7.4,6.6c3.7,0.9,7.8-0.6,10.1-3.5c2.2-2.8,2.8-6.4,1.7-9.8
							c-1.2-3.3-3.9-5.8-7.4-6.6C445.2,54,444.5,53.9,443.7,53.9z"/>
					</g>
				</g>
			</g>
		</g>
	</g>
	<g>
		<g>
			<g>
				<g>
					<g>
						<path class="st0" d="M155.9,333.9c1.6-1.9,3.4-3.5,5.4-4.8l-0.8-6.7l10.5-3.7l3.6,5.7c2.4-0.2,4.8-0.1,7.2,0.4l4.2-5.3l10,4.8
							l-1.5,6.5c1.9,1.6,3.5,3.4,4.8,5.4l6.7-0.8l3.7,10.5l-5.7,3.6c0.2,2.4,0.1,4.8-0.4,7.2l5.3,4.2l-4.8,10l-6.5-1.5
							c-1.6,1.9-3.4,3.5-5.4,4.8l0.8,6.7l-10.5,3.7l-3.6-5.7c-2.4,0.2-4.8,0.1-7.2-0.4l-4.2,5.3l-10-4.8l1.5-6.5
							c-1.9-1.6-3.5-3.4-4.8-5.4l-6.7,0.8l-3.7-10.5l5.7-3.6c-0.2-2.4-0.1-4.8,0.4-7.2l-5.3-4.2l4.8-10L155.9,333.9L155.9,333.9z
							 M165.1,342.2c-6.9,8.8-2.5,21.5,8.4,24c5.5,1.3,11.4-0.8,14.9-5.2c6.9-8.8,2.5-21.5-8.4-24
							C174.4,335.7,168.5,337.8,165.1,342.2z"/>
					</g>
				</g>
			</g>
		</g>
		<g>
			<g>
				<g>
					<g>
						<path class="st0" d="M51.8,71.9c1.9-2.3,4.2-4.2,6.6-5.9l-0.9-8.1l12.8-4.5l4.3,6.9c2.9-0.2,5.9-0.1,8.8,0.5l5.1-6.4l12.2,5.9
							l-1.8,8c2.3,1.9,4.2,4.2,5.9,6.6l8.1-0.9l4.5,12.8l-6.9,4.3c0.2,2.9,0.1,5.9-0.5,8.8l6.4,5.1l-5.9,12.2l-8-1.8
							c-1.9,2.3-4.2,4.2-6.6,5.9l0.9,8.1L84,133.7l-4.3-6.9c-2.9,0.2-5.9,0.1-8.8-0.5l-5.1,6.4l-12.2-5.9l1.8-8
							c-2.3-1.9-4.2-4.2-5.9-6.6l-8.1,0.9l-4.5-12.8l6.9-4.3c-0.2-2.9-0.1-5.9,0.5-8.8l-6.4-5.1l5.9-12.2L51.8,71.9L51.8,71.9z
							 M62.8,82.1c-8.4,10.7-3,26.2,10.3,29.3c6.7,1.6,13.9-1,18.2-6.4c8.4-10.7,3-26.2-10.3-29.3C74.3,74.2,67.1,76.7,62.8,82.1z"
							/>
					</g>
				</g>
			</g>
		</g>
		<g>
			<g>
				<g>
					<g>
						<path class="st0" d="M135.2,40.5c1.2-1.4,2.5-2.5,3.9-3.5l-0.6-4.8l7.6-2.7l2.6,4.1c1.7-0.1,3.5,0,5.3,0.3l3-3.8l7.3,3.5
							l-1.1,4.8c1.4,1.2,2.5,2.5,3.5,3.9l4.9-0.6l2.7,7.6l-4.1,2.6c0.1,1.7,0,3.5-0.3,5.3l3.8,3l-3.5,7.3l-4.8-1.1
							c-1.2,1.4-2.5,2.5-3.9,3.5l0.6,4.8l-7.6,2.7l-2.6-4.1c-1.7,0.1-3.5,0-5.3-0.3l-3,3.8l-7.3-3.5l1.1-4.8
							c-1.4-1.2-2.5-2.5-3.5-3.9l-4.9,0.6l-2.7-7.6l4.1-2.6c-0.1-1.7,0-3.5,0.3-5.3l-3.8-3l3.5-7.3L135.2,40.5L135.2,40.5z
							 M141.8,46.6c-5,6.4-1.8,15.6,6.1,17.5c4,0.9,8.3-0.6,10.8-3.8c5-6.4,1.8-15.6-6.1-17.5C148.6,41.8,144.3,43.4,141.8,46.6z"/>
					</g>
				</g>
			</g>
		</g>
	</g>
	<g>
		<g>
			<g>
				<g>
					<g>
						<path class="st0" d="M323.2,421c0,0,0.3-0.4,0.9-1c0.7-0.7,1.5-1.5,2.5-2.5c2.1-2.1,5-4.9,8.3-8l0.1-0.1v0.4
							c-3.3-3.1-6.3-5.9-8.4-7.9c-1-1-1.8-1.8-2.5-2.4c-0.6-0.6-0.9-0.9-0.9-1c0,0,0.4,0.3,1,0.8c0.7,0.6,1.6,1.4,2.6,2.3
							c2.2,2,5.2,4.7,8.5,7.8l0.2,0.2l-0.2,0.2l-0.1,0.1c-3.3,3.1-6.3,5.9-8.4,7.9c-1,0.9-1.9,1.7-2.6,2.4
							C323.6,420.8,323.3,421.1,323.2,421z"/>
					</g>
				</g>
			</g>
		</g>
		<g>
			<g>
				<g>
					<g>
						<path class="st0" d="M297.8,398.6c0,0-0.3,0.4-0.9,1c-0.7,0.7-1.5,1.5-2.5,2.5c-2.1,2.1-5,4.9-8.3,8l-0.1,0.1v-0.4
							c3.3,3.1,6.3,5.9,8.4,7.9c1,1,1.8,1.8,2.5,2.4c0.6,0.6,0.9,0.9,0.9,1c0,0-0.4-0.3-1-0.8c-0.7-0.6-1.6-1.4-2.6-2.3
							c-2.2-2-5.2-4.7-8.5-7.8l-0.2-0.2l0.2-0.2l0.1-0.1c3.3-3.1,6.3-5.9,8.4-7.9c1-0.9,1.9-1.7,2.6-2.4
							C297.4,398.9,297.8,398.6,297.8,398.6z"/>
					</g>
				</g>
			</g>
		</g>
		<g>
			<g>
				<g>
					<g>
						<path class="st0" d="M304.3,426.3c-0.1-0.1,2.5-7.6,6-16.8c3.4-9.2,6.4-16.6,6.5-16.5c0.1,0.1-2.5,7.5-6,16.8
							S304.5,426.4,304.3,426.3z"/>
					</g>
				</g>
			</g>
		</g>
		<g>
			<g>
				<g>
					<g>
						<path class="st0" d="M352.1,442.4c0,0,0-0.4,0-1.3c0-0.8,0-2,0-3.6c0-3.2,0-7.8-0.1-13.7c0-11.8-0.1-28.6-0.1-48.8l0.2,0.2
							c-23.6,0-52.1,0-82.7,0h0l0.3-0.3c0,24.4,0,47.4,0,67.4l-0.3-0.3c24.5,0,45.2,0.1,59.7,0.1c7.3,0,13,0,16.9,0.1
							c2,0,3.5,0,4.5,0c0.5,0,0.9,0,1.2,0C352,442.4,352.1,442.4,352.1,442.4s-0.1,0-0.4,0c-0.3,0-0.6,0-1.1,0c-1,0-2.5,0-4.4,0
							c-3.9,0-9.6,0-16.9,0.1c-14.6,0-35.3,0.1-59.9,0.1h-0.3v-0.3c0-20,0-43,0-67.4v-0.3h0.3h0c30.6,0,59,0,82.7,0h0.2v0.2
							c0,20.3-0.1,37.2-0.1,49c0,5.9,0,10.5-0.1,13.6c0,1.5,0,2.7,0,3.6C352.1,442,352.1,442.4,352.1,442.4z"/>
					</g>
				</g>
			</g>
		</g>
		<g>
			<g>
				<g>
					<g>
						<path class="st0" d="M352.8,385c0,0.2-18.7,0.3-41.7,0.3s-41.7-0.1-41.7-0.3s18.7-0.3,41.7-0.3S352.8,384.9,352.8,385z"/>
					</g>
				</g>
			</g>
		</g>
		<g>
			<g>
				<g>
					<g>
						<path class="st0" d="M276.2,380.1c0,0.6-0.5,1.1-1.1,1.1s-1.1-0.5-1.1-1.1s0.5-1.1,1.1-1.1S276.2,379.5,276.2,380.1z"/>
					</g>
				</g>
			</g>
			<g>
				<g>
					<g>
						<path class="st0" d="M280.3,380.1c0,0.6-0.5,1.1-1.1,1.1s-1.1-0.5-1.1-1.1s0.5-1.1,1.1-1.1S280.3,379.5,280.3,380.1z"/>
					</g>
				</g>
			</g>
			<g>
				<g>
					<g>
						<path class="st0" d="M284.3,380.1c0,0.6-0.5,1.1-1.1,1.1s-1.1-0.5-1.1-1.1s0.5-1.1,1.1-1.1S284.3,379.5,284.3,380.1z"/>
					</g>
				</g>
			</g>
		</g>
	</g>
	<g>
		<g>
			<g>
				<g>
					<g>
						<g>
							<g>
								<g>
									<polygon class="st1" points="66,447 66,475.8 108.2,475.8 154.7,475.8 154.7,447 									"/>
								</g>
							</g>
						</g>
					</g>
				</g>
			</g>
			<g>
				<g>
					<g>
						<g>
							<g>
								<g>
									<polygon class="st2" points="62.3,438.9 62.3,447 157.8,447 157.8,438.9 108.2,438.9 									"/>
								</g>
							</g>
						</g>
					</g>
				</g>
			</g>
			<g>
				<g>
					<g>
						<g>
							<g>
								<g>
									<polygon class="st2" points="110,475.8 154.7,475.8 154.7,447 157.8,447 157.8,438.9 108.2,438.9 108.2,446.2 									"/>
								</g>
							</g>
						</g>
					</g>
				</g>
			</g>
			<g>
				<g>
					<g>
						<g>
							<g>
								<g>
									<rect x="78.4" y="451.6" class="st2" width="18" height="4.3"/>
								</g>
							</g>
						</g>
					</g>
				</g>
			</g>
			<g>
				<g>
					<g>
						<g>
							<g>
								<g>
									<rect x="76.1" y="461.4" class="st3" width="23.1" height="9.2"/>
								</g>
							</g>
						</g>
					</g>
				</g>
			</g>
		</g>
	</g>
	<g>
		<g>
			<g>
				<g>
					<g>
						<g>
							<g>
								<g>
									<polygon class="st1" points="86.2,414.4 86.2,438.9 122.1,438.9 161.7,438.9 161.7,414.4 									"/>
								</g>
							</g>
						</g>
					</g>
				</g>
			</g>
			<g>
				<g>
					<g>
						<g>
							<g>
								<g>
									<polygon class="st2" points="83,407.5 83,414.4 164.3,414.4 164.3,407.5 122.1,407.5 									"/>
								</g>
							</g>
						</g>
					</g>
				</g>
			</g>
			<g>
				<g>
					<g>
						<g>
							<g>
								<g>
									<polygon class="st2" points="123.7,438.9 161.7,438.9 161.7,414.4 164.3,414.4 164.3,407.5 122.1,407.5 122.1,413.7 
																			"/>
								</g>
							</g>
						</g>
					</g>
				</g>
			</g>
			<g>
				<g>
					<g>
						<g>
							<g>
								<g>
									<rect x="96.7" y="418.3" class="st2" width="15.3" height="3.7"/>
								</g>
							</g>
						</g>
					</g>
				</g>
			</g>
			<g>
				<g>
					<g>
						<g>
							<g>
								<g>
									<rect x="94.8" y="426.6" class="st3" width="19.7" height="7.8"/>
								</g>
							</g>
						</g>
					</g>
				</g>
			</g>
		</g>
	</g>
</g>
<g id="Background_Simple" class="st4">
	<g class="st5">
		<path class="st0" d="M63.1,377.2l0.7-1.3c5.5-11,16.4-18.3,28.6-18.6c1.6,0,3.1,0,4.7,0.2c11.2,1.4,21.5,8.9,26.4,19.2
			c2.9,6.1,4.2,13.2,9,17.8c6.3,6,16.1,5.3,24.7,4.3c8.6-1,18.4-1.6,24.7,4.4c3.9,3.8,5.6,9.5,5.8,14.9c0.5,14.5-8.5,28.3-20.7,35.8
			c-12.3,7.5-27.3,9.4-41.5,7.8c-20-2.3-39.6-11.5-52.3-27.3C60.5,418.8,55.7,396.1,63.1,377.2z"/>
	</g>
	<g class="st5">
		<path class="st6" d="M463,88.5l-0.7,0.6c-6,5.1-14.2,6.7-21.5,3.8c-0.9-0.4-1.8-0.8-2.7-1.3c-6.3-3.6-10.5-10.6-10.7-17.9
			c-0.2-4.3,0.9-8.8-0.9-12.8c-2.2-5.1-8.2-7.2-13.5-8.7s-11.3-3.7-13.5-8.8c-1.4-3.2-0.9-7,0.3-10.2c3.4-8.7,12.1-14.5,21.2-15.9
			s18.4,1.3,26.4,5.8c11.2,6.3,20.4,16.7,23.9,29.2C474.9,64.7,472.1,79.3,463,88.5z"/>
	</g>
	<g class="st5">
		<circle class="st6" cx="302.7" cy="423.7" r="30.1"/>
	</g>
	<g class="st5">
		<circle class="st6" cx="438.5" cy="254.7" r="19.3"/>
	</g>
	<g class="st5">
		<ellipse class="st6" cx="56.3" cy="80.6" rx="19.3" ry="19.3"/>
	</g>
</g>
<g id="Screens">
	<g>
		<g>
			<g>
				<rect x="96.8" y="58.5" class="st7" width="310.1" height="267.8"/>
			</g>
			<g>
				<rect x="96.8" y="57.7" class="st8" width="310.1" height="25.4"/>
			</g>
			<g>
				<path class="st9" d="M194.4,72.5h-2.5l-0.5,1.2h-1l2.3-5.1h0.9l2.3,5.1h-1L194.4,72.5z M194.1,71.8l-1-2.2l-0.9,2.2H194.1z"/>
				<path class="st9" d="M196.6,68.6h2.2c1.6,0,2.8,1,2.8,2.5s-1.1,2.5-2.8,2.5h-2.2V68.6z M198.8,72.9c1.1,0,1.9-0.7,1.9-1.7
					s-0.7-1.7-1.9-1.7h-1.2v3.5L198.8,72.9L198.8,72.9z"/>
				<path class="st9" d="M207.1,68.6l-2.2,5.1h-0.9l-2.2-5.1h1l1.7,3.9l1.7-3.9H207.1z"/>
				<path class="st9" d="M210.8,72.5h-2.5l-0.5,1.2h-1l2.3-5.1h0.9l2.3,5.1h-1L210.8,72.5z M210.4,71.8l-1-2.2l-0.9,2.2H210.4z"/>
				<path class="st9" d="M217.4,68.6v5.1h-0.8l-2.8-3.4v3.4h-0.9v-5.1h0.8l2.8,3.4v-3.4H217.4z"/>
				<path class="st9" d="M218.4,71.2c0-1.5,1.2-2.6,2.7-2.6c0.8,0,1.5,0.3,2,0.8l-0.6,0.6c-0.4-0.4-0.8-0.6-1.4-0.6
					c-1.1,0-1.8,0.7-1.8,1.8s0.8,1.8,1.8,1.8c0.5,0,1-0.2,1.4-0.6l0.6,0.6c-0.5,0.6-1.2,0.8-2,0.8C219.6,73.8,218.4,72.7,218.4,71.2
					z"/>
				<path class="st9" d="M227.9,72.9v0.8h-3.8v-5.1h3.7v0.8H225v1.3h2.5v0.8H225v1.4H227.9z"/>
				<path class="st9" d="M228.9,68.6h2.2c1.6,0,2.8,1,2.8,2.5s-1.1,2.5-2.8,2.5h-2.2V68.6z M231.1,72.9c1.1,0,1.9-0.7,1.9-1.7
					s-0.7-1.7-1.9-1.7h-1.2v3.5L231.1,72.9L231.1,72.9z"/>
				<path class="st9" d="M236.6,71.2c0-1.5,1.2-2.6,2.7-2.6c0.8,0,1.5,0.3,2,0.8l-0.6,0.6c-0.4-0.4-0.8-0.6-1.4-0.6
					c-1.1,0-1.8,0.7-1.8,1.8s0.8,1.8,1.8,1.8c0.5,0,1-0.2,1.4-0.6l0.6,0.6c-0.5,0.6-1.2,0.8-2,0.8C237.8,73.8,236.6,72.7,236.6,71.2
					z"/>
				<path class="st9" d="M242.1,71.5v-2.9h0.9v2.8c0,1.1,0.5,1.5,1.3,1.5c0.8,0,1.3-0.4,1.3-1.5v-2.8h0.9v2.9c0,1.5-0.8,2.3-2.2,2.3
					C243,73.8,242.1,73,242.1,71.5z"/>
				<path class="st9" d="M247.5,73.2l0.3-0.7c0.4,0.3,1.1,0.6,1.7,0.6c0.8,0,1.1-0.3,1.1-0.7c0-1.1-3-0.4-3-2.3
					c0-0.8,0.6-1.5,2.1-1.5c0.6,0,1.3,0.2,1.7,0.4l-0.3,0.7c-0.5-0.3-1-0.4-1.4-0.4c-0.8,0-1.1,0.3-1.1,0.7c0,1.1,3,0.4,3,2.2
					c0,0.8-0.7,1.5-2.1,1.5C248.7,73.8,247.9,73.5,247.5,73.2z"/>
				<path class="st9" d="M253.5,69.4h-1.7v-0.8h4.3v0.8h-1.7v4.3h-0.9L253.5,69.4L253.5,69.4z"/>
				<path class="st9" d="M256.4,71.2c0-1.5,1.2-2.6,2.7-2.6s2.7,1.1,2.7,2.6s-1.2,2.6-2.7,2.6S256.4,72.7,256.4,71.2z M260.9,71.2
					c0-1-0.8-1.8-1.8-1.8c-1,0-1.8,0.8-1.8,1.8s0.8,1.8,1.8,1.8C260.1,72.9,260.9,72.2,260.9,71.2z"/>
				<path class="st9" d="M267.5,73.7l0-3.4l-1.7,2.8h-0.4l-1.7-2.8v3.3h-0.9v-5.1h0.8l2,3.4l2-3.4h0.8l0,5.1H267.5z"/>
				<path class="st9" d="M269.8,68.6h0.9v5.1h-0.9V68.6z"/>
				<path class="st9" d="M276.1,72.9v0.8h-4.3v-0.6l3-3.7h-2.9v-0.8h4.2v0.6l-3,3.7H276.1z"/>
				<path class="st9" d="M280.2,72.5h-2.5l-0.5,1.2h-1l2.3-5.1h0.9l2.3,5.1h-1L280.2,72.5z M279.9,71.8l-1-2.2l-1,2.2H279.9z"/>
				<path class="st9" d="M283.1,69.4h-1.7v-0.8h4.3v0.8h-1.7v4.3h-0.9V69.4z"/>
				<path class="st9" d="M286.5,68.6h0.9v5.1h-0.9V68.6z"/>
				<path class="st9" d="M288.5,71.2c0-1.5,1.2-2.6,2.7-2.6s2.7,1.1,2.7,2.6s-1.2,2.6-2.7,2.6S288.5,72.7,288.5,71.2z M293,71.2
					c0-1-0.8-1.8-1.8-1.8c-1,0-1.8,0.8-1.8,1.8s0.8,1.8,1.8,1.8C292.2,72.9,293,72.2,293,71.2z"/>
				<path class="st9" d="M299.5,68.6v5.1h-0.8l-2.8-3.4v3.4h-0.9v-5.1h0.8l2.8,3.4v-3.4H299.5z"/>
			</g>
			<g>
				<g>
					<path class="st7" d="M111.8,70.4c0,1.8-1.5,3.3-3.3,3.3s-3.3-1.5-3.3-3.3s1.5-3.3,3.3-3.3S111.8,68.6,111.8,70.4z"/>
				</g>
				<g>
					<path class="st7" d="M123.8,70.4c0,1.8-1.5,3.3-3.3,3.3s-3.3-1.5-3.3-3.3s1.5-3.3,3.3-3.3S123.8,68.6,123.8,70.4z"/>
				</g>
				<g>
					<path class="st7" d="M135.8,70.4c0,1.8-1.5,3.3-3.3,3.3s-3.3-1.5-3.3-3.3s1.5-3.3,3.3-3.3S135.8,68.6,135.8,70.4z"/>
				</g>
			</g>
		</g>
		<g>
			<g>
				<path class="st9" d="M406.9,326.2c0-1.9-0.1-106.6-0.2-267.8l0.2,0.2c-89.1,0-195.7,0-310.1,0h0l0.3-0.3c0,97.2,0,188.8,0,267.8
					l-0.2-0.2C281.7,326.1,404.9,326.2,406.9,326.2c-2,0-125.2,0.1-310.1,0.2h-0.2v-0.2c0-79,0-170.6,0-267.8v-0.3h0.3h0
					c114.4,0,221,0,310.1,0h0.2v0.2C407,219.7,406.9,324.4,406.9,326.2z"/>
			</g>
		</g>
	</g>
	<g>
		<g>
			<g>
				<rect x="181.7" y="300.7" class="st3" width="189" height="53.5"/>
			</g>
			<g>
				<g>
					<path class="st9" d="M370.7,354.1c0,0,0-0.3,0-0.9c0-0.6,0-1.5,0-2.7c0-2.4,0-5.9,0-10.5c0-9.1,0-22.5-0.1-39.4l0.2,0.2
						c-43.6,0-112.1,0.1-189,0.1h0l0.3-0.3c0,18.4,0,36.4,0,53.5l-0.3-0.3c54.1,0,101.3,0.1,135,0.1c16.9,0,30.3,0.1,39.6,0.1
						c4.6,0,8.2,0,10.6,0c1.2,0,2.1,0,2.8,0C370.4,354.1,370.7,354.1,370.7,354.1s-0.3,0-0.9,0c-0.6,0-1.5,0-2.7,0
						c-2.4,0-6,0-10.6,0c-9.3,0-22.7,0-39.6,0.1c-33.7,0-81,0.1-135.2,0.1h-0.3v-0.3c0-17.1,0-35,0-53.5v-0.3h0.3h0
						c76.8,0,145.4,0.1,189,0.1h0.2v0.2c0,16.9-0.1,30.3-0.1,39.5c0,4.6,0,8.1,0,10.5c0,1.2,0,2.1,0,2.7
						C370.7,353.8,370.7,354.1,370.7,354.1z"/>
				</g>
			</g>
		</g>
		<g>
			<g>
				<g>
					<path class="st0" d="M203.3,330.5c-1.7,0-3.1-1.4-3.1-3s1.4-3,3.1-3c1.7,0,3.1,1.4,3.1,3S205,330.5,203.3,330.5z M203.3,325.3
						c-1.2,0-2.1,1-2.1,2.1s0.9,2.1,2.1,2.1s2.1-1,2.1-2.1S204.5,325.3,203.3,325.3z"/>
				</g>
			</g>
			<g>
				<g>
					<path class="st9" d="M336.4,327.9H211.8c-0.3,0-0.5-0.2-0.5-0.5s0.2-0.5,0.5-0.5h124.6c0.3,0,0.5,0.2,0.5,0.5
						S336.7,327.9,336.4,327.9z"/>
				</g>
			</g>
			<g>
				<g>
					<path class="st0" d="M295.6,327.5c0,2.3-1.9,4.1-4.1,4.1c-2.3,0-4.1-1.9-4.1-4.1s1.9-4.1,4.1-4.1
						C293.8,323.4,295.6,325.3,295.6,327.5z"/>
				</g>
			</g>
			<g>
				<g>
					<g>
						<path class="st0" d="M344.7,330c-1.7,0-3.1-1.4-3.1-3.1c0-1.7,1.4-3.1,3.1-3.1c1.7,0,3.1,1.4,3.1,3.1
							C347.8,328.6,346.4,330,344.7,330z M344.7,324.8c-1.2,0-2.1,1-2.1,2.1c0,1.2,1,2.1,2.1,2.1c1.2,0,2.1-1,2.1-2.1
							S345.9,324.8,344.7,324.8z"/>
					</g>
				</g>
				<g>
					<g>
						<g>
							<g>
								<path class="st0" d="M349.3,327.9c-0.4-0.1-0.7-0.3-0.7-0.5c0-0.2,0.4-0.4,0.8-0.4c0.4,0,0.7,0.2,0.7,0.5
									C350.1,327.8,349.7,327.9,349.3,327.9z"/>
							</g>
						</g>
					</g>
					<g>
						<g>
							<g>
								<path class="st0" d="M347.3,330.9c-0.2-0.3-0.3-0.7-0.1-0.9c0.2-0.1,0.5,0,0.8,0.3c0.3,0.3,0.3,0.7,0.1,0.9
									C347.9,331.3,347.5,331.2,347.3,330.9z"/>
							</g>
						</g>
					</g>
					<g>
						<g>
							<g>
								<path class="st0" d="M343.8,331.6c0.1-0.4,0.3-0.7,0.5-0.7c0.2,0,0.4,0.4,0.4,0.8c0,0.4-0.2,0.7-0.5,0.7
									C343.8,332.3,343.7,332,343.8,331.6z"/>
							</g>
						</g>
					</g>
					<g>
						<g>
							<g>
								<path class="st0" d="M340.7,329.6c0.3-0.2,0.7-0.3,0.9-0.1c0.1,0.2,0,0.5-0.3,0.8c-0.3,0.3-0.7,0.3-0.9,0.1
									C340.3,330.1,340.4,329.8,340.7,329.6z"/>
							</g>
						</g>
					</g>
					<g>
						<g>
							<g>
								<path class="st0" d="M340,326c0.4,0.1,0.7,0.3,0.7,0.5c0,0.2-0.4,0.4-0.8,0.4c-0.4,0-0.7-0.2-0.7-0.5
									C339.3,326.1,339.6,325.9,340,326z"/>
							</g>
						</g>
					</g>
					<g>
						<g>
							<g>
								<path class="st0" d="M342,323c0.2,0.3,0.3,0.7,0.1,0.9c-0.2,0.1-0.5,0-0.8-0.3c-0.3-0.3-0.3-0.7-0.1-0.9
									C341.5,322.5,341.8,322.6,342,323z"/>
							</g>
						</g>
					</g>
					<g>
						<g>
							<g>
								<path class="st0" d="M345.6,322.3c-0.1,0.4-0.3,0.7-0.5,0.7c-0.2,0-0.4-0.4-0.4-0.8c0-0.4,0.2-0.7,0.5-0.7
									C345.5,321.5,345.7,321.9,345.6,322.3z"/>
							</g>
						</g>
					</g>
					<g>
						<g>
							<g>
								<path class="st0" d="M348.6,324.3c-0.3,0.2-0.7,0.3-0.9,0.1c-0.1-0.2,0-0.5,0.3-0.8c0.3-0.3,0.7-0.3,0.9-0.1
									C349.1,323.7,349,324.1,348.6,324.3z"/>
							</g>
						</g>
					</g>
				</g>
			</g>
		</g>
		<g>
			<g>
				<path class="st10" d="M291,328.5h-79c-0.5,0-0.9-0.4-0.9-0.9s0.4-0.9,0.9-0.9h79c0.5,0,0.9,0.4,0.9,0.9
					C292,328.1,291.5,328.5,291,328.5z"/>
			</g>
		</g>
	</g>
	<g>
		<g>
			<g>
				<g>
					<polygon class="st3" points="398.4,100.8 398.4,209.2 405.5,209.2 420.3,209.2 472,209.2 472,100.8 					"/>
				</g>
				<g>
					<g>
						<path class="st9" d="M398.4,100.8c0,0,0.4,0,1.3,0c0.9,0,2.2,0,3.9,0c3.4,0,8.4,0,14.8-0.1c12.8,0,31.2-0.1,53.7-0.1h0.2v0.2
							c0,29.9,0,67.6,0,108.3v0v0.3H472c-26.3,0-51.2,0-73.6,0h-0.2v-0.2c0-32,0.1-59.1,0.1-78.2c0-9.5,0-17.1,0.1-22.2
							c0-2.6,0-4.5,0-5.9c0-0.7,0-1.2,0-1.5C398.4,101,398.4,100.8,398.4,100.8s0,0.2,0,0.5c0,0.4,0,0.9,0,1.5c0,1.4,0,3.3,0,5.9
							c0,5.2,0,12.7,0.1,22.3c0,19.1,0.1,46.1,0.1,78.1l-0.2-0.2c22.4,0,47.3,0,73.6,0l-0.3,0.3v0c0-40.8,0-78.4,0-108.3l0.2,0.2
							c-22.4-0.1-40.8-0.1-53.5-0.1c-6.4,0-11.4,0-14.8-0.1c-1.7,0-3,0-3.9,0C398.9,100.8,398.4,100.8,398.4,100.8z"/>
					</g>
				</g>
			</g>
		</g>
		<g>
			<g>
				<path class="st11" d="M419,191.4h-0.2c-1.1,0-2-0.9-2-2v-67.7c0-1.1,0.9-2,2-2h0.2c1.1,0,2,0.9,2,2v67.7
					C421,190.5,420.1,191.4,419,191.4z"/>
			</g>
			<g>
				<g>
					<path class="st9" d="M419,191.4c0-0.1,0.6,0.1,1.3-0.6c0.9-0.7,0.5-2.3,0.6-4.1c0-3.8,0-9.2-0.1-15.9c0-6.7,0-14.7,0-23.6
						c0-4.4,0-9.1,0-13.9c0-2.4,0-4.9,0-7.4c0-1.3,0-2.5,0-3.8c0-0.3,0-0.6-0.1-0.9c-0.1-0.3-0.2-0.5-0.4-0.7
						c-0.4-0.4-0.9-0.6-1.5-0.6c-0.6,0-1.1,0.3-1.4,0.7c-0.2,0.2-0.3,0.5-0.3,0.8c0,0.3,0,0.6,0,0.9c0,1.3,0,2.5,0,3.8
						c0,2.5,0,5,0,7.4c0,4.8,0,9.5,0,13.9c0,8.9,0,16.9,0,23.6c0,6.7-0.1,12.1-0.1,15.9c0,0.9,0,1.8,0,2.5c0,0.7,0.4,1.3,0.8,1.5
						c0.4,0.3,0.8,0.4,1,0.4C418.9,191.4,419,191.4,419,191.4c0,0-0.1,0-0.4,0c-0.3,0-0.6-0.1-1.1-0.4c-0.4-0.3-0.8-0.8-0.9-1.6
						c0-0.7,0-1.6,0-2.5c0-3.8,0-9.2-0.1-15.9c0-6.7,0-14.7,0-23.6c0-4.4,0-9.1,0-13.9c0-2.4,0-4.9,0-7.4c0-1.3,0-2.5,0-3.8
						c0-0.3,0-0.6,0-1c0-0.3,0.2-0.7,0.4-1c0.4-0.6,1.1-0.9,1.8-0.9c0.7-0.1,1.5,0.2,1.9,0.8c0.2,0.3,0.4,0.6,0.5,0.9
						c0.1,0.4,0.1,0.7,0.1,1c0,1.3,0,2.5,0,3.8c0,2.5,0,5,0,7.4c0,4.8,0,9.5,0,13.9c0,8.9,0,16.9,0,23.6c0,6.7-0.1,12.1-0.1,15.9
						c0,0.9,0,1.8,0,2.5c0,0.8-0.3,1.4-0.7,1.7C419.6,191.5,419,191.4,419,191.4z"/>
				</g>
			</g>
		</g>
		<g>
			<g>
				<path class="st11" d="M435.3,191.4h-0.2c-1.1,0-2-0.9-2-2v-67.7c0-1.1,0.9-2,2-2h0.2c1.1,0,2,0.9,2,2v67.7
					C437.3,190.5,436.4,191.4,435.3,191.4z"/>
			</g>
			<g>
				<g>
					<path class="st9" d="M435.3,191.4c0-0.1,0.6,0.1,1.3-0.6c0.9-0.7,0.5-2.3,0.6-4.1c0-3.8,0-9.2-0.1-15.9c0-6.7,0-14.7,0-23.6
						c0-4.4,0-9.1,0-13.9c0-2.4,0-4.9,0-7.4c0-1.3,0-2.5,0-3.8c0-0.3,0-0.6-0.1-0.9c-0.1-0.3-0.2-0.5-0.4-0.7
						c-0.4-0.4-0.9-0.6-1.5-0.6c-0.6,0-1.1,0.3-1.4,0.7c-0.2,0.2-0.3,0.5-0.3,0.8c0,0.3,0,0.6,0,0.9c0,1.3,0,2.5,0,3.8
						c0,2.5,0,5,0,7.4c0,4.8,0,9.5,0,13.9c0,8.9,0,16.9,0,23.6c0,6.7-0.1,12.1-0.1,15.9c0,0.9,0,1.8,0,2.5c0,0.7,0.4,1.3,0.8,1.5
						c0.4,0.3,0.8,0.4,1,0.4C435.2,191.4,435.3,191.4,435.3,191.4c0,0-0.1,0-0.4,0c-0.3,0-0.6-0.1-1.1-0.4c-0.4-0.3-0.8-0.8-0.9-1.6
						c0-0.7,0-1.6,0-2.5c0-3.8,0-9.2-0.1-15.9c0-6.7,0-14.7,0-23.6c0-4.4,0-9.1,0-13.9c0-2.4,0-4.9,0-7.4c0-1.3,0-2.5,0-3.8
						c0-0.3,0-0.6,0-1c0-0.3,0.2-0.7,0.4-1c0.4-0.6,1.1-0.9,1.8-0.9c0.7-0.1,1.5,0.2,1.9,0.8c0.2,0.3,0.4,0.6,0.5,0.9
						c0.1,0.4,0.1,0.7,0.1,1c0,1.3,0,2.5,0,3.8c0,2.5,0,5,0,7.4c0,4.8,0,9.5,0,13.9c0,8.9,0,16.9,0,23.6c0,6.7-0.1,12.1-0.1,15.9
						c0,0.9,0,1.8,0,2.5c0,0.8-0.3,1.4-0.7,1.7C435.9,191.5,435.3,191.4,435.3,191.4z"/>
				</g>
			</g>
		</g>
		<g>
			<g>
				<path class="st11" d="M451.6,191.4h-0.2c-1.1,0-2-0.9-2-2v-67.7c0-1.1,0.9-2,2-2h0.2c1.1,0,2,0.9,2,2v67.7
					C453.6,190.5,452.8,191.4,451.6,191.4z"/>
			</g>
			<g>
				<g>
					<path class="st9" d="M451.6,191.4c0-0.1,0.6,0.1,1.3-0.6c0.9-0.7,0.5-2.3,0.6-4.1c0-3.8,0-9.2-0.1-15.9c0-6.7,0-14.7,0-23.6
						c0-4.4,0-9.1,0-13.9c0-2.4,0-4.9,0-7.4c0-1.3,0-2.5,0-3.8c0-0.3,0-0.6-0.1-0.9c-0.1-0.3-0.2-0.5-0.4-0.7
						c-0.4-0.4-0.9-0.6-1.5-0.6c-0.6,0-1.1,0.3-1.4,0.7c-0.2,0.2-0.3,0.5-0.3,0.8c0,0.3,0,0.6,0,0.9c0,1.3,0,2.5,0,3.8
						c0,2.5,0,5,0,7.4c0,4.8,0,9.5,0,13.9c0,8.9,0,16.9,0,23.6c0,6.7-0.1,12.1-0.1,15.9c0,0.9,0,1.8,0,2.5c0,0.7,0.4,1.3,0.8,1.5
						c0.4,0.3,0.8,0.4,1,0.4C451.5,191.4,451.6,191.4,451.6,191.4c0,0-0.1,0-0.4,0c-0.3,0-0.6-0.1-1.1-0.4c-0.4-0.3-0.8-0.8-0.9-1.6
						c0-0.7,0-1.6,0-2.5c0-3.8,0-9.2-0.1-15.9c0-6.7,0-14.7,0-23.6c0-4.4,0-9.1,0-13.9c0-2.4,0-4.9,0-7.4c0-1.3,0-2.5,0-3.8
						c0-0.3,0-0.6,0-1c0-0.3,0.2-0.7,0.4-1c0.4-0.6,1.1-0.9,1.8-0.9c0.7-0.1,1.5,0.2,1.9,0.8c0.2,0.3,0.4,0.6,0.5,0.9
						c0.1,0.4,0.1,0.7,0.1,1c0,1.3,0,2.5,0,3.8c0,2.5,0,5,0,7.4c0,4.8,0,9.5,0,13.9c0,8.9,0,16.9,0,23.6c0,6.7-0.1,12.1-0.1,15.9
						c0,0.9,0,1.8,0,2.5c0,0.8-0.3,1.4-0.7,1.7C452.2,191.5,451.6,191.4,451.6,191.4z"/>
				</g>
			</g>
		</g>
		<g>
			<path class="st0" d="M418.6,153.3h-0.8c-2.3,0-4.1-1.9-4.1-4.1l0,0c0-2.3,1.9-4.1,4.1-4.1h0.8c2.3,0,4.1,1.9,4.1,4.1l0,0
				C422.7,151.4,420.9,153.3,418.6,153.3z"/>
		</g>
		<g>
			<path class="st0" d="M436,168.8h-0.8c-2.3,0-4.1-1.9-4.1-4.1l0,0c0-2.3,1.9-4.1,4.1-4.1h0.8c2.3,0,4.1,1.9,4.1,4.1l0,0
				C440.1,167,438.3,168.8,436,168.8z"/>
		</g>
		<g>
			<path class="st0" d="M451.7,139.5H451c-2.3,0-4.1-1.9-4.1-4.1l0,0c0-2.3,1.9-4.1,4.1-4.1h0.8c2.3,0,4.1,1.9,4.1,4.1l0,0
				C455.9,137.6,454,139.5,451.7,139.5z"/>
		</g>
	</g>
	<g>
		<g>
			<g>
				<rect x="234.3" y="191.4" class="st3" width="151.7" height="88.6"/>
			</g>
			<g>
				<g>
					<path class="st9" d="M386,280.1c0,0,0-0.5,0-1.6c0-1.1,0-2.6,0-4.6c0-4.1,0-10.1,0-17.7c0-15.4-0.1-37.5-0.1-64.7l0.2,0.2
						c-40.8,0-93.9,0-151.7,0.1h0l0.3-0.3c0,31.4,0,61.4,0,88.6l-0.2-0.2c44.5,0,82.4,0.1,109.2,0.1c13.4,0,24,0,31.3,0.1
						c3.6,0,6.4,0,8.4,0c0.9,0,1.7,0,2.2,0C385.8,280.1,386,280.1,386,280.1s-0.2,0-0.7,0c-0.5,0-1.2,0-2.1,0c-1.9,0-4.7,0-8.3,0
						c-7.3,0-17.9,0-31.3,0.1c-26.8,0-64.8,0.1-109.3,0.1H234v-0.2c0-27.3,0-57.3,0-88.6v-0.3h0.3h0c57.9,0,111,0,151.7,0.1h0.2v0.2
						c0,27.2-0.1,49.4-0.1,64.8c0,7.7,0,13.6,0,17.7c0,2,0,3.6,0,4.6C386,279.5,386,280.1,386,280.1z"/>
				</g>
			</g>
		</g>
		<g>
			<g>
				<g>
					<g>
						<path class="st9" d="M285.7,244.3h-13.8l-1.6,3.8c-0.5,1.3-0.8,2.3-0.8,3.1c0,1.1,0.4,1.9,1.3,2.4c0.5,0.3,1.8,0.5,3.8,0.7
							v1.1h-13v-1.1c1.4-0.2,2.6-0.8,3.5-1.8c0.9-0.9,2-2.9,3.4-5.9l14-31.2h0.5l14.1,32.1c1.4,3,2.5,4.9,3.3,5.7
							c0.6,0.6,1.6,0.9,2.8,1v1.1h-18.9v-1.1h0.8c1.5,0,2.6-0.2,3.2-0.6c0.4-0.3,0.6-0.8,0.6-1.3c0-0.4-0.1-0.7-0.2-1.1
							c0-0.2-0.3-0.9-0.9-2.2L285.7,244.3z M284.7,242.1l-5.8-13.5l-6,13.5H284.7z"/>
					</g>
				</g>
			</g>
		</g>
		<g>
			<path class="st9" d="M342.7,243c1.7-1.1,5.1-2.6,10.3-4.6v-2.4c0-1.9-0.2-3.2-0.6-4c-0.6-1.3-2-1.9-4-1.9c-1,0-1.9,0.2-2.7,0.7
				c-0.9,0.5-1.3,1.2-1.3,2.1c0,0.2,0,0.6,0.1,1.1c0.1,0.5,0.1,0.9,0.1,1c0,1.1-0.4,1.8-1,2.2c-0.4,0.2-0.9,0.4-1.4,0.4
				c-0.8,0-1.5-0.3-1.9-0.8s-0.7-1.2-0.7-1.8c0-1.3,0.8-2.7,2.4-4.1c1.6-1.4,4-2.1,7.1-2.1c3.6,0,6.1,1.2,7.4,3.5
				c0.7,1.3,1,3.2,1,5.6v11.3c0,1.1,0.1,1.8,0.2,2.2c0.2,0.7,0.8,1.1,1.5,1.1c0.4,0,0.8-0.1,1.1-0.2c0.3-0.1,0.8-0.4,1.5-0.9v1.5
				c-0.6,0.7-1.2,1.3-1.9,1.8c-1,0.7-2.1,1.1-3.2,1.1c-1.3,0-2.2-0.4-2.8-1.2c-0.6-0.8-0.9-1.8-0.9-2.9c-1.4,1.2-2.6,2.1-3.6,2.8
				c-1.7,1-3.3,1.5-4.9,1.5c-1.6,0-3-0.6-4.2-1.7c-1.2-1.1-1.8-2.6-1.8-4.3C338.6,247.1,340,244.8,342.7,243z M353,239.8
				c-2.1,0.7-3.9,1.5-5.3,2.4c-2.7,1.7-4,3.6-4,5.7c0,1.7,0.6,3,1.7,3.8c0.7,0.5,1.5,0.8,2.4,0.8c1.2,0,2.4-0.4,3.5-1
				c1.1-0.7,1.7-1.6,1.7-2.6V239.8z"/>
		</g>
		<g>
			<g>
				<path class="st9" d="M314.4,263.5c-0.1,0-0.3-11.4-0.3-25.5c0-14.1,0.1-25.5,0.3-25.5s0.3,11.4,0.3,25.5
					C314.6,252.1,314.5,263.5,314.4,263.5z"/>
			</g>
		</g>
	</g>
	<g>
		<g>
			<g>
				<rect x="226.6" y="106.3" class="st3" width="156.9" height="68.7"/>
			</g>
			<g>
				<g>
					<path class="st9" d="M383.5,175c0,0,0-0.4,0-1.2c0-0.8,0-2,0-3.6c0-3.1,0-7.8,0-13.7c0-11.9-0.1-29-0.1-50.2l0.2,0.2
						c-40.4,0-95.8,0-156.9,0.1h0l0.3-0.3c0,24.1,0,47.3,0,68.7l-0.3-0.3c45.6,0.1,84.8,0.1,112.6,0.1c13.9,0,25,0.1,32.6,0.1
						c3.8,0,6.7,0,8.7,0c1,0,1.7,0,2.3,0C383.2,175,383.5,175,383.5,175s-0.3,0-0.7,0c-0.5,0-1.3,0-2.2,0c-2,0-4.9,0-8.7,0
						c-7.6,0-18.6,0-32.5,0.1c-27.9,0-67.1,0.1-112.8,0.1h-0.3V175c0-21.3,0-44.6,0-68.7v-0.3h0.3h0c61.1,0,116.5,0.1,156.9,0.1h0.2
						v0.2c0,21.2-0.1,38.4-0.1,50.3c0,5.9,0,10.5,0,13.6c0,1.6,0,2.7,0,3.5C383.5,174.6,383.5,175,383.5,175z"/>
				</g>
			</g>
		</g>
		<g>
			<g>
				<g>
					<g>
						<rect x="244.2" y="143.3" class="st3" width="16.6" height="13.5"/>
					</g>
					<g>
						<g>
							<path class="st9" d="M260.8,156.8c0,0,0-0.4,0-1c0-0.7,0-1.6,0-2.7c0-2.4,0-5.8,0-9.8l0.1,0.1c-4.8,0-10.5,0-16.6,0
								c0,0,0.2-0.2,0.1-0.1l0,0v0v0v0v0.1v0.1v0.2v0.4v0.9c0,0.6,0,1.2,0,1.8c0,1.2,0,2.3,0,3.5c0,2.3,0,4.4,0,6.4l-0.1-0.1
								c4.9,0,9,0,12,0.1c1.4,0,2.5,0,3.4,0C260.4,156.8,260.8,156.8,260.8,156.8s-0.4,0-1.2,0c-0.9,0-2,0-3.4,0c-3,0-7.1,0-12,0.1
								h-0.1v-0.1c0-2,0-4.1,0-6.4c0-1.1,0-2.3,0-3.5c0-0.6,0-1.2,0-1.8v-0.9v-0.4v-0.2v-0.1v-0.1v0v0v0l0,0
								c-0.1,0.1,0.1-0.1,0.1-0.1c6.1,0,11.8,0,16.6,0h0.1v0.1c0,4,0,7.4,0,9.8c0,1.1,0,2,0,2.7
								C260.8,156.4,260.8,156.8,260.8,156.8z"/>
						</g>
					</g>
				</g>
				<g>
					<g>
						<g>
							<g>
								<g>
									<g>
										
											<rect x="246.9" y="142.5" transform="matrix(4.180954e-03 -1 1 4.180954e-03 101.4153 401.9096)" class="st12" width="11.3" height="15"/>
									</g>
								</g>
							</g>
						</g>
					</g>
					<g class="st13">
						<g>
							<g>
								<g>
									<g>
										<polygon points="245,155.6 250.3,148.6 253.5,153 255.7,150.7 260,155.7 										"/>
									</g>
								</g>
							</g>
						</g>
					</g>
					<g class="st13">
						<g>
							<g>
								<g>
									<g>
										<g>
											<g>
												<path d="M254.9,147.8c0,0.6-0.5,1.2-1.2,1.2c-0.6,0-1.2-0.5-1.2-1.2c0-0.6,0.5-1.2,1.2-1.2S254.9,147.2,254.9,147.8z"/>
											</g>
										</g>
									</g>
								</g>
							</g>
						</g>
					</g>
				</g>
			</g>
			<g>
				<g>
					<g>
						<rect x="275.1" y="132.4" class="st3" width="31.5" height="25.6"/>
					</g>
					<g>
						<g>
							<path class="st9" d="M306.6,158c0,0,0-0.6,0-1.8c0-1.2,0-3,0-5.2c0-4.5,0-10.9,0-18.5l0.1,0.1c-9,0-19.9,0-31.5,0
								c0,0,0.2-0.2,0.1-0.1v0v0v0v0.1v0.1v0.2v0.4v0.9c0,0.6,0,1.1,0,1.7c0,1.1,0,2.3,0,3.4c0,2.2,0,4.4,0,6.6c0,4.3,0,8.4,0,12.2
								l-0.1-0.1c9.3,0,17.2,0,22.8,0.1c2.7,0,4.9,0,6.5,0C305.8,158,306.6,158,306.6,158s-0.8,0-2.3,0c-1.5,0-3.7,0-6.4,0
								c-5.6,0-13.5,0-22.8,0.1H275V158c0-3.8,0-7.9,0-12.2c0-2.1,0-4.3,0-6.6c0-1.1,0-2.3,0-3.4c0-0.6,0-1.1,0-1.7v-0.9v-0.4v-0.2
								v-0.1v-0.1v0v0v0c-0.1,0.1,0.1-0.1,0.1-0.1c11.6,0,22.5,0,31.5,0h0.1v0.1c0,7.7,0,14.1,0,18.6c0,2.2,0,3.9,0,5.2
								C306.6,157.4,306.6,158,306.6,158z"/>
						</g>
					</g>
				</g>
				<g>
					<g>
						<g>
							<g>
								<g>
									<g>
										
											<rect x="280.2" y="131" transform="matrix(4.172781e-03 -1 1 4.172781e-03 144.4413 435.4788)" class="st12" width="21.4" height="28.4"/>
									</g>
								</g>
							</g>
						</g>
					</g>
					<g class="st13">
						<g>
							<g>
								<g>
									<g>
										<polygon points="276.6,155.8 286.6,142.6 292.7,150.9 296.9,146.5 305,156 										"/>
									</g>
								</g>
							</g>
						</g>
					</g>
					<g class="st13">
						<g>
							<g>
								<g>
									<g>
										<g>
											<g>
												<path d="M295.4,141c0,1.2-1,2.2-2.3,2.2c-1.2,0-2.2-1-2.2-2.3c0-1.2,1-2.2,2.3-2.2C294.4,138.8,295.4,139.8,295.4,141z"
													/>
											</g>
										</g>
									</g>
								</g>
							</g>
						</g>
					</g>
				</g>
			</g>
			<g>
				<g>
					<g>
						<rect x="321" y="121.1" class="st3" width="48.3" height="39.2"/>
					</g>
					<g>
						<g>
							<path class="st9" d="M369.3,160.3c0-1.8,0-15.9-0.1-39.2l0.1,0.1c-13.8,0-30.4,0-48.3,0c0,0,0.2-0.2,0.1-0.1v0v0v0v0.1v0.2
								v0.3v0.7v1.3c0,0.9,0,1.8,0,2.6c0,1.7,0,3.5,0,5.2c0,3.4,0,6.8,0,10.1c0,6.6,0,12.8,0,18.7l-0.1-0.1
								C349.5,160.2,367.3,160.3,369.3,160.3c-2,0-19.9,0-48.3,0.1h-0.1v-0.1c0-5.8,0-12.1,0-18.7c0-3.3,0-6.6,0-10.1
								c0-1.7,0-3.4,0-5.2c0-0.9,0-1.8,0-2.6v-1.3v-0.7v-0.3v-0.2v-0.1v0v0v0c-0.1,0.1,0.1-0.1,0.1-0.1c17.9,0,34.5,0,48.3,0h0.1
								v0.1C369.4,144.4,369.3,158.5,369.3,160.3z"/>
						</g>
					</g>
				</g>
				<g>
					<g>
						<g>
							<g>
								<g>
									<g>
										
											<rect x="328.8" y="118.9" transform="matrix(4.176750e-03 -1 1 4.176750e-03 203.0765 485.2435)" class="st12" width="32.8" height="43.6"/>
									</g>
								</g>
							</g>
						</g>
					</g>
					<g class="st13">
						<g>
							<g>
								<g>
									<g>
										<polygon points="323.3,156.9 338.6,136.6 348,149.4 354.4,142.6 366.9,157.1 										"/>
									</g>
								</g>
							</g>
						</g>
					</g>
					<g class="st13">
						<g>
							<g>
								<g>
									<g>
										<g>
											<g>
												<path d="M352.1,134.2c0,1.9-1.5,3.4-3.5,3.4c-1.9,0-3.4-1.6-3.4-3.4c0-1.9,1.5-3.4,3.5-3.4
													C350.5,130.8,352.1,132.3,352.1,134.2z"/>
											</g>
										</g>
									</g>
								</g>
							</g>
						</g>
					</g>
				</g>
			</g>
		</g>
	</g>
	<g>
		<g>
			<g>
				<g>
					<rect x="18.9" y="116.6" class="st3" width="186.8" height="116.8"/>
				</g>
				<g>
					<g>
						<path class="st9" d="M205.7,233.4c0,0,0-0.7,0-2.1c0-1.4,0-3.4,0-6.1c0-5.4,0-13.3-0.1-23.4c0-20.3-0.1-49.4-0.1-85.1l0.2,0.2
							c-50.8,0-116,0-186.8,0.1h0l0.3-0.3c0,41.4,0,80.9,0,116.8l-0.2-0.2c54.8,0.1,101.5,0.1,134.5,0.1c16.5,0,29.6,0.1,38.5,0.1
							c4.5,0,7.9,0,10.3,0c1.2,0,2,0,2.6,0C205.4,233.4,205.7,233.4,205.7,233.4s-0.3,0-0.9,0c-0.6,0-1.5,0-2.6,0
							c-2.3,0-5.8,0-10.2,0c-8.9,0-22,0-38.5,0.1c-33,0-79.8,0.1-134.6,0.1h-0.2v-0.2c0-35.9,0-75.4,0-116.8v-0.3h0.3h0
							c70.8,0,136,0,186.8,0.1h0.2v0.2c-0.1,35.7-0.1,64.9-0.1,85.2c0,10.1,0,18-0.1,23.4c0,2.7,0,4.7,0,6.1
							C205.7,232.7,205.7,233.4,205.7,233.4z"/>
					</g>
				</g>
			</g>
			<g>
				<g>
					<g>
						<path class="st11" d="M116.5,165.6h-9.1c-4.4,0-8-3.6-8-8v-19.5h25v19.5C124.5,162,120.9,165.6,116.5,165.6z"/>
					</g>
					<g>
						<g>
							<path class="st9" d="M116.5,165.6c0-0.1,0.8,0,2.3-0.4c0.7-0.3,1.6-0.6,2.4-1.3c0.9-0.7,1.7-1.6,2.3-2.9
								c0.6-1.3,0.8-2.8,0.7-4.5c0-1.7,0-3.5,0-5.5c0-3.9,0-8.2,0-12.9l0.2,0.2c-5.3,0-11,0-17,0c-2.7,0-5.4,0-8,0l0.3-0.3
								c0,5.8,0,11.3,0,16.3c0,1.2,0,2.4,0,3.6c0,1.1,0.3,2.2,0.8,3.2c0.9,1.9,2.6,3.2,4.3,3.8c1.7,0.6,3.4,0.4,4.8,0.5
								c1.4,0,2.7,0,3.7,0c1,0,1.8,0,2.3,0c0.2,0,0.4,0,0.6,0C116.5,165.6,116.5,165.6,116.5,165.6s-0.1,0-0.2,0c-0.2,0-0.4,0-0.6,0
								c-0.6,0-1.3,0-2.3,0c-1,0-2.3,0-3.7,0c-0.7,0-1.5,0-2.3,0c-0.8,0-1.7-0.1-2.6-0.5c-1.8-0.6-3.5-2-4.5-4
								c-0.5-1-0.8-2.1-0.9-3.3c0-1.2,0-2.4,0-3.6c0-4.9,0-10.4,0-16.3v-0.3h0.3c2.6,0,5.2,0,8,0c6,0,11.8,0,17,0h0.3v0.2
								c0,4.7,0,9,0,12.9c0,1.9,0,3.8,0,5.5c0.1,1.7-0.1,3.4-0.8,4.6c-0.6,1.3-1.5,2.3-2.4,2.9c-0.9,0.7-1.8,1.1-2.5,1.3
								C117.4,165.7,116.5,165.6,116.5,165.6z"/>
						</g>
					</g>
				</g>
				<g>
					<path class="st14" d="M99.6,138.3c3.6,2.6,7.4,4.4,11.9,4.3s9.5-1.5,13-4.3L99.6,138.3z"/>
				</g>
				<g>
					<g>
						<path class="st9" d="M124.5,142.1c0,0,0.1,0.2,0.2,0.5c0.1,0.4,0.3,0.9,0.4,1.6c0.4,1.4,0.9,3.4,1.5,5.8c0.3,1.2,0.6,2.6,1,4
							c0.2,0.7,0.4,1.4,0.5,2.3c0.1,0.8,0,1.7-0.3,2.5c-0.3,0.8-0.9,1.5-1.7,2.1c-0.8,0.5-1.7,0.8-2.7,0.8c-1.8,0-3.7,0-5.6,0
							c-1,0-1.9,0-2.8,0c-0.9,0-1.9,0-2.8-0.2c-1.8-0.4-3.4-1.4-4.5-2.7c-0.6-0.7-1-1.4-1.3-2.1c-0.3-0.8-0.5-1.5-0.8-2.2
							c-0.5-1.4-0.9-2.7-1.3-3.9c-0.8-2.3-1.4-4.2-1.9-5.6c-0.2-0.6-0.4-1.1-0.5-1.5c-0.1-0.4-0.2-0.5-0.1-0.6c0,0,0.1,0.2,0.2,0.5
							c0.2,0.4,0.3,0.9,0.6,1.5c0.5,1.4,1.2,3.3,2.1,5.6c0.4,1.2,0.9,2.5,1.4,3.9c0.5,1.4,0.9,2.9,2,4.2c1,1.2,2.5,2.2,4.3,2.5
							c0.8,0.2,1.8,0.1,2.7,0.1c0.9,0,1.9,0,2.8,0c1.9,0,3.8,0,5.6,0c0.9,0,1.7-0.3,2.4-0.7c0.7-0.5,1.2-1.1,1.5-1.8
							c0.3-0.7,0.4-1.5,0.3-2.3c-0.1-0.7-0.3-1.5-0.5-2.2c-0.3-1.4-0.6-2.8-0.9-4c-0.5-2.4-1-4.4-1.3-5.8c-0.1-0.6-0.2-1.2-0.3-1.6
							C124.5,142.3,124.5,142.1,124.5,142.1z"/>
					</g>
				</g>
				<g>
					<path class="st9" d="M103.3,143.2c0,0.8-0.6,1.4-1.4,1.4s-1.4-0.6-1.4-1.4s0.6-1.4,1.4-1.4S103.3,142.4,103.3,143.2z"/>
				</g>
				<g>
					<path class="st14" d="M124.3,138.4c0.1,0.6-0.7,1.1-0.7,1.8c0,1.1-0.7,2.2-1.7,2.6c-0.1,0-0.2,0.1-0.2,0.1
						c-0.5,0.4-0.6,1.1-0.7,1.7c-0.2,1.1-0.3,2.1-0.5,3.1c-0.1,0.6-0.2,1.3-0.5,1.9c-0.3,0.6-0.9,1-1.6,1c-0.9-0.1-1.5-1.1-1.7-2
						c-0.2-1.2,0.1-2.4-0.8-3.4c-0.4-0.5-1-0.7-1.6-0.5c-1.4,0.5-0.6,2.8-1.9,3.3c-0.4,0.1-0.8,0.1-1.2-0.2
						c-0.7-0.5-0.9-1.3-1.1-2.1c-0.3-1.2-0.6-2.5-0.9-3.7L124.3,138.4"/>
				</g>
			</g>
			<g>
				<circle class="st15" cx="46.4" cy="195.5" r="10.5"/>
			</g>
			<g>
				<circle class="st16" cx="79" cy="195.5" r="10.5"/>
			</g>
			<g>
				<circle class="st17" cx="111.6" cy="195.5" r="10.5"/>
			</g>
			<g>
				<circle class="st18" cx="144.2" cy="195.5" r="10.5"/>
			</g>
			<g>
				<circle class="st0" cx="176.7" cy="195.5" r="10.5"/>
			</g>
			<g class="st19">
				<circle cx="176.7" cy="195.5" r="10.5"/>
			</g>
			<g class="st20">
				<circle class="st3" cx="46.4" cy="195.5" r="10.5"/>
			</g>
			<g class="st21">
				<circle class="st16" cx="79" cy="195.5" r="10.5"/>
			</g>
			<g class="st13">
				<circle class="st18" cx="144.2" cy="195.5" r="10.5"/>
			</g>
			<g>
				<g>
					<path class="st9" d="M56.9,195.5c-0.1,0,0-0.9-0.4-2.5c-0.4-1.6-1.5-3.9-3.8-5.7c-1.2-0.9-2.7-1.6-4.3-1.9
						c-1.7-0.3-3.6-0.2-5.4,0.5c-0.9,0.3-1.8,0.8-2.6,1.4c-0.8,0.6-1.6,1.3-2.2,2.2c-1.3,1.7-2,3.8-2,6.1c0,2.2,0.7,4.4,2,6.1
						c0.6,0.9,1.3,1.6,2.2,2.2c0.8,0.6,1.7,1.1,2.6,1.4c1.8,0.7,3.7,0.8,5.4,0.5c1.7-0.3,3.2-1,4.3-1.9c2.4-1.8,3.4-4.1,3.8-5.7
						C56.9,196.4,56.9,195.5,56.9,195.5c0,0,0.1,0.9-0.2,2.6c-0.4,1.6-1.4,4-3.8,5.9c-1.2,0.9-2.7,1.7-4.5,2
						c-1.8,0.3-3.7,0.3-5.6-0.4c-1-0.3-1.9-0.8-2.7-1.4c-0.9-0.6-1.6-1.4-2.3-2.3c-1.3-1.8-2.1-4-2.1-6.4c0-2.3,0.8-4.6,2.1-6.4
						c0.6-0.9,1.4-1.7,2.3-2.3c0.8-0.6,1.8-1.1,2.7-1.4c1.9-0.7,3.9-0.8,5.6-0.4c1.8,0.3,3.3,1.1,4.5,2c2.4,1.9,3.5,4.3,3.8,5.9
						C57.1,194.5,56.9,195.5,56.9,195.5z"/>
				</g>
			</g>
			<g>
				<g>
					<path class="st9" d="M89.5,195.5c-0.1,0,0-0.9-0.4-2.5c-0.4-1.6-1.5-3.9-3.8-5.7c-1.2-0.9-2.7-1.6-4.3-1.9
						c-1.7-0.3-3.6-0.2-5.4,0.5c-0.9,0.3-1.8,0.8-2.6,1.4c-0.8,0.6-1.6,1.3-2.2,2.2c-1.3,1.7-2,3.8-2,6.1c0,2.2,0.7,4.4,2,6.1
						c0.6,0.9,1.3,1.6,2.2,2.2c0.8,0.6,1.7,1.1,2.6,1.4c1.8,0.7,3.7,0.8,5.4,0.5c1.7-0.3,3.2-1,4.3-1.9c2.4-1.8,3.4-4.1,3.8-5.7
						C89.5,196.4,89.4,195.5,89.5,195.5c0,0,0.1,0.9-0.2,2.6c-0.4,1.6-1.4,4-3.8,5.9c-1.2,0.9-2.7,1.7-4.5,2
						c-1.8,0.3-3.7,0.3-5.6-0.4c-1-0.3-1.9-0.8-2.7-1.4c-0.9-0.6-1.6-1.4-2.3-2.3c-1.3-1.8-2.1-4-2.1-6.4c0-2.3,0.8-4.6,2.1-6.4
						c0.6-0.9,1.4-1.7,2.3-2.3c0.8-0.6,1.8-1.1,2.7-1.4c1.9-0.7,3.9-0.8,5.6-0.4c1.8,0.3,3.3,1.1,4.5,2c2.4,1.9,3.4,4.3,3.8,5.9
						C89.7,194.5,89.5,195.5,89.5,195.5z"/>
				</g>
			</g>
			<g>
				<g>
					<path class="st9" d="M122.1,195.5c-0.1,0,0-0.9-0.4-2.5c-0.4-1.6-1.5-3.9-3.8-5.7c-1.2-0.9-2.7-1.6-4.3-1.9
						c-1.7-0.3-3.6-0.2-5.4,0.5c-0.9,0.3-1.8,0.8-2.6,1.4c-0.8,0.6-1.6,1.3-2.2,2.2c-1.3,1.7-2,3.8-2,6.1c0,2.2,0.7,4.4,2,6.1
						c0.6,0.9,1.3,1.6,2.2,2.2c0.8,0.6,1.7,1.1,2.6,1.4c1.8,0.7,3.7,0.8,5.4,0.5c1.7-0.3,3.2-1,4.3-1.9c2.4-1.8,3.4-4.1,3.8-5.7
						C122.1,196.4,122,195.5,122.1,195.5c0,0,0.1,0.9-0.2,2.6c-0.4,1.6-1.4,4-3.8,5.9c-1.2,0.9-2.7,1.7-4.5,2
						c-1.8,0.3-3.7,0.3-5.6-0.4c-1-0.3-1.9-0.8-2.7-1.4c-0.9-0.6-1.6-1.4-2.3-2.3c-1.3-1.8-2.1-4-2.1-6.4c0-2.3,0.8-4.6,2.1-6.4
						c0.6-0.9,1.4-1.7,2.3-2.3c0.8-0.6,1.8-1.1,2.7-1.4c1.9-0.7,3.9-0.8,5.6-0.4c1.8,0.3,3.3,1.1,4.5,2c2.4,1.9,3.4,4.3,3.8,5.9
						C122.2,194.5,122.1,195.5,122.1,195.5z"/>
				</g>
			</g>
			<g>
				<g>
					<path class="st9" d="M154.7,195.5c-0.1,0,0-0.9-0.4-2.5c-0.4-1.6-1.5-3.9-3.8-5.7c-1.2-0.9-2.6-1.6-4.4-1.9
						c-1.7-0.3-3.6-0.2-5.4,0.5c-0.9,0.3-1.8,0.8-2.6,1.4c-0.8,0.6-1.6,1.3-2.2,2.2c-1.3,1.7-2,3.8-2,6.1c0,2.2,0.7,4.4,2,6.1
						c0.6,0.9,1.4,1.6,2.2,2.2c0.8,0.6,1.7,1.1,2.6,1.4c1.8,0.7,3.7,0.8,5.4,0.5c1.7-0.3,3.2-1,4.4-1.9c2.4-1.8,3.4-4.1,3.8-5.7
						C154.6,196.4,154.6,195.5,154.7,195.5c0,0,0.1,0.9-0.2,2.6c-0.4,1.6-1.4,4-3.8,5.9c-1.2,0.9-2.7,1.7-4.5,2
						c-1.8,0.3-3.7,0.3-5.6-0.4c-1-0.3-1.9-0.8-2.7-1.4c-0.9-0.6-1.6-1.4-2.3-2.3c-1.3-1.8-2.1-4-2.1-6.4c0-2.3,0.8-4.6,2.1-6.4
						c0.6-0.9,1.4-1.7,2.3-2.3c0.9-0.6,1.8-1.1,2.7-1.4c1.9-0.7,3.9-0.8,5.6-0.4c1.8,0.3,3.3,1.1,4.5,2c2.4,1.9,3.4,4.3,3.8,5.9
						C154.8,194.5,154.7,195.5,154.7,195.5z"/>
				</g>
			</g>
			<g>
				<g>
					<path class="st9" d="M187.2,195.5c-0.1,0,0-0.9-0.4-2.5c-0.4-1.6-1.5-3.9-3.8-5.7c-1.2-0.9-2.6-1.6-4.4-1.9
						c-1.7-0.3-3.6-0.2-5.4,0.5c-0.9,0.3-1.8,0.8-2.6,1.4c-0.8,0.6-1.6,1.3-2.2,2.2c-1.3,1.7-2,3.8-2,6.1c0,2.2,0.7,4.4,2,6.1
						c0.6,0.9,1.4,1.6,2.2,2.2c0.8,0.6,1.7,1.1,2.6,1.4c1.8,0.7,3.7,0.8,5.4,0.5c1.7-0.3,3.2-1,4.4-1.9c2.4-1.8,3.4-4.1,3.8-5.7
						C187.2,196.4,187.1,195.5,187.2,195.5c0,0,0.1,0.9-0.2,2.6c-0.4,1.6-1.4,4-3.8,5.9c-1.2,0.9-2.7,1.7-4.5,2
						c-1.8,0.3-3.7,0.3-5.6-0.4c-1-0.3-1.9-0.8-2.7-1.4c-0.9-0.6-1.6-1.4-2.3-2.3c-1.3-1.8-2.1-4-2.1-6.4c0-2.3,0.8-4.6,2.1-6.4
						c0.6-0.9,1.4-1.7,2.3-2.3c0.9-0.6,1.8-1.1,2.7-1.4c1.9-0.7,3.9-0.8,5.6-0.4c1.8,0.3,3.3,1.1,4.5,2c2.4,1.9,3.4,4.3,3.8,5.9
						C187.4,194.5,187.2,195.5,187.2,195.5z"/>
				</g>
			</g>
		</g>
		<g>
			<g>
				<circle class="st8" cx="197.1" cy="125.4" r="6.4"/>
			</g>
			<g>
				<g>
					<path class="st9" d="M195,127.8c-0.1,0-0.2,0-0.3-0.1c-0.1-0.2-0.1-0.4,0-0.5l4.1-4.1c0.1-0.2,0.4-0.2,0.5,0s0.1,0.4,0,0.5
						l-4.1,4.1C195.2,127.7,195.1,127.8,195,127.8z"/>
				</g>
				<g>
					<path class="st9" d="M199.1,127.8c-0.1,0-0.2,0-0.3-0.1l-4.1-4.1c-0.1-0.2-0.1-0.4,0-0.5s0.4-0.2,0.5,0l4.1,4.1
						c0.1,0.2,0.1,0.4,0,0.5C199.3,127.7,199.2,127.8,199.1,127.8z"/>
				</g>
			</g>
		</g>
	</g>
</g>
<g id="Icons">
	<g>
		<g>
			<g>
				<path class="st10" d="M146.6,337.5L134.8,349c-1.2,1.2-3.1,1.2-4.3,0l-81.1-77.6c-1.2-1.2-1.3-3.2-0.1-4.4l12.3-12.8
					c1.2-1.3,3.2-1.3,4.4-0.1l80.6,79C147.8,334.3,147.8,336.3,146.6,337.5z"/>
			</g>
		</g>
		<g>
			<g>
				<g>
					<path class="st9" d="M71.1,259.4c0.1,0.1-1.4,1.8-3.3,3.7c-1.9,2-3.5,3.5-3.6,3.4c-0.1-0.1,1.4-1.8,3.3-3.7
						C69.3,260.8,71,259.3,71.1,259.4z"/>
				</g>
			</g>
		</g>
		<g>
			<g>
				<g>
					<path class="st9" d="M83.9,271.8c0.1,0.1-1.4,1.8-3.3,3.7s-3.5,3.5-3.6,3.4c-0.1-0.1,1.4-1.8,3.3-3.7
						C82.2,273.2,83.8,271.7,83.9,271.8z"/>
				</g>
			</g>
		</g>
		<g>
			<g>
				<g>
					<path class="st9" d="M77.2,265c0.1,0.1-1.9,2.3-4.4,4.9c-2.6,2.6-4.7,4.7-4.8,4.6c-0.1-0.1,1.9-2.3,4.4-4.9
						C75,267,77.1,264.9,77.2,265z"/>
				</g>
			</g>
		</g>
		<g>
			<g>
				<g>
					<path class="st9" d="M90.5,278.3c0.1,0.1-1.9,2.3-4.4,4.9c-2.6,2.6-4.7,4.7-4.8,4.6c-0.1-0.1,1.9-2.3,4.4-4.9
						C88.2,280.2,90.4,278.2,90.5,278.3z"/>
				</g>
			</g>
		</g>
		<g>
			<g>
				<g>
					<path class="st9" d="M96.6,284.4c0.1,0.1-1.4,1.8-3.3,3.7s-3.5,3.5-3.6,3.4c-0.1-0.1,1.4-1.8,3.3-3.7
						C94.8,285.8,96.4,284.3,96.6,284.4z"/>
				</g>
			</g>
		</g>
		<g>
			<g>
				<g>
					<path class="st9" d="M103.1,290.9c0.1,0.1-1.9,2.3-4.4,4.9c-2.6,2.6-4.7,4.7-4.8,4.6c-0.1-0.1,1.9-2.3,4.4-4.9
						C100.8,292.9,103,290.8,103.1,290.9z"/>
				</g>
			</g>
		</g>
		<g>
			<g>
				<g>
					<path class="st9" d="M109.2,297c0.1,0.1-1.4,1.8-3.3,3.7c-1.9,2-3.5,3.5-3.6,3.4c-0.1-0.1,1.4-1.8,3.3-3.8
						C107.4,298.4,109.1,296.9,109.2,297z"/>
				</g>
			</g>
		</g>
		<g>
			<g>
				<g>
					<path class="st9" d="M115.7,303.5c0.1,0.1-1.9,2.3-4.4,4.9c-2.6,2.6-4.7,4.7-4.8,4.6c-0.1-0.1,1.9-2.3,4.4-4.9
						C113.4,305.5,115.6,303.4,115.7,303.5z"/>
				</g>
			</g>
		</g>
		<g>
			<g>
				<g>
					<path class="st9" d="M121.8,309.6c0.1,0.1-1.4,1.8-3.3,3.7c-1.9,2-3.5,3.5-3.6,3.4c-0.1-0.1,1.4-1.8,3.3-3.7
						C120.1,311,121.7,309.5,121.8,309.6z"/>
				</g>
			</g>
		</g>
		<g>
			<g>
				<g>
					<path class="st9" d="M128.3,316.1c0.1,0.1-1.9,2.3-4.4,4.9c-2.6,2.6-4.7,4.7-4.8,4.6c-0.1-0.1,1.9-2.3,4.4-4.9
						C126,318.1,128.2,316,128.3,316.1z"/>
				</g>
			</g>
		</g>
		<g>
			<g>
				<g>
					<path class="st9" d="M134.4,322.2c0.1,0.1-1.4,1.8-3.3,3.7c-1.9,2-3.5,3.5-3.6,3.4c-0.1-0.1,1.4-1.8,3.3-3.7
						C132.6,323.6,134.3,322.1,134.4,322.2z"/>
				</g>
			</g>
		</g>
		<g>
			<g>
				<path class="st9" d="M106.3,288c0.3,0.5,11.3,10.6,11.3,10.6l7.2-7c0,0,12.3,3.8,20.2-4.9c4.6-5.1,5.4-11.7,5.3-15.7
					c0-2.2-0.8-4.3-2.2-6l0,0l-11.3,14l-11.2-11.2l11.8-12.2c0,0-1.2-2.9-2.6-2.9c-4.1,0.1-12,2.6-18,9.4c-7.1,8-3.4,18.6-3.4,18.6
					L106.3,288z"/>
			</g>
		</g>
		<g>
			<g>
				<path class="st22" d="M103.8,285.8l11.4,10.6l7.7-7.5c0,0,12.3,3.8,20.2-4.9c7.2-7.9,5-19.4,5-19.4l-13.2,11.7l-11.2-11.2
					l11.8-12.2c0,0-11.5-3.7-20.6,6.6c-7.1,8-3.4,18.6-3.4,18.6L103.8,285.8z"/>
			</g>
		</g>
		<g>
			<g>
				<path class="st9" d="M91.8,318.9c-0.3-0.5-11.3-10.6-11.3-10.6l-7.2,7c0,0-13.5-2.7-20.2,4.9c-5.1,5.8-7.4,13.5-7.2,17.3
					c0.1,1.7,2.1,2.1,2.1,2.1l13.2-11.7l11.2,11.2l-13.9,10.2l0,0c1.7,1.6,3.9,2.6,6.2,2.7c4.2,0.2,10.8-0.8,16.5-7.2
					c7.1-8,3.4-18.6,3.4-18.6L91.8,318.9z"/>
			</g>
		</g>
		<g>
			<g>
				<path class="st22" d="M89.7,316.8c-0.3-0.5-11.3-10.6-11.3-10.6l-7.2,7c0,0-13.5-2.7-20.2,4.9c-7.5,8.5-5,19.4-5,19.4l13.2-11.7
					L70.4,337l-11.8,12.2c0,0,11.5,3.7,20.6-6.5c7.1-8,3.4-18.6,3.4-18.6L89.7,316.8z"/>
			</g>
		</g>
	</g>
</g>
<g id="Plant">
	<g>
		<g>
			<g>
				<g>
					<path class="st10" d="M377.1,394c-3.8-2.4-8-3.8-12.5-4.3c-2-0.2-4.3-0.1-5.9,1.1c-0.4,0.3-0.7,0.6-0.6,1.1
						c0.1,0.3,0.3,0.5,0.6,0.7C363.8,396.4,371.5,396.9,377.1,394"/>
				</g>
			</g>
			<g>
				<g>
					<path class="st10" d="M376.8,393.6c-2.8-2.2-5.7-4.4-8-7.1c-2.4-2.7-4.3-5.8-5-9.3c-0.2-1.1-0.3-2.3,0.4-3.1
						C370.5,379.1,375.6,385.6,376.8,393.6"/>
				</g>
			</g>
			<g>
				<g>
					<path class="st10" d="M377,393.9c-0.5-3.5-0.7-7.1,0.1-10.6s2.7-6.8,5.6-8.7c1.1,2.6,0.6,5.6-0.1,8.3
						c-1.2,4.2-3.1,8.2-5.6,11.8"/>
				</g>
			</g>
			<g>
				<g>
					<path class="st10" d="M383.3,405.2c-3.8,0.5-7.1,2.5-10,5.1c-2.9,2.6-4.9,6.1-5.7,9.8c3.7-0.2,6.9-2.9,9.2-5.8
						C379.2,411.3,380.8,408,383.3,405.2"/>
				</g>
			</g>
			<g>
				<g>
					<path class="st10" d="M384.7,407c-3.1-7.6-2-16.7,2.9-23.3C389.7,391.4,388.9,400.1,384.7,407"/>
				</g>
			</g>
			<g>
				<g>
					<path class="st10" d="M393,416.9c-3.5-0.2-7,0.6-10,2.3s-5.5,4.4-7,7.5c-0.2,0.4-0.4,1-0.1,1.3c0.3,0.3,0.7,0.4,1.1,0.3
						c3.4-0.2,6.3-2.2,8.8-4.5C388.2,421.5,390.4,418.9,393,416.9"/>
				</g>
			</g>
			<g>
				<g>
					<path class="st10" d="M392.8,416.4c-1.8-5.7-1.9-12-0.3-17.7c0.6-2.3,1.7-4.7,3.8-5.8c0.2-0.1,0.4-0.2,0.6-0.1
						c0.2,0.1,0.3,0.3,0.4,0.4c0.8,1.6,1,3.4,0.9,5.1s-0.4,3.5-0.8,5.1c-0.7,3.1-1,6.5-2.7,9.2c-0.4,0.6-0.8,1.3-1.1,2
						c-0.3,0.7-0.3,0.9-0.6,1.5"/>
				</g>
			</g>
			<g>
				<g>
					<path class="st10" d="M414.8,419.6c-1.6-6.2,0.1-13.7,4-18.8c0.3-0.4,0.7-0.8,1.1-0.7c0.7,0.1,0.9,1,0.9,1.8
						C420.5,408.2,418.4,414.4,414.8,419.6"/>
				</g>
			</g>
			<g>
				<g>
					<path class="st10" d="M416.7,421c7.5,2,16.2,0,22.4-4.6c-3.7-1.9-8.1-2.4-12.1-1.5C423,415.9,419.3,417.7,416.7,421"/>
				</g>
			</g>
			<g>
				<g>
					<path class="st10" d="M418.4,416.9c4.2-6.9,12.3-11.4,20.4-11.8c-0.9,3.3-3.6,5.8-6.7,7.4c-3,1.5-6.4,2.2-9.8,2.9
						C421,415.5,419.3,415.8,418.4,416.9"/>
				</g>
			</g>
			<g>
				<g>
					<path class="st10" d="M415.2,396.8c1.1-3.9,2.3-7.9,2.6-11.9c0.3-4.1-0.3-8.3-2.4-11.8c-3.9,7.6-4.3,16.5-0.4,24.1"/>
				</g>
			</g>
			<g>
				<g>
					<path class="st10" d="M428.4,390.1c4.6-8.4,14-15.1,23.5-16C448.3,383.3,438.3,390.3,428.4,390.1"/>
				</g>
			</g>
			<g>
				<g>
					<path class="st10" d="M425.5,391.8c6.9,1,12.7,5.4,19.1,8.1c1.4,0.6,2.9,1,4.3,0.8c1.5-0.2,2.9-1.2,3.3-2.6
						c0.3-1.2-0.3-2.5-1.1-3.4c-0.9-0.9-2-1.4-3.1-1.9c-7-2.9-14.5-3-21.9-1.2"/>
				</g>
			</g>
			<g>
				<g>
					<path class="st10" d="M421.6,396.6c1.6,0.5,2.1,1.3,3.3,2.3c4.2,3.6,9.2,6.1,14.5,7.5c0.5,0.1,1.3,0.2,1.6-0.3
						c0.2-0.4-0.1-1-0.4-1.4c-2.2-2.8-5.4-4.7-8.8-6c-3.4-1.3-6.3-2.8-10.3-2.4"/>
				</g>
			</g>
			<g>
				<g>
					<path class="st10" d="M417.1,367.5c5.6,5.2,13.5,7.9,21.1,7.2c0.4,0,0.7-0.1,1-0.3c0.5-0.6-0.1-1.5-0.7-2
						C432.2,367.5,424.7,365.5,417.1,367.5"/>
				</g>
			</g>
			<g>
				<g>
					<path class="st10" d="M422.4,365.5c7.4-5.5,17.5-7.2,26.3-4.3c-3.3,3.3-7.9,5-12.5,5.5C431.5,367.2,426.9,366.6,422.4,365.5"/>
				</g>
			</g>
			<g>
				<g>
					<path class="st10" d="M420.3,352.1c-0.6-6.2-0.2-11.1-0.6-17.3c0-0.5-0.1-1.1-0.6-1.3c-0.6-0.3-1.2,0.5-1.4,1.2
						c-1.8,5.7-0.8,12.3,2.6,17.2"/>
				</g>
			</g>
			<g>
				<g>
					<path class="st10" d="M419.8,352.8c4.2-2.6,7.3-6,10.2-10c2-2.8,3.7-6.1,3.3-9.5c-2.8-0.1-5.5,1.5-7.4,3.7s-3,4.9-3.8,7.6
						C421.4,347.4,420.8,350.2,419.8,352.8"/>
				</g>
			</g>
			<g>
				<g>
					<path class="st10" d="M429.9,350c9.2-3.4,17.8-8.5,25.2-14.9c-3-1.2-6.5-0.5-9.5,0.7c-6.9,2.8-12.5,7.5-15.9,14.1"/>
				</g>
			</g>
			<g>
				<g>
					<path class="st10" d="M422.7,356.2c4.6,0.5,9.4,0.8,14,0.1c4.5-0.8,8.8-2.6,13.1-4.3c0.4-0.1,0.7-0.3,0.9-0.7
						c0.2-0.4,0-0.8-0.3-1.1s-0.7-0.4-1.1-0.5c-4.6-1.3-9.6-0.7-14.1,0.8C430.5,352,426.8,353.8,422.7,356.2"/>
				</g>
			</g>
			<g>
				<g>
					<path class="st10" d="M396.1,367.7c-3.2-6.4-3-13.9-0.2-20.5c1.9,2.9,2.2,6.7,1.8,10.2c-0.4,3.5-1.4,7.1-1.5,10.6"/>
				</g>
			</g>
			<g>
				<g>
					<path class="st10" d="M383.4,361.3c-7.9-0.1-15.9,3.2-21.2,9c4,0.6,8-0.4,11.6-2.2s6.8-4.2,10-6.7"/>
				</g>
			</g>
			<g>
				<g>
					<path class="st10" d="M374.9,358.4c-3.9-0.3-7.6-0.8-11.3,0.4s-7.1,3.7-8.6,7.3c3.6,0.4,7.3-0.5,10.6-2
						C368.9,362.6,371.9,360.5,374.9,358.4"/>
				</g>
			</g>
			<g>
				<g>
					<path class="st10" d="M387.5,358.6c-3.5-2.3-7.1-4.6-11.1-5.6s-8.8-0.3-11.6,2.8c3.3,1.9,7.3,2.2,11.1,2.1
						c3.8,0,8.5,0,12.1,1.2"/>
				</g>
			</g>
			<g>
				<g>
					<path class="st10" d="M387.5,358.8c-6-5.9-8.2-16.4-5.8-24.4C386.4,341.5,388.5,350.3,387.5,358.8"/>
				</g>
			</g>
			<g>
				<g>
					<path class="st10" d="M403.9,342.2c1.1-2.6,1.9-5.4,2.9-8c1-2.7,2.3-5.3,4.2-7.4s4.5-3.7,7.4-3.8c-1.8,8.1-7.1,15.3-14.3,19.3"
						/>
				</g>
			</g>
			<g>
				<g>
					<path class="st10" d="M401,345.6c-1.9-2.6-4-6-6.5-8s-5.8-3.1-8.9-2.3C388.7,340.9,394.6,344.9,401,345.6"/>
				</g>
			</g>
			<g>
				<g>
					<path class="st10" d="M401.5,342.4c-1.2-3.1-2.5-6.2-2.9-9.5c-0.5-3.3-0.2-6.8,1.5-9.7c3.3,6.2,4.3,12.8,1.6,19.3"/>
				</g>
			</g>
			<g>
				<g>
					<path class="st10" d="M404,323.2c1.9-6.1,7.5-10.6,13.5-12.7c0.8-0.3,1.6-0.5,2.4-0.4s1.6,0.7,1.8,1.5c0.2,1-0.6,2-1.5,2.7
						C415.4,318.3,409.9,321.3,404,323.2"/>
				</g>
			</g>
			<g>
				<g>
					<path class="st10" d="M404,318.1c0.2-4,0.5-8,1.8-11.7c1.3-3.8,3.8-7.3,7.4-8.9c0.6,4-1.1,8-3.3,11.4c-2.1,3.4-4.7,6.7-6,10.5"
						/>
				</g>
			</g>
			<g>
				<g>
					<path class="st10" d="M403.9,320.9c-1.5-4.5-1.7-10.1-4.4-14c-1.9-2.7-4.9-4.6-6.5-7.5c-1.1,2.7-0.7,5.8,0.4,8.5s3,5,5,7.1
						C400.4,317,402.1,318.6,403.9,320.9"/>
				</g>
			</g>
			<g>
				<g>
					<g>
						<path class="st9" d="M404,452.5c-0.1,0-0.2-29.8-0.2-66.6c0-36.8,0.1-66.6,0.2-66.6c0.1,0,0.2,29.8,0.2,66.6
							C404.2,422.7,404.1,452.5,404,452.5z"/>
					</g>
				</g>
			</g>
			<g>
				<g>
					<g>
						<path class="st9" d="M430,363.2c0,0-0.4,0.2-1.1,0.4c-0.8,0.3-1.8,0.6-3.1,1c-2.6,0.9-6.2,2.2-10,3.8c-3.8,1.6-7.5,3-9.5,4.8
							c-1,0.9-1.6,1.8-1.9,2.5c-0.3,0.7-0.4,1.1-0.4,1.1c0,0,0-0.1,0-0.3c0-0.2,0.1-0.5,0.2-0.9c0.3-0.7,0.8-1.8,1.9-2.7
							c1-1,2.5-1.8,4.1-2.6c1.6-0.8,3.5-1.6,5.4-2.4c3.9-1.6,7.5-2.8,10.1-3.6c1.3-0.4,2.4-0.7,3.1-0.9
							C429.6,363.3,430,363.1,430,363.2z"/>
					</g>
				</g>
			</g>
			<g>
				<g>
					<g>
						<path class="st9" d="M438.6,342.2c0,0-0.1,0.1-0.3,0.3c-0.3,0.2-0.6,0.5-1,0.9c-0.9,0.8-2.1,1.9-3.6,3.3
							c-3.1,2.8-7.3,6.5-11.9,10.6c-4.6,4.1-8.6,8.1-11.4,11c-1.4,1.5-2.5,2.7-3.2,3.6c-0.4,0.4-0.6,0.7-0.9,1
							c-0.2,0.2-0.3,0.3-0.3,0.3s0.1-0.1,0.3-0.4c0.2-0.2,0.4-0.6,0.8-1c0.7-0.9,1.8-2.2,3.1-3.7c2.7-3,6.7-7,11.4-11.2
							c4.7-4.1,8.9-7.8,12-10.5c1.5-1.3,2.8-2.4,3.7-3.1c0.4-0.3,0.7-0.6,1-0.8C438.4,342.3,438.5,342.2,438.6,342.2z"/>
					</g>
				</g>
			</g>
			<g>
				<g>
					<g>
						<path class="st9" d="M416.8,361.5c-0.1,0,0.9-2.3,1.8-5.1c1-2.8,1.4-5.2,1.6-5.2c0.1,0-0.2,2.5-1.1,5.3
							c-0.5,1.4-1,2.7-1.4,3.6C417.2,361,416.9,361.5,416.8,361.5z"/>
					</g>
				</g>
			</g>
			<g>
				<g>
					<g>
						<path class="st9" d="M404,379.5c0,0-0.3-0.3-0.7-0.8c-0.5-0.6-1.1-1.4-1.8-2.4c-1.5-2-3.7-4.7-6-7.7c-2.4-3-4.6-5.7-6.2-7.6
							c-0.8-0.9-1.4-1.7-1.9-2.3c-0.4-0.5-0.7-0.9-0.6-0.9c0,0,0.3,0.3,0.8,0.8c0.5,0.5,1.1,1.3,2,2.2c1.6,1.9,3.9,4.6,6.3,7.6
							c2.4,3,4.5,5.8,6,7.8c0.7,1,1.3,1.9,1.7,2.4C403.8,379.2,404,379.5,404,379.5z"/>
					</g>
				</g>
			</g>
			<g>
				<g>
					<g>
						<path class="st9" d="M398.3,372.2c-0.1,0.1-1.6-1.7-2.4-4.5c-0.6-1.9-0.6-3.7-0.5-4.5l0.2,0c-0.1,0.4-0.1,0.5-0.2,0.5
							s0-0.2,0-0.5l0.2,0c0.1,0.8,0.2,2.5,0.8,4.4C397.1,370.2,398.4,372.1,398.3,372.2z"/>
					</g>
				</g>
			</g>
			<g>
				<g>
					<g>
						<path class="st9" d="M390.9,362.9c-0.1,0.1-0.5-0.6-1.7-1c-1.1-0.4-2.8-0.5-4.6-0.4c-1.9,0.1-3.5,0.5-4.7,0.8
							c-1.2,0.3-1.9,0.5-1.9,0.5c0,0,0.7-0.4,1.8-0.8c1.2-0.4,2.8-0.8,4.7-0.9c1.9-0.2,3.6,0,4.8,0.5
							C390.5,362.2,390.9,362.9,390.9,362.9z"/>
					</g>
				</g>
			</g>
			<g>
				<g>
					<g>
						<path class="st9" d="M389.1,360.6c0,0.1-1-0.4-2.6-0.9c-1.6-0.5-3.8-1.1-6.4-1.3c-2.5-0.2-4.9,0-6.5,0.3
							c-1.6,0.3-2.6,0.6-2.7,0.5c0,0,0.2-0.1,0.7-0.3c0.4-0.2,1.1-0.4,1.9-0.5c1.6-0.4,4-0.7,6.6-0.5c2.6,0.2,4.9,0.8,6.5,1.5
							c0.8,0.3,1.4,0.6,1.8,0.8C388.9,360.5,389.2,360.6,389.1,360.6z"/>
					</g>
				</g>
			</g>
			<g>
				<g>
					<g>
						<path class="st9" d="M403.9,351.1c-0.1,0-1-2.9-1.9-6.5c-0.9-3.6-1.6-6.6-1.5-6.6c0.1,0,1,2.9,1.9,6.5
							C403.4,348.2,404,351.1,403.9,351.1z"/>
					</g>
				</g>
			</g>
			<g>
				<g>
					<g>
						<path class="st9" d="M404,351.1c-0.1,0-0.7-1.9-2.1-3.9c-1.4-2-3.1-3-3-3.1c0,0,0.5,0.1,1.2,0.6c0.7,0.5,1.5,1.3,2.2,2.3
							C403.8,349.1,404.1,351.1,404,351.1z"/>
					</g>
				</g>
			</g>
			<g>
				<g>
					<g>
						<path class="st9" d="M404,436.6c0,0-0.1-0.7-0.5-2c-0.3-1.3-1-3.1-2-5.2c-2.1-4.2-5.8-9.5-10.6-14.9c-2.4-2.7-4.6-5.2-6.6-7.7
							c-2-2.4-3.5-4.8-4.7-6.8s-1.9-3.8-2.4-5c-0.2-0.6-0.4-1.1-0.5-1.4c-0.1-0.3-0.1-0.5-0.1-0.5c0,0,0.3,0.7,0.8,1.9
							c0.5,1.2,1.3,2.9,2.5,5c1.2,2,2.8,4.3,4.8,6.7s4.2,4.9,6.6,7.6c4.8,5.4,8.5,10.8,10.5,15c1,2.1,1.6,4,1.9,5.3
							c0.1,0.6,0.2,1.1,0.3,1.5C404,436.4,404,436.6,404,436.6z"/>
					</g>
				</g>
			</g>
			<g>
				<g>
					<g>
						<path class="st9" d="M427.5,410c0,0-0.4,0.3-1.2,0.7c-0.8,0.4-1.9,1.1-3.2,2.1s-2.7,2.3-4.2,3.8c-1.5,1.6-3,3.4-4.5,5.3
							c-3.1,3.9-6,7.3-7.7,10.1c-0.9,1.4-1.5,2.5-1.9,3.3c-0.4,0.8-0.6,1.3-0.7,1.2c0,0,0-0.1,0.1-0.4c0.1-0.2,0.2-0.6,0.4-1
							c0.4-0.8,1-2,1.8-3.4c1.7-2.8,4.6-6.3,7.7-10.2c1.5-1.9,3.1-3.8,4.6-5.3s3-2.8,4.3-3.8c1.3-1,2.5-1.6,3.3-2
							c0.4-0.2,0.7-0.3,1-0.4C427.4,410,427.5,410,427.5,410z"/>
					</g>
				</g>
			</g>
			<g>
				<g>
					<g>
						<path class="st9" d="M428,418.6c0,0.1-1,0.2-2.6,0.4c-1.6,0.2-3.8,0.5-6.2,1.2c-2.3,0.8-4.3,1.9-5.5,2.9
							c-1.3,1-1.9,1.8-1.9,1.8c0,0,0.1-0.2,0.4-0.6c0.3-0.4,0.7-0.9,1.4-1.4c1.2-1.1,3.2-2.3,5.6-3.1c2.4-0.8,4.7-1,6.3-1.1
							C427,418.6,428,418.6,428,418.6z"/>
					</g>
				</g>
			</g>
			<g>
				<g>
					<g>
						<path class="st9" d="M412.5,424c-0.1-0.1,1-1.9,2-4.3c0.9-2.4,1.1-4.6,1.2-4.5c0.1,0,0,0.5,0,1.4c-0.1,0.9-0.3,2-0.8,3.3
							c-0.5,1.3-1,2.3-1.5,3C412.8,423.6,412.5,424,412.5,424z"/>
					</g>
				</g>
			</g>
			<g>
				<g>
					<g>
						<path class="st9" d="M435.1,386.9c0,0-0.1,0.1-0.4,0.2c-0.3,0.1-0.7,0.3-1.2,0.6c-0.5,0.2-1.2,0.5-1.9,0.9
							c-0.7,0.4-1.6,0.8-2.5,1.3c-0.5,0.3-0.9,0.5-1.4,0.8c-0.5,0.3-1,0.6-1.5,1c-1,0.6-2.1,1.4-3.2,2.2c-2.2,1.7-4.5,3.6-6.7,5.9
							c-2.2,2.3-4.1,4.7-5.7,6.9c-0.8,1.1-1.5,2.2-2.1,3.3c-0.3,0.5-0.6,1-0.9,1.5s-0.5,1-0.8,1.5c-0.5,0.9-0.9,1.8-1.2,2.5
							c-0.4,0.8-0.6,1.4-0.8,2c-0.2,0.5-0.4,0.9-0.5,1.2c-0.1,0.3-0.2,0.4-0.2,0.4c0,0,0-0.2,0.1-0.5c0.1-0.3,0.3-0.8,0.4-1.3
							c0.2-0.6,0.4-1.2,0.8-2c0.3-0.8,0.7-1.6,1.2-2.6c0.2-0.5,0.5-1,0.7-1.5c0.3-0.5,0.6-1,0.9-1.5c0.6-1.1,1.3-2.2,2.1-3.3
							c1.6-2.3,3.5-4.7,5.7-7c2.2-2.3,4.6-4.3,6.8-5.9c1.1-0.8,2.2-1.6,3.3-2.2c0.5-0.3,1-0.6,1.5-0.9c0.5-0.3,1-0.5,1.5-0.8
							c0.9-0.5,1.8-0.9,2.5-1.3c0.8-0.4,1.4-0.6,2-0.9c0.5-0.2,0.9-0.4,1.3-0.5C435,386.9,435.1,386.8,435.1,386.9z"/>
					</g>
				</g>
			</g>
			<g>
				<g>
					<g>
						<path class="st9" d="M416.5,399.3c0,0,0.2-0.7,1-1.5c0.8-0.8,2.4-1.5,4.1-1.6c1.8,0,3.3,0.5,4.3,0.9c1,0.4,1.7,0.8,1.6,0.8
							c0,0.1-0.7-0.2-1.7-0.5c-1.1-0.3-2.6-0.8-4.2-0.7c-1.7,0-3.1,0.7-3.9,1.4C416.9,398.7,416.6,399.4,416.5,399.3z"/>
					</g>
				</g>
			</g>
			<g>
				<g>
					<g>
						<path class="st9" d="M413.7,402.2c-0.1-0.1,0.9-1.6,1.2-3.8c0.3-2.2-0.4-4-0.3-4c0,0,0.3,0.4,0.5,1.1c0.2,0.7,0.3,1.8,0.2,2.9
							c-0.1,1.1-0.5,2.1-0.9,2.8C414.1,401.9,413.8,402.2,413.7,402.2z"/>
					</g>
				</g>
			</g>
		</g>
		<g>
			<g>
				<path class="st22" d="M383.4,440.9c0.6,11.4,4.1,23,9.4,34.7h23c5-11.6,8.2-23.2,8.8-34.7H383.4z"/>
			</g>
		</g>
		<g>
			<g>
				<g>
					<path class="st7" d="M420.8,459.3c0,0.1-7.6,0.2-16.9,0.2s-16.9-0.1-16.9-0.2s7.6-0.2,16.9-0.2
						C413.2,459.1,420.8,459.2,420.8,459.3z"/>
				</g>
			</g>
		</g>
		<g>
			<g>
				<g>
					<path class="st7" d="M420.3,463.5c0,0.1-7.1,0.2-15.8,0.2c-8.8,0-15.8-0.1-15.8-0.2s7.1-0.2,15.8-0.2S420.3,463.3,420.3,463.5z
						"/>
				</g>
			</g>
		</g>
		<g>
			<g>
				<g>
					<path class="st7" d="M393.1,448.4c0.1,0,0.2,2.4,0.2,5.3s-0.1,5.3-0.2,5.3s-0.2-2.4-0.2-5.3C392.9,450.7,393,448.4,393.1,448.4
						z"/>
				</g>
			</g>
		</g>
		<g>
			<g>
				<g>
					<path class="st7" d="M405.4,448.4c0.1,0,0.2,2.5,0.2,5.5s-0.1,5.5-0.2,5.5s-0.2-2.5-0.2-5.5
						C405.2,450.8,405.3,448.4,405.4,448.4z"/>
				</g>
			</g>
		</g>
		<g>
			<g>
				<g>
					<path class="st7" d="M417,448.3c0.1,0,0.2,2.5,0.2,5.6s-0.1,5.6-0.2,5.6s-0.2-2.5-0.2-5.6C416.7,450.8,416.8,448.3,417,448.3z"
						/>
				</g>
			</g>
		</g>
		<g>
			<g>
				<g>
					<path class="st7" d="M423.8,448.4c0,0.1-8.9,0.2-19.8,0.2s-19.8-0.1-19.8-0.2s8.9-0.2,19.8-0.2
						C414.9,448.1,423.8,448.2,423.8,448.4z"/>
				</g>
			</g>
		</g>
	</g>
</g>
<g id="Character">
	<g>
		<g>
			<path class="st23" d="M252,178.1c0,0-3.1-2.4-4.7-6.2c-1.6-3.8-2.8-12-2.8-12s0.4-9.7,1.2-10c0.8-0.4,1.7,0,1.7,1.4
				c0,1.4,1,7.6,1,7.6s1.6-0.9,2.5-0.1s1.1,1.4,1.1,1.4s1.6-0.7,2.6-0.4c1,0.3,1.6,0.8,1.6,0.8s0.7-0.6,1.7,0c1,0.7,1.6,1.6,1.6,1.6
				s0.6,4.4,0.2,5.5c-0.5,1.2-1.1,2.7-1.1,2.7l0.4,1.7l2.9,2.4L252,178.1z"/>
		</g>
		<g>
			<g>
				<g>
					<g>
						<g>
							<g>
								<polygon class="st24" points="219,449.2 215.3,476.2 200.7,474.6 204.3,447.5 								"/>
							</g>
						</g>
					</g>
				</g>
				<g>
					<g>
						<g>
							<g>
								<g>
									<path class="st9" d="M208.3,474.4c-0.1,0,0.6-5.9,1.7-13.2s2-13.2,2.2-13.1c0.1,0-0.6,5.9-1.7,13.2
										C209.3,468.5,208.4,474.4,208.3,474.4z"/>
								</g>
							</g>
						</g>
					</g>
				</g>
				<g>
					<g>
						<g>
							<g>
								<polygon class="st9" points="215.6,474.4 201,472.7 200.7,474.6 215.3,476.2 								"/>
							</g>
						</g>
					</g>
				</g>
				<g>
					<g>
						<g>
							<g>
								<g>
									<path class="st9" d="M201.9,465.9c0,0,0.1-0.2,0.4-0.5c0.3-0.3,0.8-0.8,1.5-1.2c0.7-0.5,1.5-0.9,2.6-1.3
										c1-0.3,2.3-0.5,3.5-0.3c2.5,0.4,4.5,1.9,5.3,3.3c0.5,0.7,0.7,1.3,0.9,1.7c0.1,0.4,0.2,0.7,0.1,0.7c-0.1,0-0.3-1-1.2-2.2
										c-0.9-1.3-2.8-2.7-5.1-3c-2.4-0.3-4.5,0.6-5.8,1.4C202.6,465.3,201.9,466,201.9,465.9z"/>
								</g>
							</g>
						</g>
					</g>
				</g>
				<g class="st25">
					<polygon points="217.5,460 217.1,462.7 202.5,461.4 202.8,458.6 					"/>
				</g>
			</g>
			<g>
				<g>
					<g>
						<g>
							<g>
								<polygon class="st24" points="247,451.2 245.4,477 231.4,476.5 233,450.6 								"/>
							</g>
						</g>
					</g>
				</g>
				<g>
					<g>
						<g>
							<g>
								<g>
									<path class="st9" d="M238.6,475.8c-0.1,0,0.2-5.7,0.7-12.6c0.5-7,1-12.6,1.1-12.6c0.1,0-0.2,5.7-0.7,12.6
										C239.2,470.1,238.7,475.8,238.6,475.8z"/>
								</g>
							</g>
						</g>
					</g>
				</g>
				<g>
					<g>
						<g>
							<g>
								<polygon class="st9" points="245.5,475.3 231.6,474.6 231.4,476.5 245.4,477 								"/>
							</g>
						</g>
					</g>
				</g>
				<g>
					<g>
						<g>
							<g>
								<g>
									<path class="st9" d="M231.9,468.2c0,0,0.1-0.2,0.4-0.5c0.3-0.3,0.7-0.8,1.3-1.2s1.4-1,2.4-1.4c0.9-0.4,2.1-0.6,3.3-0.5
										c2.4,0.2,4.4,1.5,5.3,2.7c0.5,0.6,0.8,1.2,0.9,1.6c0.1,0.4,0.2,0.6,0.2,0.6c-0.1,0-0.4-0.9-1.3-2c-0.9-1.1-2.8-2.3-5.1-2.5
										c-2.3-0.2-4.2,0.9-5.4,1.7C232.6,467.5,232,468.3,231.9,468.2z"/>
								</g>
							</g>
						</g>
					</g>
				</g>
				<g class="st25">
					<polygon points="246.4,461.7 246.2,464 232.2,463.7 232.3,461.4 					"/>
				</g>
			</g>
			<g>
				<path class="st26" d="M193,310c-0.4,0-1,15.6-0.7,22.1c0.4,6.5,10.4,58.6,10.4,58.6s-1.6,12.4-2.4,23.6c-0.2,3,0.7,44,0.7,44
					l16.7,3c0,0,8.4-60.7,8.7-69.1c0.4-8.4,1.2-62.4,1.2-62.4s2.7,49.8,2.7,58.2s-0.1,73.1-0.1,73.1s12.4,1.9,18.3,0.4
					c0,0,4.1-54.9,5.8-70.9c1.5-14.9,7.9-65.2,7.9-65.2s-1.3,18.5,0,0c1-15.5-1.4-30.9-1.4-30.9l-48.5-6.1L193,310z"/>
			</g>
			<g>
				<g>
					<path class="st27" d="M281.6,208.8c-3.8-10.6-11-21.9-16.3-32.2c-1-1.9-2.7-4.7-2.7-4.7l-14.3,6.9c0,0,7.7,16.3,11.8,22.4
						c-2.5-2.1-12-9.8-15.2-9.4l6.3,32.5c0,0,8.8,4.7,14,6.4c6.2,2,13.4,2.9,16.4-1.5C284.2,225.4,283.7,214.6,281.6,208.8z"/>
				</g>
				<g>
					<path class="st27" d="M181.2,206.1c0,0-26.4,45.1-26.5,52.3c-0.2,12.8,34.4,20.9,34.4,20.9l6.6-12.5l-18.3-12.7l13.5-29.3
						L181.2,206.1z"/>
				</g>
				<g>
					<path class="st27" d="M252,264.1c0,0-0.2-55.5-0.9-60.1c-0.7-4.6-1.2-9.9-3.8-11.7c-5.9-3.9-39.7,1.1-39.7,1.1s-8.4,2.1-16,3
						c-7.5,0.9-11.3,11.5-11.3,11.5c-1.9,4.9,20.6,59.9,21.1,62.1c1.2,4.9-13,32.4-9.4,45.4c0,0,15.3-1.6,33.8-3
						c19.9-1.5,37.8-2.5,37.8-3.5C263.7,294.8,252,264.1,252,264.1z"/>
				</g>
				<g>
					<path class="st9" d="M231.7,264.1c0,0-0.2,0.4-0.6,1.1c-0.4,0.7-1.1,1.7-2,2.9c-1.8,2.4-4.6,5.5-8.1,8.3
						c-3.5,2.9-7.1,5-9.7,6.3c-1.3,0.7-2.4,1.1-3.2,1.4c-0.8,0.3-1.2,0.5-1.2,0.4s0.4-0.2,1.1-0.6c0.8-0.3,1.8-0.9,3.1-1.6
						c2.6-1.4,6.1-3.5,9.6-6.4c3.5-2.9,6.2-5.9,8.1-8.2c0.9-1.1,1.6-2.1,2.1-2.8C231.4,264.5,231.7,264.1,231.7,264.1z"/>
				</g>
				<g>
					<g>
						<path class="st9" d="M252,264.1c0,0,0-0.2-0.1-0.6c0-0.4,0-1-0.1-1.6c0-1.5-0.1-3.5-0.1-5.9c0-5-0.1-11.9-0.1-19.4
							c-0.1-7.6-0.1-14.4-0.2-19.4c-0.1-2.4-0.1-4.4-0.2-5.9c0-0.6,0-1.2-0.1-1.6c0-0.4,0-0.6,0-0.6s0.1,0.2,0.1,0.6
							c0,0.4,0.1,0.9,0.1,1.6c0.1,1.4,0.2,3.4,0.3,5.9c0.2,5,0.3,11.8,0.4,19.4s0,14.4,0,19.4c0,2.4-0.1,4.4-0.1,5.9
							c0,0.6,0,1.2,0,1.6C252.1,264,252.1,264.1,252,264.1z"/>
					</g>
				</g>
				<g>
					<g>
						<path class="st9" d="M189.8,239.9c-0.1,0.1-2.3-5.2-4.7-11.6s-4.4-11.8-4.2-11.8c0.1-0.1,2.3,5.2,4.7,11.6
							C188,234.5,189.9,239.8,189.8,239.9z"/>
					</g>
				</g>
				<g>
					<g>
						<path class="st3" d="M248.8,193.2c0,0-0.2,0.1-0.7,0.2c-0.5,0.1-1.2,0.2-2.1,0.4c-1.8,0.3-4.4,0.8-7.6,1.3
							c-6.4,1.1-15.1,2.9-24.8,5.1c-9.6,2.3-18.2,4.7-24.4,6.5c-3.1,0.9-5.6,1.7-7.4,2.2c-0.8,0.3-1.5,0.4-2,0.6
							c-0.5,0.1-0.7,0.2-0.7,0.2c0,0,0.2-0.1,0.7-0.3c0.5-0.2,1.1-0.4,2-0.7c1.7-0.6,4.2-1.4,7.3-2.4c6.2-1.9,14.8-4.4,24.4-6.6
							c9.6-2.3,18.4-3.9,24.8-5c3.2-0.5,5.8-0.9,7.6-1.2c0.9-0.1,1.5-0.2,2.1-0.3C248.5,193.2,248.8,193.2,248.8,193.2z"/>
					</g>
				</g>
				<g>
					<g>
						<path class="st3" d="M251.6,219.1c0,0-0.2,0.1-0.6,0.2c-0.5,0.1-1.1,0.3-1.9,0.4c-1.7,0.4-4.1,0.9-6.9,1.5
							c-5.9,1.2-14,2.8-22.9,4.4c-9,1.6-17.1,3-23.1,3.9c-2.9,0.4-5.3,0.8-7,1.1c-0.8,0.1-1.4,0.2-1.9,0.3c-0.4,0.1-0.7,0.1-0.7,0.1
							s0.2-0.1,0.7-0.2c0.5-0.1,1.1-0.2,1.9-0.4c1.7-0.3,4.1-0.7,7-1.2c5.9-1,14-2.4,23-4.1c9-1.6,17.1-3.2,23-4.3
							c2.9-0.6,5.3-1,7-1.3c0.8-0.1,1.4-0.3,1.9-0.3C251.3,219.1,251.6,219.1,251.6,219.1z"/>
					</g>
				</g>
				<g>
					<g>
						<path class="st3" d="M251.6,249.2c0,0-0.2,0.1-0.6,0.1c-0.4,0.1-0.9,0.2-1.6,0.3c-1.4,0.2-3.4,0.6-5.8,0.9
							c-4.9,0.7-11.8,1.6-19.3,2.6c-7.5,0.9-14.3,1.8-19.3,2.4c-2.4,0.3-4.4,0.6-5.9,0.8c-0.6,0.1-1.2,0.1-1.6,0.2
							c-0.4,0-0.6,0-0.6,0s0.2-0.1,0.6-0.1c0.4-0.1,0.9-0.2,1.6-0.3c1.4-0.2,3.4-0.6,5.8-0.9c4.9-0.7,11.8-1.6,19.3-2.6
							c7.5-0.9,14.3-1.8,19.3-2.4c2.4-0.3,4.4-0.6,5.9-0.8c0.6-0.1,1.2-0.1,1.6-0.2C251.4,249.2,251.6,249.2,251.6,249.2z"/>
					</g>
				</g>
				<g class="st25">
					<g>
						<path d="M217.1,195.8c-1.5-2.6-3.4-4.9-5.1-7.3s-3.3-5.1-3.8-8c-0.1-0.4-0.1-0.8-0.4-1.1c-0.4-0.5-1.2-0.6-1.8-0.5
							c-1.2,0.3-2.2,1.3-2.7,2.4s-0.7,2.4-0.7,3.7c-0.1,3.6,0.4,7.1,1.6,10.5c1.2,3.3,2.9,6.4,3.4,9.9c0.5,3.5-0.4,7-0.6,10.5
							c-0.1,4.7,1.2,9.2,2.5,13.7c4.4-5.1,6.4-11.9,5-18.4c2.8-1,4.6-3.9,4.9-6.9C219.6,201.4,218.6,198.4,217.1,195.8z"/>
					</g>
				</g>
				<g>
					<g>
						<path class="st3" d="M215.6,279.5c0,0.1-3.6,0.2-8.1,0.2c-4.4,0-8.1-0.2-8.1-0.3c0-0.1,3.6-0.2,8.1-0.2
							C212,279.3,215.6,279.4,215.6,279.5z"/>
					</g>
				</g>
				<g>
					<g>
						<path class="st3" d="M254.7,272.4c0,0-0.5,0.1-1.4,0.2c-1,0.1-2.2,0.3-3.7,0.4c-3.1,0.3-7.5,0.8-12.2,1.4
							c-4.8,0.6-9.1,1.2-12.2,1.7c-1.5,0.2-2.7,0.4-3.7,0.5c-0.9,0.1-1.4,0.2-1.4,0.1c0,0,0.5-0.1,1.3-0.3s2.1-0.4,3.7-0.7
							c3.1-0.5,7.4-1.2,12.2-1.8c4.8-0.6,9.1-1,12.3-1.3c1.6-0.1,2.8-0.2,3.7-0.3C254.3,272.4,254.7,272.3,254.7,272.4z"/>
					</g>
				</g>
				<g>
					<g>
						<path class="st3" d="M262.9,301.5c0,0-0.2,0.1-0.7,0.1c-0.5,0.1-1.2,0.2-2.1,0.3c-1.8,0.3-4.4,0.7-7.6,1.1
							c-6.4,0.9-15.3,2-25.1,3c-9.8,1-18.7,1.8-25.2,2.2c-3.2,0.2-5.8,0.4-7.6,0.5c-0.9,0-1.6,0.1-2.1,0.1c-0.5,0-0.7,0-0.7,0
							s0.3,0,0.7-0.1c0.5,0,1.2-0.1,2.1-0.2c1.9-0.2,4.4-0.4,7.6-0.6c6.4-0.5,15.4-1.3,25.2-2.4c9.8-1,18.7-2.1,25.1-2.9
							c3.2-0.4,5.8-0.7,7.6-0.9c0.9-0.1,1.5-0.2,2.1-0.2C262.6,301.5,262.9,301.4,262.9,301.5z"/>
					</g>
				</g>
				<g class="st25">
					<path d="M209.6,287.5c4.9,1.7,10.6,1.1,15.1-1.5c4.5-2.6,7.8-7.3,8.8-12.5C226.2,278.5,217.6,283.9,209.6,287.5z"/>
				</g>
				<g>
					<g>
						<path class="st3" d="M182.8,242c-0.1,0.1-0.9-0.6-2.2-1.7c-1.3-1.1-3.1-2.6-5.2-4.1c-2.1-1.6-4-2.9-5.3-3.9
							c-1.4-1-2.2-1.6-2.2-1.7c0-0.1,1,0.4,2.4,1.4c1.4,0.9,3.4,2.2,5.4,3.8c2.1,1.6,3.9,3.1,5.1,4.3
							C182.1,241.2,182.9,241.9,182.8,242z"/>
					</g>
				</g>
				<g>
					<g>
						<path class="st3" d="M176.9,253.8c0,0.1-4.9,1.6-10.9,3.2c-6.1,1.6-11,2.8-11.1,2.7c0-0.1,4.9-1.5,10.9-3.2
							C171.9,254.8,176.9,253.6,176.9,253.8z"/>
					</g>
				</g>
				<g>
					<g>
						<path class="st3" d="M189.2,262.9c0.1,0-0.3,0.9-0.9,2.3c-0.6,1.4-1.6,3.2-2.7,5.1s-2.3,3.6-3.2,4.8c-0.9,1.2-1.5,1.9-1.6,1.8
							c-0.1,0,0.4-0.8,1.3-2c0.8-1.2,1.9-3,3.1-4.9s2.1-3.7,2.8-5C188.7,263.7,189.2,262.9,189.2,262.9z"/>
					</g>
				</g>
				<g>
					<g>
						<path class="st3" d="M267.4,207.5c0.1,0-0.4,1.1-1.4,2.9c-0.9,1.7-2.3,4.1-3.9,6.7c-1.6,2.5-3.2,4.8-4.4,6.4s-2,2.5-2,2.5
							c-0.1-0.1,0.6-1.1,1.7-2.7c1.1-1.6,2.6-3.9,4.2-6.4c1.6-2.5,3-4.9,4-6.6C266.7,208.5,267.3,207.5,267.4,207.5z"/>
					</g>
				</g>
				<g>
					<g>
						<path class="st3" d="M281.6,228.5c-0.2,0-0.5-3.1-1.9-6.8c-1.4-3.6-3.3-6.2-3.1-6.3c0,0,0.6,0.6,1.3,1.6
							c0.7,1.1,1.6,2.6,2.3,4.5c0.7,1.8,1.1,3.6,1.3,4.9C281.7,227.7,281.6,228.5,281.6,228.5z"/>
					</g>
				</g>
				<g>
					<g>
						<path class="st3" d="M271.2,187.5c0.1,0.1-3.1,1.9-7.2,3.8c-4,2-7.3,3.5-7.4,3.4c-0.1-0.1,3.1-1.9,7.2-3.8
							C267.8,188.9,271.1,187.4,271.2,187.5z"/>
					</g>
				</g>
			</g>
			<g>
				<path class="st23" d="M188.9,279.4c0,0,0.3,2.1,3.7,0.3c0,0,4.5-0.3,7.1-2.1s3.1-3.1,4.7-3s6.3,0.1,6.3,0.2
					c0.1,0,1.6-2.4,0.3-3.1c-1.4-0.6-7.8-1-7.8-1l-1.9-0.2l-0.3-1.8l-1.3-2.8c0,0-1.8,0.8-1.9,1.8c0,0-2.6-1.2-3.3,0.6L188.9,279.4z
					"/>
			</g>
			<g>
				<g>
					<path class="st9" d="M241.8,191.1c0,0,0.1,0,0.4,0c0.3,0,0.7,0,1.3,0.1c1.1,0.1,2.7,0.5,4.5,1.3c1.8,0.8,3.7,2.2,5.8,3.7
						c2.1,1.5,4.4,3.2,6.8,5c4.8,3.6,9,7,11.9,9.6c1.5,1.3,2.6,2.4,3.3,3.3c0.3,0.4,0.6,0.8,0.7,1.1c0.1,0.3,0.2,0.4,0.2,0.4
						c-0.1,0-0.3-0.5-1-1.3c-0.7-0.8-1.9-1.9-3.4-3.1c-3-2.6-7.2-5.9-12-9.5c-2.4-1.8-4.7-3.5-6.8-5c-2.1-1.5-4-2.9-5.7-3.7
						c-1.8-0.8-3.3-1.3-4.3-1.5C242.4,191.2,241.8,191.2,241.8,191.1z"/>
				</g>
			</g>
		</g>
		<g>
			<g>
				<g>
					<path class="st23" d="M229.9,147.6c2.4,5,2.8,7.6,4.5,14.4c0.2,0.9,1.6,8.4,1.6,10.8c-0.1,2.6-1.9,5.8-3.9,7.2
						c-1.1,0.8-4.2,2.7-4.2,2.7l0.4,8.7l-21.5,2.3c0,0-2.8-17.9-3.1-26.7"/>
				</g>
				<g>
					<path class="st9" d="M232,157.7c-0.6-3.8-1.2-7.7-2.6-11.3c-1.4-3.6-3.7-7-7-9.1c-2.8-1.8-6.1-1.8-9.4-1.9
						c-4.8-0.1-9.3,1.5-13.1,4.6c-3.5,2.8-7.6,8.6-8.2,15.9c-0.1,1.1-0.1,2.2,0,3.3l0.4,6.6l13.9,15.5c4.1,3.6,10.9,2.8,14.9-0.9
						c4-3.7,5.6-9.5,5.2-14.9c-0.1-1.5-0.3-3-0.2-4.4c0.2-1.5,0.8-3,2-3.8C229.3,156.4,231.1,156.5,232,157.7z"/>
				</g>
				<g>
					<g>
						<path class="st28" d="M232.4,165.1c0,0-0.1,0.2-0.4,0.5c-0.3,0.3-0.8,0.8-1.6,1.1c-0.4,0.1-0.9,0.2-1.4,0.1
							c-0.5-0.1-1-0.4-1.4-0.8c-0.8-0.8-1.3-1.9-1.7-3.1c-0.4-1.2-0.4-2.4-0.1-3.5c0.3-1.1,1-1.9,1.7-2.3c0.7-0.5,1.4-0.6,1.8-0.6
							c0.5,0,0.7,0.1,0.7,0.1c0,0.1-1.1-0.1-2.3,0.8c-0.6,0.5-1.2,1.2-1.4,2.1c-0.3,1-0.2,2.1,0.1,3.2c0.3,1.1,0.8,2.2,1.5,2.9
							c0.7,0.7,1.6,0.9,2.3,0.7c0.7-0.2,1.2-0.6,1.6-0.9C232.2,165.3,232.4,165.1,232.4,165.1z"/>
					</g>
				</g>
				<g>
					<g>
						<path class="st28" d="M230.3,163.6c0,0.1-0.3,0.1-0.7-0.1c-0.4-0.2-0.9-0.7-1-1.4c-0.1-0.7,0.2-1.4,0.6-1.7
							c0.3-0.3,0.6-0.4,0.7-0.3c0,0.1-0.2,0.2-0.4,0.6c-0.2,0.3-0.4,0.8-0.3,1.4c0.1,0.5,0.4,1,0.7,1.2
							C230.1,163.5,230.3,163.6,230.3,163.6z"/>
					</g>
				</g>
				<g>
					<g>
						<path class="st9" d="M240.7,173.6c0,0-0.1,0.1-0.2,0.2c-0.2,0.1-0.4,0.2-0.8,0.3c-0.8,0-2-0.4-2.6-1.7c-0.6-1.3-0.3-3,0.3-4.6
							c0.2-0.8,0.5-1.7,0.5-2.6c0.1-0.9-0.2-1.8-0.8-2.5c-1.2-1.4-3.1-2.1-4.3-3.5c-1.2-1.3-1.8-2.8-2.1-4.1
							c-0.3-1.3-0.3-2.4-0.2-3.1c0.1-0.4,0.1-0.6,0.2-0.8c0.1-0.2,0.1-0.3,0.1-0.3c0.1,0-0.4,1.6,0.3,4.1c0.3,1.2,1,2.6,2.1,3.9
							c0.6,0.6,1.3,1.1,2.1,1.6c0.8,0.5,1.6,1.1,2.3,1.9c0.7,0.8,0.9,1.9,0.9,2.9c-0.1,1-0.3,1.9-0.6,2.7c-0.5,1.6-0.9,3.2-0.4,4.3
							c0.5,1.1,1.6,1.6,2.2,1.6C240.3,173.8,240.6,173.5,240.7,173.6z"/>
					</g>
				</g>
				<g>
					<path class="st22" d="M205.9,160.7c-2.7-2.9-7.4-3.8-10.9-1.8c-1.7,1-3.1,2.8-2.9,4.8l1,1.1c3.2,0.8,6.1,2.8,7.9,5.5
						c0.6,0.8,1.1,1.7,1.8,2.4c0.7,0.7,1.8,1.1,2.8,0.8c0.7-0.3,1.2-1,1.6-1.6C209.1,168.3,208.6,163.6,205.9,160.7z"/>
				</g>
				<g>
					<g>
						<path class="st22" d="M206.7,159.2c0-0.1,1.4,0.1,3.6-0.3c2.2-0.4,5.3-1.5,8.3-4s5.1-5.7,6.4-8.2c1.3-2.5,1.8-4.3,1.9-4.2
							c0,0-0.1,0.5-0.3,1.3c-0.2,0.8-0.6,1.9-1.2,3.2c-1.2,2.6-3.4,6-6.4,8.6c-3.1,2.6-6.3,3.6-8.6,3.9c-1.1,0.1-2.1,0.1-2.7,0
							C207,159.4,206.7,159.3,206.7,159.2z"/>
					</g>
				</g>
				<g>
					<g>
						<path class="st22" d="M230.4,151.1c0,0-0.1,0.5-0.5,1.3s-0.9,1.9-1.8,3.2c-1.6,2.6-4.6,5.6-8.3,7.1c-3.8,1.5-7.3,1-9.5,0.1
							c-1.1-0.5-2-1-2.6-1.5c-0.6-0.4-0.9-0.7-0.8-0.8c0.1-0.1,1.3,0.9,3.6,1.7c2.3,0.8,5.7,1.2,9.3-0.3c3.6-1.5,6.4-4.4,8.1-6.8
							C229.6,152.9,230.3,151,230.4,151.1z"/>
					</g>
				</g>
				<g>
					<path class="st9" d="M216.1,205.8c-0.1-1.7-1-3.3-1.9-4.7c-1.9-3.1-4.2-6.1-6-9.3s-3.1-6.9-2.8-10.6c0.3-4.7,3.1-9.3,1.7-13.8
						c-0.9-2.8-3.3-4.8-6-5.7c-2.7-0.9-5.8-0.7-8.5,0c-6.1,2.6-10.9,9.1-12.1,15.7c-1.2,6.6,0.2,13.4,2.6,19.6
						c1.2,3.1,2.7,6.4,1.9,9.7c-0.3,1.4-1.1,2.6-1.5,3.9c-0.5,1.3-0.7,2.8-0.1,4.1c0.6,1.3,2.4,2,3.5,1.2c-0.3,2-0.3,4.1,0.6,5.9
						c0.9,1.8,3.1,3,5,2.4c0.1,3.2,1.2,6.5,3.7,8.4c3.3,2.5,8.4,1.7,11.5-1s4.5-7.1,4.6-11.3c0.1-3.9-0.8-7.6-1.7-11.4
						c0.6,1.1,2.3,1.7,3.5,1.2C215.5,209.4,216.2,207.5,216.1,205.8z"/>
				</g>
			</g>
			<g>
				<g>
					<path class="st9" d="M174.4,203.1c0,0,0.1,0.2,0.2,0.5c0.2,0.3,0.5,0.8,1.1,1.2c0.6,0.4,1.5,0.6,2.5,0.5c1-0.1,2.1-0.8,2.7-1.9
						c0.7-1.1,1-2.5,0.9-4c-0.1-1.5-0.6-3.1-1.3-4.7c-1.4-3.2-2.6-6.9-2.8-11c-0.2-4.1,0.5-7.9,2-11.1c1.5-3.2,3.6-5.7,5.6-7.4
						c2.1-1.7,4-2.6,5.4-3.1c0.7-0.2,1.3-0.4,1.6-0.5c0.4-0.1,0.6-0.1,0.6-0.1c0,0.1-0.8,0.2-2.1,0.8c-1.4,0.5-3.3,1.5-5.2,3.2
						c-2,1.7-4,4.1-5.4,7.3c-1.4,3.1-2.1,6.9-1.9,10.9c0.2,4,1.3,7.6,2.7,10.8c0.6,1.6,1.2,3.2,1.3,4.8c0.1,1.6-0.3,3.1-1,4.2
						c-0.7,1.2-1.9,1.9-3,1.9c-1.1,0.1-2-0.2-2.6-0.6c-0.6-0.4-1-0.9-1.1-1.3C174.4,203.4,174.4,203.1,174.4,203.1z"/>
				</g>
			</g>
		</g>
		<g>
			<path class="st22" d="M233.8,164.8c-0.3-0.7-1.4-1.2-2.1-0.8c-0.7,0.4-1,1.4-0.7,2.1c0.4,0.7,1.3,1.1,2.1,0.8
				C233.8,166.5,234.2,165.5,233.8,164.8z"/>
		</g>
		<g>
			<g>
				<path class="st9" d="M213.9,188.5c0,0-0.3,0.2-0.8,0.3c-0.6,0.1-1.4,0.2-2.5-0.1c-1-0.3-2.1-0.9-3.1-2c-0.9-1.1-1.6-2.5-1.9-4.1
					c-0.6-3.2-0.1-6,0.2-8c0.3-2,0.4-3.3,0.4-3.3c0.1,0,0.1,1.3-0.1,3.3c-0.1,2-0.6,4.9,0,7.9c0.3,1.5,0.9,2.9,1.8,3.9
					c0.9,1,1.9,1.6,2.8,2C212.7,189,213.9,188.4,213.9,188.5z"/>
			</g>
		</g>
	</g>
</g>
<g id="Floor">
	<g>
		<g>
			<path class="st9" d="M472.4,476.2c0,0.1-99.6,0.3-222.4,0.3c-122.9,0-222.4-0.1-222.4-0.3s99.6-0.3,222.4-0.3
				C372.8,475.9,472.4,476,472.4,476.2z"/>
		</g>
	</g>
</g>
</svg>
